<svg width="180" height="54" viewBox="0 0 180 54" fill="none" xmlns="http://www.w3.org/2000/svg">
<path d="M177.313 37.2728C177.402 37.312 177.391 37.4947 177.412 37.5745C177.41 37.4077 177.393 37.2424 177.36 37.08C177.375 37.1438 177.364 37.2018 177.311 37.238C177.294 36.6797 177.265 36.12 177.233 35.5587C177.236 35.8285 177.263 36.1055 177.236 36.3679C177.13 34.4668 177.029 32.567 176.955 30.6949C177.375 27.4247 177.198 24.201 176.974 20.9526C176.964 21.6705 177.006 22.4043 176.968 23.1728C176.901 22.6754 176.953 22.1969 176.863 21.7444C176.828 21.7357 176.847 21.8691 176.844 21.9417C176.855 22.265 176.761 22.1882 176.775 21.9156C176.762 21.8184 176.781 21.2673 176.739 21.1992C176.668 21.5313 176.769 22.4536 176.752 22.8219L176.731 22.8263C176.701 22.5957 176.721 22.323 176.685 22.0823C176.64 22.3347 176.697 22.6363 176.659 22.8814C176.62 22.2868 176.636 21.6734 176.574 21.1035C176.525 21.2021 176.582 21.4007 176.564 21.5719C176.465 20.2334 176.383 19.3125 176.269 17.9624C176.28 17.9609 176.288 17.9551 176.295 17.945C176.284 17.9377 176.275 17.9363 176.266 17.9363C176.261 17.842 176.254 17.7478 176.247 17.655C176.273 17.6216 176.273 17.6027 176.247 17.6013C176.275 17.4287 176.235 17.0053 176.356 16.9226C176.409 16.9284 176.407 16.8704 176.41 16.7921C176.505 16.3005 176.283 15.6682 176.444 15.2709C176.404 15.2781 176.413 15.2433 176.386 15.2897C176.364 15.2346 176.471 15.1012 176.409 15.1404C176.413 15.1143 176.417 15.0882 176.421 15.0606C176.425 15.0635 176.428 15.0664 176.432 15.0708C176.432 14.9968 176.409 14.8054 176.46 14.7793C176.414 14.5095 176.398 14.1383 176.469 13.8816C176.425 13.8338 176.475 13.7308 176.469 13.6612C176.484 13.4727 176.641 12.0399 176.494 12.0704C176.445 12.0312 176.502 11.8267 176.498 11.7455C176.499 11.7687 176.501 11.7919 176.503 11.8166C176.516 11.119 176.566 10.2982 176.497 9.62682C176.497 9.63117 176.497 9.63552 176.495 9.63987C176.495 9.63842 176.495 9.63697 176.495 9.63552C176.468 9.80229 176.414 9.92556 176.414 10.1126C176.338 8.23321 176.49 6.30303 176.453 4.39751C175.828 4.00162 173.589 3.88125 170.623 3.91461C170.649 3.8334 170.684 3.78554 170.727 3.77539C169.605 3.35484 165.544 3.67968 162.862 3.8479C162.547 3.73189 161.058 3.99292 161.616 3.80874C160.686 3.67533 162.006 3.65938 162.349 3.65068C160.948 3.33889 158.992 3.50276 157.372 3.45635C156.112 3.84355 152.072 3.55641 154.782 3.52741C154.517 3.50421 154.726 3.43315 154.726 3.22433C154.667 3.34469 154.264 3.27508 154.533 3.47811C153.95 3.38239 153.505 3.49841 152.904 3.43895C153.14 4.63099 150.399 4.2786 149.701 4.23944C149.632 4.28875 149.326 4.2989 149.377 4.13648C149.251 4.01032 148.867 4.45407 148.879 4.13068C148.755 4.35691 148.561 4.12053 148.415 4.13068C147.899 4.08863 148.067 3.92911 148.019 3.51291C147.868 3.49696 147.96 3.59847 147.894 3.68258C147.692 3.88125 147.799 3.845 147.921 4.00307C147.44 3.77684 146.874 3.8421 146.632 3.58542C146.436 3.70288 146.207 3.58252 145.986 3.54336C146.023 3.37659 145.833 3.34034 145.917 3.52886C145.535 3.57672 146.021 3.08946 145.477 3.25333C145.469 3.08946 145.404 2.95169 145.212 2.91399C145.232 3.07061 145.315 3.33019 145.502 3.37659C145.124 3.48101 144.817 3.29828 144.753 2.89949C144.669 3.68403 142.912 2.72982 142.051 2.75012C142.21 3.25333 146.067 3.75364 145.048 3.70433C137.748 2.08304 139.979 3.22143 145.341 3.89285C144.348 4.2554 141.71 3.70578 141.399 3.92331C140.159 3.81309 139.081 3.69563 137.801 3.64197C135.108 3.61877 132.084 3.66953 129.301 3.21127C130.156 3.17647 130.893 3.33454 131.708 3.34904C130.675 3.10541 129.514 3.15327 128.435 2.9807C128.555 3.04596 128.455 3.12571 128.548 3.20112C128.589 3.26058 128.094 3.3911 128.024 3.42155C128.228 3.68983 127.743 3.52886 127.622 3.59267C127.321 3.8595 126.374 3.76959 125.458 3.78119C125.604 3.8624 125.769 3.89865 126.026 3.8914C125.352 3.94506 124.788 3.95376 124.26 3.94071C124.458 3.95666 124.651 3.99437 124.854 3.98131C125.124 4.19014 124.229 3.96246 124.024 3.93781C124.049 3.93636 124.073 3.93636 124.096 3.93636C123.035 3.8972 122.099 3.76814 120.685 3.71738C121.015 3.874 121.657 3.8247 122.086 3.93056C122.583 4.37866 120.42 3.59847 120.062 3.89285C121.111 4.34966 120.061 4.02047 119.393 4.06397C120.548 4.16694 119.774 4.53963 119.101 4.34821C119.433 4.48887 119.877 4.45552 120.235 4.57153C119.959 4.63824 119.28 4.42797 119.827 4.7325C118.445 4.45697 118.829 4.59039 117.594 4.48742C119.182 5.09214 114.199 4.39461 113.393 4.50483C113.463 4.50773 113.525 4.55848 113.579 4.57588C113.42 4.57153 113.261 4.56573 113.102 4.56138C113.175 4.55123 113.253 4.53383 113.339 4.51063C112.771 4.62519 112.34 4.20609 111.821 4.35981C111.924 4.58458 112.472 4.3105 112.719 4.55123C108.556 4.26555 104.033 4.67014 99.9995 4.2699C100.745 3.92186 101.042 4.29165 101.981 4.28585C101.292 3.72463 96.1903 4.45117 99.2631 3.8479C99.2523 3.77829 99.2604 3.68693 98.7609 3.69273C97.9853 3.69708 98.6255 3.86095 98.1612 3.91751C98.0137 3.61007 98.1612 3.51726 98.4536 3.47666C97.6428 3.36499 97.3599 2.30202 96.8725 1.98298C97.1812 2.41078 96.614 2.09029 96.48 1.91917C95.8383 1.50733 95.8641 1.23759 95.8099 1.90177C95.4011 2.05259 95.1277 1.25065 94.8759 1.92788C94.5591 1.63639 93.0945 1.45947 93.9594 1.91192C93.7713 1.94963 93.5168 1.97283 93.4099 2.07869C93.376 2.23821 93.2691 2.35568 93.2001 2.27447C93.1283 2.18891 92.9253 2.21066 92.9117 2.31362C93.1175 2.5326 94.3723 2.27302 94.1435 2.62976C94.0353 2.5413 93.6657 2.61671 93.9527 2.66021C94.0935 2.60075 94.2302 2.78493 94.3182 2.57465C94.3439 2.51084 94.3845 2.50649 94.3777 2.58915C94.3588 2.80088 94.8989 2.70952 95.1574 2.86323C95.5649 2.93864 95.0261 3.08946 94.8407 2.92124C94.5903 2.72547 94.3899 3.18082 94.1639 2.98505C93.5926 3.22143 95.2075 2.88789 95.0221 3.31424C94.7419 4.04947 93.9364 3.0329 93.5655 3.40705C92.7222 3.27073 91.3008 2.44704 90.4738 2.04389C90.5401 1.75966 90.5996 2.08304 90.6931 2.12365C90.6308 2.00473 90.6376 1.83506 90.5198 1.82636C90.2978 1.91192 90.18 1.73065 90.004 1.61029C90.0108 2.08014 89.9756 1.77996 89.847 1.63204C89.9729 2.38178 88.1265 1.56098 87.2209 1.92207C87.1207 2.05114 87.313 2.44849 87.3048 2.08449C87.3766 2.16135 87.5444 2.27012 87.6216 2.16715C87.6866 1.84232 88.3715 2.16425 88.6423 2.06419C88.4893 2.58625 88.2957 2.23386 88.2186 2.45429C88.1157 2.38613 87.9438 2.45429 87.9817 2.25126C88.0277 2.1599 88.0778 2.34842 88.1265 2.25126C87.8639 1.97573 87.9126 2.24836 87.9262 2.46154C87.3238 2.37598 86.6402 2.43833 85.9539 2.64426C85.8415 2.64426 85.9674 2.88354 85.8767 2.88789C85.7792 2.88209 85.8794 2.69792 85.805 2.67181C85.6953 2.79508 85.6723 3.0387 85.4923 2.9894C85.1809 3.00245 84.8939 3.32729 84.6503 3.32439C84.7491 3.92041 84.5488 3.11846 84.1562 3.59122C84.029 3.8247 84.5393 3.72463 84.4621 3.89575C84.4283 4.04367 84.3268 3.8769 84.2929 3.97696C84.3214 3.61442 83.9518 4.13938 83.7203 4.17854C83.9789 4.39026 84.0709 3.97841 84.2252 4.03787C84.2469 4.2757 83.4712 4.72235 83.4523 4.43087C82.747 4.82676 81.8509 4.11038 83.6323 4.34241C84.4405 4.19594 83.1586 4.28005 83.1761 4.07993C83.0286 4.32065 82.8689 4.21769 82.7971 4.00887C82.4641 4.40186 81.1416 4.04222 81.0942 4.35546C84.7085 4.49902 77.1686 4.64404 75.6985 4.66144C75.2992 4.62084 75.4968 4.57153 74.8931 4.48017C75.0122 4.41782 74.82 4.30905 74.7442 4.32065C74.8863 4.10748 76.1479 4.31485 76.6609 4.16839C75.5916 3.53466 76.0261 3.92621 74.7198 3.96826C74.1688 4.17709 74.3056 3.8566 74.6629 3.71593C74.6318 3.87545 75.5753 3.37949 75.3005 3.62022C74.7794 4.17564 77.044 3.07061 77.2809 2.83133C76.8207 2.58045 76.4254 3.28668 76.2075 3.16632C75.5645 2.94299 76.6664 2.82698 76.8708 2.62106C76.6785 2.1657 75.9977 2.5471 75.6173 2.49779C75.1719 2.31072 76.1506 2.26576 76.3009 2.28607C76.3212 2.05549 77.0874 1.81041 76.822 1.66684C76.1858 1.43337 76.1046 2.03229 75.6051 1.93223C75.0785 1.92498 73.5665 2.5558 73.779 2.66746C74.1661 2.5703 74.7888 2.39338 75.2626 2.19616C74.9323 2.66456 74.6156 2.45139 74.1946 2.70952C74.3705 2.77332 74.4382 2.84873 74.1919 2.95895C74.001 2.91689 73.9861 2.89224 73.9293 3.08946C73.691 2.9749 73.0832 2.67906 72.9533 3.06191C74.1756 3.15037 71.3884 3.58687 72.3725 3.04741C72.1045 2.85743 71.8081 3.43025 71.3817 3.20402C71.8081 3.4462 71.2612 3.4549 71.0094 3.4085C71.0798 3.3882 71.1502 3.35774 71.2219 3.30409C69.9373 3.56512 68.344 3.12571 67.1149 3.53321C67.7092 3.57382 69.1143 3.60282 69.5352 3.56657C69.6341 3.56657 69.7315 3.56512 69.8303 3.56367C69.343 3.8479 69.9684 3.52451 69.9481 3.78119C70.0754 3.816 70.0645 3.58397 69.9441 3.56367C70.6222 3.57672 71.2937 3.50566 71.9502 3.47521C71.7119 3.73044 71.3681 3.4549 71.1339 3.61877C71.0838 3.66228 70.9796 3.78844 70.9241 3.61152C70.8239 3.51146 70.8415 3.74204 70.7359 3.71303C70.5518 3.62167 70.5031 3.70723 70.6263 3.8595C70.3569 3.93201 70.1133 4.03932 70.6114 4.06687C70.6209 4.15388 70.4774 4.16694 70.4436 4.09298C70.3732 4.14228 70.0551 4.19159 70.1458 4.02917C70.3515 3.78264 69.6936 3.90301 69.7248 3.99147C69.3214 4.20754 69.4202 4.11908 69.2402 3.80439C68.9329 4.53238 68.5823 4.04077 68.0205 4.22929C67.1108 4.07413 67.3098 4.54543 66.6601 4.41637C66.901 4.02047 67.479 4.13358 67.7349 4.11618C67.9433 4.11763 68.2993 4.12923 68.4266 4.02192C68.3549 3.98131 67.6834 3.8595 67.8405 4.00742C67.5914 4.00017 66.235 4.16839 66.8563 3.96101C67.3775 3.80004 66.9105 3.76089 66.6695 3.90591C66.4123 3.91171 66.2242 4.17129 66.4367 4.33661C67.0838 3.75219 66.6073 4.67014 66.0482 4.34241C62.5246 4.20899 56.8812 4.20174 52.8784 4.79776C53.2628 4.82966 55.3691 4.58023 54.5759 4.90362C55.07 5.28792 55.4219 4.66289 56.5401 4.69045C54.4202 5.23426 57.8734 4.84561 58.5976 4.90652C58.3986 4.99353 58.6572 5.12985 58.5827 5.24296C58.1238 5.09939 57.7949 5.31257 57.3157 5.30387C57.4673 5.29517 57.8328 5.18495 57.7705 5.02689C57.447 5.28502 57.3414 5.02109 57.0734 5.22991C56.8934 5.41263 56.6849 5.15885 56.9881 5.12695C57.2128 4.82531 56.4913 5.22846 56.3749 5.22701C56.1285 5.1777 56.3952 5.61275 55.9498 5.32997C55.2622 5.20236 54.0046 5.81868 53.5742 5.39813C53.1099 5.54895 52.4777 5.78097 52.2313 5.43728C51.8753 5.60695 51.4733 5.57795 51.1267 5.44308C50.856 5.28212 51.2878 5.65336 51.0929 5.71427C50.9264 5.83173 50.9724 5.22121 50.8032 5.5852C50.8384 5.68526 50.8262 5.78532 50.6936 5.77372C50.634 5.12695 49.3061 5.88394 50.3186 5.68236C50.5365 5.83028 49.7785 5.86363 49.5633 5.81433C50.768 5.32707 47.4421 6.07536 47.3473 5.85493C47.3541 5.84913 47.2715 5.98835 47.1673 5.81433C47.0549 5.97965 46.4552 5.71572 46.8004 5.77082C46.6312 5.65481 46.4065 5.93759 46.1439 5.84333C46.2481 5.77082 46.194 5.60405 46.2535 5.49674C46.087 6.01445 45.352 5.92019 44.9432 5.83898C44.4369 6.4669 43.4893 5.79258 42.5201 6.02025C41.7946 6.09566 42.4917 6.12756 42.9492 6.17542C41.5509 6.08261 39.1197 6.8628 38.2845 6.18412C38.6689 6.34944 38.6622 6.32334 39.0832 6.13482C39.2524 6.12031 39.5718 6.4321 39.4256 6.14642C39.3918 6.10001 39.4432 6.07246 39.5177 6.05506C40.7482 6.38714 41.9232 5.92309 43.2037 5.70266C42.1384 5.38073 41.777 6.15367 40.7509 6.0159C40.7089 5.84768 41.1868 5.72587 41.2179 5.56635C40.8064 5.43873 41.0324 5.31547 41.4413 5.36478C41.4196 5.1632 41.0419 5.35462 40.9918 5.21831C41.1245 4.96453 40.2324 4.86447 40.5045 4.67304C40.6724 4.64694 40.5587 4.90362 40.8267 4.77311C41.1448 4.63534 40.7076 4.59909 40.6994 4.49467C41.5414 4.47872 41.7066 5.00658 42.5296 4.66434C41.2152 4.18289 42.799 4.61649 43.1983 4.34966C42.47 4.22784 41.7133 4.28585 40.9837 4.04947C41.3099 3.96391 41.647 3.8566 40.9282 3.86095C40.1756 3.8943 40.0822 3.68983 39.5001 3.81745C39.2632 3.71593 39.6666 3.67243 39.7302 3.56222C39.6152 3.57817 39.5069 3.58397 39.4026 3.58107C39.228 3.61297 37.9583 3.31569 38.7407 3.15907C39.7708 3.06481 38.9207 2.95024 38.3955 3.001C38.405 2.90239 38.229 3.0039 38.3251 3.03C38.1207 3.27218 36.7332 3.22578 37.7674 3.37224C38.9992 3.34904 36.767 3.34759 37.0608 3.74929C36.078 2.93719 36.6655 3.52306 36.0496 3.64052C36.4083 3.16052 35.5284 3.45635 35.19 3.4607C34.9897 3.55206 34.543 3.46505 34.5403 3.34904C34.3711 3.10831 33.8756 3.57527 33.4614 3.35194C35.1562 2.95605 34.2573 2.77042 33.28 3.04306C33.3436 3.25913 33.0729 3.16777 33.0255 3.04015C32.9199 3.10396 32.6857 3.12862 32.8577 3.25478C32.8725 3.4346 32.212 3.4549 32.0468 3.39255C32.4231 3.26783 32.2851 2.85888 31.8059 3.05031C31.7192 3.07931 31.2008 2.92994 31.4715 3.14602C31.1439 3.69708 29.5493 3.14312 28.7804 3.34034C27.9506 3.39545 28.0806 3.25478 28.7642 3.13007C28.9659 3.04886 30.0637 3.27508 29.4072 2.97345C28.7154 2.92849 29.2975 2.24256 28.5016 2.54565C28.9428 2.77187 28.1753 2.98505 27.8058 2.88789C28.7736 2.31217 26.2206 2.9575 25.8687 2.91689C25.694 2.81393 26.2179 2.81393 25.9837 2.70807C25.8064 2.64426 25.6697 2.79943 25.4991 2.81683C25.3638 2.87629 25.1404 2.74287 25.38 2.69066C25.9512 2.53115 25.4964 2.58335 25.1715 2.57755C26.62 2.15265 23.8057 2.85163 23.3251 2.66746C22.9596 2.67906 22.2043 3.394 22.429 2.85888C22.0419 2.62831 21.9322 2.92559 21.5762 2.86178C21.7278 2.82698 21.4462 2.74577 21.5654 2.85743C21.1146 2.71677 21.1254 2.95459 20.9224 3.13587C20.5582 3.29393 20.4202 3.05756 20.8628 2.9836C20.6002 2.86033 20.2076 3.10686 19.918 3.28233C19.7961 3.27943 19.6743 3.27508 19.5525 3.27218C19.7406 3.04596 20.3322 3.28668 19.788 3.0271C19.4333 2.81683 19.4266 3.08221 19.2547 3.10396C19.1761 3.05176 19.1382 2.99665 19.2005 2.93719C19.4577 2.77912 18.6875 2.51374 18.7931 2.73562C19.1748 2.84293 18.72 3.09236 18.6915 2.86758C18.5941 2.74432 18.5291 2.5326 18.3491 2.5819C17.859 2.68921 18.6631 2.89224 18.192 3.00825C18.1528 3.0358 18.0986 3.05611 18.0309 3.03725C17.9294 2.92414 18.2394 2.84873 17.8847 2.76317C17.7778 2.72837 17.5463 2.61671 17.7724 2.5268C17.346 2.34407 16.8844 2.80523 16.4336 2.92269C16.5108 2.6022 16.0221 2.89369 16.037 3.18372C16.0329 3.18372 16.0289 3.18372 16.0248 3.18372C15.9273 2.9778 15.7568 2.91399 15.6241 2.74142C15.7121 2.64426 15.635 2.5993 15.5375 2.5761C15.773 2.51809 15.3845 2.56595 15.3304 2.55435C14.9933 2.55 15.3141 2.77622 15.0989 2.83278C14.8891 2.80523 14.927 2.61526 14.617 2.75302C14.6603 2.5326 14.529 2.75592 14.4789 2.62396C14.4126 2.57755 14.4397 2.37888 14.3963 2.48619C13.7913 2.35713 14.3029 2.78202 14.0336 2.84148C13.3594 2.5674 12.9479 2.93719 12.1885 2.79363C12.4105 2.78202 12.9493 2.73997 12.9127 2.5471C12.7381 2.48329 12.5324 2.78638 12.3726 2.68051C12.0559 2.42818 11.7648 2.89659 11.4846 2.72257C11.3479 2.56305 11.8122 2.64426 11.8569 2.5355C11.5956 2.43688 10.1973 2.64426 10.7198 2.81248C9.42298 2.42238 7.45881 3.23593 6.52343 2.65876C6.19448 2.54275 5.91157 2.68341 5.66385 3.0416C2.72098 3.03145 0.744623 3.06481 0.748684 3.14747C0.842087 4.13938 0.745977 5.1835 0.943612 6.14497C0.932783 5.19511 0.782526 4.23654 0.877282 3.31134C0.905709 5.63741 1.23059 7.94028 1.32264 10.2359C1.26308 10.0372 1.26849 9.82114 1.22653 9.61957C1.24819 10.5158 1.35107 11.5512 1.36596 12.4488C1.43364 13.1043 1.55818 13.7003 1.48914 14.3964C1.33618 16.7326 1.6394 19.1399 1.51892 21.4602C1.49591 21.4109 1.52027 21.2412 1.4729 21.2166C1.44718 21.2311 1.45936 21.2876 1.46342 21.3311C1.52569 21.5559 1.42958 21.7807 1.36731 21.9881C1.347 21.8111 1.32399 21.6357 1.27391 21.4863C1.2915 22.4507 1.31722 23.3759 1.35648 24.3634C1.31181 24.0241 1.3091 23.6659 1.2712 23.2903C1.14531 23.6442 1.18727 22.7537 1.10605 22.6667C1.14937 23.2468 1.10605 24.0574 1.35783 24.5346C1.35783 24.755 1.35513 24.9754 1.35377 25.1944C1.30369 25.1552 1.27661 24.3112 1.24413 24.726C1.42552 25.8934 1.38626 27.0622 1.35919 28.2455C1.31858 28.2223 1.26443 28.218 1.23194 28.2528C1.24413 28.2803 1.30504 28.3093 1.35783 28.3006L1.35242 28.6748C1.33753 28.6603 1.31858 28.6545 1.29557 28.6559C1.29557 28.6559 1.30369 28.6936 1.30639 28.6965C1.30098 28.711 1.28609 28.7357 1.29421 28.7531C1.29827 28.7342 1.30233 28.7168 1.30639 28.698C1.30639 28.698 1.30639 28.6975 1.30639 28.6965C1.32128 28.6994 1.33618 28.698 1.35107 28.6936L1.34024 29.5536C1.31993 29.7972 1.42416 29.8045 1.38897 30.0699C1.24413 29.6986 1.34971 31.9058 1.34294 32.1421C1.33211 32.1073 1.32128 32.0711 1.31316 32.0334C1.31452 32.0305 1.31722 32.029 1.31858 32.0261C1.31452 32.0203 1.31181 32.0174 1.3091 32.0131C1.29286 31.929 1.29015 31.8376 1.23059 31.7622C1.25631 31.9783 1.2536 32.1885 1.29963 32.3945C1.26714 32.3582 1.2888 32.2944 1.22247 32.2698C1.236 32.4249 1.21028 32.5757 1.25902 32.7237C1.26849 32.7512 1.28067 32.786 1.24277 32.7947C1.1602 32.6845 1.17509 32.4249 1.12906 32.2654C1.13854 32.2828 1.14937 32.3002 1.15885 32.3176C1.19404 32.2292 1.20893 32.2509 1.125 32.1784C1.1223 32.1827 1.12094 32.1856 1.11959 32.1885C1.12636 32.1175 0.997759 31.6157 0.969332 31.8376C1.02889 31.9435 0.930075 31.9928 0.898941 32.0682C0.912478 32.1798 0.912478 32.2872 0.99099 32.3771C0.947673 32.4452 0.980161 32.4916 1.02348 32.5409C1.03295 32.5511 1.04378 32.5844 1.00859 32.583C0.997759 32.583 0.985576 32.5554 0.973393 32.5801C0.995051 32.657 1.10199 32.6729 1.05597 32.7889C1.08575 32.9629 1.13448 33.1268 1.13448 33.3153C1.06409 33.2834 1.09116 33.1718 1.0695 33.1051C1.05732 33.0412 0.954441 33.0267 1.00047 32.9412C0.999112 32.9383 0.997759 32.9339 0.996405 32.931C0.999112 32.9281 1.00047 32.9267 1.00317 32.9238C0.999112 32.9209 0.993698 32.918 0.989637 32.9165C0.903002 32.7701 1.00453 32.5337 0.855624 32.4351C0.756806 32.1581 0.751391 31.8014 0.598427 31.5331C0.614671 31.636 0.567293 31.7419 0.628208 31.8391C0.637683 31.8536 0.659342 31.8826 0.628208 31.884C0.57 31.8884 0.58489 31.9304 0.58489 31.9623C0.568646 32.1827 0.709428 32.4771 0.618732 32.6599C0.575415 32.5438 0.591659 32.3814 0.563232 32.2364C0.419743 32.3727 0.507731 32.0566 0.411621 31.9913C0.421097 32.1726 0.425158 32.757 0.660696 32.7193C0.603842 32.8266 0.710781 32.873 0.712135 32.9687C0.693184 33.0253 0.792001 33.4748 0.698598 33.3443C0.69183 33.295 0.731086 33.2269 0.675586 33.2008C0.634976 33.179 0.637683 33.1544 0.656635 33.1196C0.705367 32.9615 0.507731 33.0369 0.540219 32.7904C0.395377 32.5975 0.605195 33.2051 0.594366 33.2588C0.565939 33.3487 0.644452 33.4502 0.630915 33.5314C0.546988 33.6648 0.607903 33.8388 0.63633 33.981C0.63633 33.981 0.63633 33.9824 0.63633 33.9839C0.63633 33.9839 0.63633 33.9824 0.63633 33.981C0.662049 34.0317 0.759513 34.1274 0.682354 34.1753C0.626854 34.1956 0.644452 34.2275 0.648513 34.2579C0.697245 34.4566 0.674232 34.6756 0.714842 34.883C0.693184 34.8902 0.693184 34.9134 0.714842 34.9468C0.727025 35.3325 0.752745 35.6922 0.728379 36.0648C0.716196 36.149 0.835319 36.059 0.82855 36.1258C0.819075 36.1316 0.810953 36.1403 0.802831 36.1548C0.809599 36.1649 0.817721 36.1722 0.825843 36.1751C0.77305 36.352 0.866453 36.571 0.783879 36.7232C0.763574 36.7 0.783879 36.6652 0.754099 36.6507C0.737855 36.9262 0.865099 37.2293 0.797416 37.5107C0.882697 37.9936 0.95038 38.4997 0.908417 39.0101C0.921953 39.2523 0.797416 39.5351 0.900295 39.7555C1.014 39.989 0.923307 40.3066 0.988283 40.5473C1.0113 40.4125 1.0316 40.2848 1.05597 40.1456C1.11011 40.2761 1.03025 40.4241 1.07492 40.5676C1.09928 40.7387 1.18863 40.5705 1.24142 40.5488C1.27932 40.5937 1.22924 40.6648 1.25496 40.7213C1.37002 40.0209 1.45124 39.3031 1.51486 38.5736C1.6421 39.7033 1.46071 40.8113 1.46207 41.9105C1.54058 42.3803 1.36054 42.7429 1.44041 43.1591C1.50132 43.4462 1.4932 43.6927 1.40927 43.8682C1.47425 45.3227 1.34971 46.7903 1.65293 48.2202C1.83162 47.8388 1.59608 45.4721 1.9169 45.5229C1.86817 45.6128 2.0103 45.6737 1.98052 45.5504C2.14431 45.636 2.09694 45.9332 2.25531 46.0536C2.25125 46.174 2.27697 46.3175 2.27697 46.4408C2.25261 46.4089 2.21606 46.3813 2.2147 46.3378C2.2147 46.3146 2.22689 46.2784 2.18899 46.2784C2.12401 46.2871 2.16056 46.3668 2.13484 46.4046C2.11318 46.361 2.12672 46.3045 2.09423 46.2682C2.01842 46.2958 2.06309 46.3814 2.01165 46.4307C2.0482 46.2552 1.91961 46.1638 1.86004 46.0275C1.66376 47.4951 1.78695 49.0439 1.82891 50.4766C1.85328 50.4563 1.88035 50.436 1.91419 50.4085C1.91148 50.6274 1.85463 50.4215 1.83026 50.5651C1.8262 50.5897 1.82079 50.6303 1.81808 50.6724C1.70031 50.8421 1.57442 50.9769 1.44176 51.0697C1.86681 51.019 2.32435 50.9494 2.79814 50.8696C4.60934 50.9566 9.01011 51.0451 13.8725 51.1104C13.7669 51.1365 13.6748 51.1597 13.6072 51.1814C12.9709 51.5033 13.6153 51.3293 14.441 51.1176C14.9581 51.1249 15.4793 51.1307 16.0032 51.1365C15.4806 51.3279 15.7202 51.3772 16.8275 51.1466C16.9656 51.1481 17.1023 51.1495 17.2404 51.151C16.814 51.2742 16.3849 51.4033 15.9815 51.6107C16.5148 51.7905 18.1135 51.3917 19.0611 51.1684C19.2398 51.1698 19.4185 51.1713 19.5971 51.1727C19.5809 51.1814 19.5687 51.1887 19.5498 51.1974C19.6824 51.2293 19.8841 51.2148 20.1224 51.1771C20.3944 51.18 20.6652 51.1814 20.9346 51.1843C20.0384 51.4395 19.141 51.7557 18.4005 52.3285C19.5863 53.4756 17.5396 53.0463 16.6935 53.3538C16.994 53.8019 19.4848 53.0724 20.5758 53.1232C21.3759 53.0782 24.5312 51.6962 26.0067 51.2119C29.0214 51.2191 31.2996 51.2032 31.9913 51.1539C32.6181 51.2496 33.169 51.3627 33.2624 51.5744C33.7619 51.5381 34.723 51.3076 36.0956 51.615C36.5315 51.6817 36.8469 51.5091 36.2702 51.3627C36.0591 51.2742 36.2256 51.1597 36.365 51.2177C37.7322 51.2061 38.696 50.8667 40.0213 50.8595C39.9834 50.8885 39.9427 50.9131 39.8981 50.9233C40.9499 51.151 41.6741 50.5346 42.6975 50.3809C41.333 51.1234 44.1594 50.1155 44.1851 50.2707C43.2714 50.6376 42.2169 50.8972 41.4778 51.7267C42.3915 53.0521 40.5884 52.2023 40.2392 52.8549C41.716 52.7389 43.7845 52.5692 44.885 52.0501C44.9608 51.8253 44.9594 52.1371 44.866 52.1704C45.2424 52.082 45.5821 52.0037 45.9449 51.9268C45.8542 51.6803 46.2346 51.7165 46.0735 51.847C46.2955 51.8151 50.4499 51.0871 49.8164 50.8914C50.3457 50.9276 51.12 50.6884 50.236 50.7652C48.8648 50.626 52.5413 50.5999 51.0415 50.4462C51.2459 50.3722 52.253 50.4143 51.3948 50.1924C51.7562 50.2649 52.1934 50.0285 52.2706 50.4375C52.3477 50.1793 52.3031 50.1851 52.5142 50.1866C52.1691 50.1663 51.9471 49.8661 51.813 50.0778C51.7305 49.9183 51.323 49.943 51.4056 49.8153C51.7657 49.6442 51.8374 49.7646 52.0147 49.9328C52.2787 49.5442 54.1251 49.7385 53.8517 49.8763C54.7397 50.0329 53.7285 49.8792 54.4148 49.7399C54.3119 49.5558 53.9613 49.8792 53.7908 49.6863C54.5285 49.3745 57.1695 49.7124 57.3414 49.0859C57.2913 48.8901 57.1343 49.0801 57.1167 49.1729C56.9286 49.083 56.4994 49.0091 56.3424 49.1077C56.1082 49.389 55.0009 49.3136 54.6855 49.1396C54.4595 48.8669 55.5289 48.7234 55.4558 49.0439C54.871 48.996 55.2635 49.2106 55.625 49.1381C55.7874 49.0874 55.4842 48.9336 55.6331 48.8292C56.4345 48.8568 57.4754 48.8742 58.2741 48.7234C59.8552 48.5537 59.5019 49.5007 60.5185 49.2396C60.7824 49.3411 60.9408 48.7016 61.0153 49.0888C60.9855 49.1309 60.9219 49.1787 61.0396 49.1918C61.8748 48.7016 63.085 48.8104 64.0353 48.5465C64.3927 48.7147 64.2289 48.1027 63.8593 48.3188C63.636 48.4087 63.3585 48.3318 63.4289 48.0722C63.8566 47.904 64.4563 47.8634 64.7622 48.226C65.102 47.717 66.0265 48.1012 66.9836 47.746C64.0746 48.049 66.698 47.3791 67.8364 47.2427C67.7687 47.2645 67.6956 47.3022 67.5914 47.3617C67.9528 47.395 67.6361 47.6909 68.1153 47.5429C67.1542 46.9817 70.6656 47.6357 69.7748 47.7793C69.7424 47.6401 68.631 47.5299 68.7853 47.6677C68.8232 47.746 69.2293 47.7547 69.2022 47.8431C69.0736 47.9214 69.1819 48.0142 69.2523 47.991C69.5583 47.9635 69.7613 47.8779 70.0185 47.9185C69.982 47.9084 69.9535 47.8982 69.9292 47.8881C72.0896 47.7822 74.5425 47.9548 76.8126 48.2086C76.6989 48.2666 76.9168 48.2361 76.8613 48.2158C76.9899 48.2666 77.7886 48.2825 77.5422 48.429C77.3825 48.4768 77.5138 48.5276 77.7601 48.545C76.6786 48.6045 76.8586 48.3753 75.6795 48.1723C77.0224 48.806 78.0769 48.5624 78.9771 49.186C78.793 49.2585 78.6698 49.2947 78.3679 49.3977C80.2455 49.0134 80.4607 49.2527 82.1974 49.4963C81.8875 49.5369 81.5165 49.5471 81.193 49.5616C80.3578 49.0772 79.9246 49.5833 79.0624 49.4572C79.4847 49.505 79.9057 49.5674 80.3077 49.5949C79.9233 49.6152 79.5294 49.637 79.1639 49.7312C87.007 51.615 98.2411 49.5326 106.072 49.8298C105.731 50.1083 107.489 49.6877 107.262 49.5964C108.234 49.5558 108.962 49.5108 109.805 49.5587C108.339 50.0619 109.761 50.1677 109.969 49.737C110.08 49.724 110.026 49.8284 110.087 49.8719C110.155 49.8081 110.306 49.7863 110.197 49.6587C110.153 49.4978 110.509 49.5137 110.62 49.4905C110.714 49.4644 110.777 49.5732 110.662 49.5935C110.424 49.6573 110.665 50.0807 110.876 49.869C110.957 49.8487 111.269 49.9821 111.093 49.7762C111.338 49.257 112.545 49.7675 113.167 49.5964C113.554 49.8037 112.371 49.8153 112.254 49.8008C112.796 50.0604 112.572 50.6303 113.008 50.4012C112.617 50.1054 113.807 49.7994 113.242 50.2751C113.712 50.4273 114.278 50.0343 114.713 50.0648C114.539 50.365 114.665 50.3113 114.951 50.1721C115.303 50.1764 114.906 50.3418 114.814 50.4172C115.335 50.4186 114.982 50.3795 114.78 50.6129C115.479 50.2402 116.288 50.5796 116.813 50.0358C116.953 49.8647 117.025 50.1155 116.954 50.2301C117.06 50.2417 117.178 50.2286 117.264 50.3664C117.29 49.9154 117.804 50.4998 117.854 50.0314C117.892 49.9386 117.979 49.8661 118.083 49.9053C118.305 49.9923 117.994 50.0387 117.948 50.0981C118.409 50.3244 118.526 49.463 118.875 49.7631C118.779 50.0329 118.288 49.8371 118.642 50.0807C118.868 50.2997 118.876 50.0358 118.987 50.0184C119.063 50.2083 118.963 50.5158 119.28 50.4723C119.358 50.3766 119.021 50.2504 119.257 50.1837C119.434 50.2185 119.509 50.903 119.667 50.4157C119.564 50.3084 119.511 50.217 119.672 50.146C119.939 50.0242 119.618 50.3505 119.866 50.4012C120.101 50.4404 119.844 50.7449 120.026 50.7029C120.378 50.6202 120.52 50.4317 120.804 50.2838C120.762 50.6347 121.111 50.2344 121.065 50.0097C121.216 50.2185 121.256 50.6884 121.509 50.6898C121.753 50.7174 121.477 50.3273 121.749 50.4317C121.737 50.6884 121.929 50.4694 122.032 50.523C122.062 50.6216 122.04 50.8508 122.232 50.8073C122.484 50.7493 122.178 50.5491 122.326 50.4534C122.768 50.7043 123.002 50.4346 123.478 50.5462C123.247 50.5274 122.862 50.8798 123.2 50.7391C123.26 50.6753 123.379 50.6158 123.421 50.6666C123.618 50.932 123.819 50.4766 123.995 50.6608C124.056 50.7696 123.924 50.7652 123.842 50.7783C123.556 50.8783 124.141 50.9523 124.187 50.8261C124.301 50.6245 124.827 50.932 124.49 50.6013C125.272 51.019 126.72 50.3476 127.193 50.9421C127.945 50.5564 128.298 51.1278 129.094 50.9798C129.176 51.164 129.463 51.077 129.557 51.2394C129.698 51.1408 129.482 50.99 129.642 50.9537C129.903 50.9131 129.654 51.1829 129.814 51.2177C130.005 51.2104 129.798 50.8899 130.037 50.9465C130.177 51.0639 130.009 51.3119 130.36 51.2438C130.934 51.267 130.785 51.0117 130.305 51.0668C130.923 50.845 131.845 50.9842 132.37 50.9291C132.519 50.8841 132.766 50.9204 132.852 51.019C132.741 51.1234 132.44 50.9726 132.391 51.1423C132.783 51.2075 133.324 51.1785 133.669 51.1249C133.367 50.7638 134.014 51.1249 133.883 50.5781C134.012 50.5332 134.326 50.8566 134.333 50.6231C133.97 50.5941 134.163 50.2997 134.418 50.4534C134.586 50.5665 134.587 50.2765 134.789 50.3882C135.062 50.2635 134.503 50.2983 134.806 50.0793C134.575 50.1126 134.361 49.9894 134.22 49.8371C134.249 50.0561 133.977 49.9372 133.933 49.8081C134.066 49.6848 134.366 49.7805 134.546 49.6776C134.919 49.3571 133.883 49.5253 133.776 49.2889C134.19 49.2179 134.855 49.4238 135.03 49.1642C135.234 49.1178 135.127 49.3774 135.327 49.3571C135.551 49.1845 135.295 49.141 135.629 49.2657C135.785 48.8205 135.045 49.1613 134.802 48.9786C135.264 48.9496 135.754 48.9264 136.299 48.9133C136.019 48.893 135.763 48.8814 135.547 48.8669C135.782 48.8104 137.068 48.835 136.34 48.4507C136.176 48.471 135.977 48.2463 136.21 48.2825C135.865 48.2463 136.536 48.2173 136.163 48.0722C137.503 48.3304 138.698 47.804 139.773 48.2086C140.408 48.4681 140.683 47.9316 141.24 47.9707C142.361 48.1056 143.83 47.5299 144.576 48.2187C144.017 47.627 145.165 48.0186 145.529 47.9461C145.592 48.1056 145.753 48.0316 145.683 47.92C145.904 47.8359 146.356 48.1738 146.134 47.9142C146.17 47.9142 146.208 47.9142 146.245 47.9127C146.119 48.1477 147.118 47.6865 147.096 48.0186C147.443 47.7242 149.105 48.0345 148.866 48.1636C148.522 48.1012 148.401 48.1883 148.091 48.1955C147.83 48.2231 147.567 48.2274 147.368 48.2695C147.839 48.1926 147.927 48.3739 148.171 48.4826C147.731 48.7161 148.736 48.4464 148.241 48.3753C148.022 48.1157 151.217 48.4667 149.492 48.1404C149.231 48.1143 149.777 47.9852 149.54 47.8475C149.939 47.9388 150.364 47.9925 150.8 48.0287C150.206 48.2129 151.186 48.3492 151.168 48.181C151.317 48.3028 151.615 48.3275 151.838 48.3202C151.85 48.5102 152.068 48.5204 152.233 48.5102C152.056 48.4391 152.041 48.3376 152.273 48.326C152.12 48.371 152.744 48.3579 152.604 48.2622C150.453 47.8895 156.013 48.2825 155.067 48.4522C155.017 48.8176 155.109 48.7712 155.34 48.6799C155.466 48.9496 155.435 48.7277 155.626 48.7495C155.582 48.7785 155.654 48.8147 155.634 48.7495C155.81 48.7364 155.425 48.5784 155.443 48.6625C155.393 47.904 157.681 48.6799 158.769 48.3565C163.042 48.4406 168.476 48.9568 171.989 48.1172C171.342 48.0389 170.934 47.9272 170.536 47.8199C171.377 47.7808 172.165 47.7286 172.884 47.6589C173.454 47.7286 173.983 47.804 174.325 47.8765C173.676 47.8953 172.889 47.6749 172.402 47.7938C173.448 48.7103 174.132 48.4942 174.542 47.4458C175.84 47.2268 176.712 46.9136 176.953 46.4756C176.953 46.4771 176.953 46.48 176.953 46.4814C176.953 46.4785 176.953 46.4771 176.953 46.4742C177.026 46.3407 177.041 46.1957 176.991 46.0391C177.062 45.2865 177.16 44.5324 177.157 43.7855C177.157 43.8015 177.154 43.816 177.152 43.8305C177.168 43.3099 177.186 42.7878 177.176 42.2672C177.276 42.1251 177.248 41.896 177.274 41.7176C177.359 40.7445 177.386 39.7715 177.333 38.797C177.337 38.8811 177.345 38.9666 177.362 39.0522C177.362 38.9362 177.359 38.8202 177.357 38.7042C177.38 38.259 177.322 37.7311 177.325 37.2656L177.313 37.2728ZM176.471 10.0851C176.471 10.1445 176.469 10.2054 176.465 10.2678C176.441 10.2257 176.44 10.0633 176.471 10.0851ZM176.387 11.0364C176.482 11.2539 176.442 11.5207 176.436 11.7847C176.27 11.6121 176.38 11.3076 176.387 11.0364ZM76.1587 2.68341C76.1046 2.70517 75.9097 2.88789 75.9043 2.73417C75.9354 2.67906 76.2657 2.52534 76.1587 2.68341ZM75.4291 2.56595C75.4413 2.66311 75.1503 2.68341 75.1584 2.59785C75.2003 2.46589 75.3912 2.38903 75.4291 2.56595ZM41.1137 4.2496C41.4805 4.08863 41.2044 4.40041 41.6809 4.44392C41.5536 4.64984 41.0257 4.44102 41.1137 4.2496ZM40.606 5.36478C40.6832 5.48659 40.2297 5.54025 40.1471 5.62436C39.7478 5.52574 40.4125 5.25746 40.606 5.36478ZM40.8511 5.80708C40.3692 5.64031 40.7658 6.0246 40.3692 6.02605C40.181 6.01445 40.3434 5.94774 40.3353 5.90714C40.0389 5.68671 41.1286 5.56345 40.8511 5.80708ZM40.7563 4.27135C40.3186 4.35836 40.0208 4.37963 39.8629 4.33516C40.2527 4.22494 40.5505 4.20367 40.7563 4.27135ZM39.9536 4.62084C40.3299 4.65854 39.9414 5.07909 40.583 5.05879C40.6764 5.05879 40.8186 5.111 40.7901 5.1777C40.5478 5.18785 39.4906 5.22556 39.5163 5.08489C40.227 5.05299 39.4189 4.63244 39.9536 4.61939V4.62084ZM39.5759 5.42713C39.7938 5.35317 39.9644 5.6026 39.6666 5.5591C39.1251 5.64756 39.136 5.42423 39.5759 5.42713ZM28.2647 3.00245C28.4054 2.9691 28.5503 2.93429 28.7628 2.88354C28.6667 2.99665 28.1117 3.20982 28.2647 3.00245ZM17.1524 2.73997C17.2445 2.76317 17.3852 2.75882 17.3907 2.82988C17.3216 2.9981 16.7003 2.80813 17.1524 2.73997ZM14.5926 2.75012C14.5425 2.72112 14.5669 2.73562 14.5926 2.75012V2.75012ZM1.13042 32.9745C1.16155 32.8165 1.22382 33.1254 1.18186 33.1471C1.12771 33.1326 1.14802 33.0238 1.13042 32.9745ZM1.21976 35.5486C1.2157 35.5689 1.21435 35.5892 1.21164 35.6138C1.07627 35.5964 1.23465 35.3818 1.21976 35.5486ZM1.15208 35.0149C1.13583 35.0265 1.12906 35.0019 1.12906 34.9874C1.14125 34.9801 1.15614 34.97 1.1778 34.9584C1.14937 34.9497 1.13583 34.9439 1.125 34.9439C1.1805 34.8134 1.14937 34.693 1.17238 34.5596C1.1981 34.706 1.347 34.9323 1.15208 35.0149ZM1.26985 33.0238C1.25089 32.9542 1.21841 32.9035 1.24954 32.844C1.26443 32.8977 1.31316 32.947 1.26985 33.0238ZM1.43905 22.6667C1.42958 22.5826 1.4201 22.4985 1.41198 22.4144C1.41469 22.4086 1.41604 22.4028 1.41875 22.397C1.46477 22.3216 1.44311 22.6218 1.43905 22.6682V22.6667ZM1.5311 38.2923C1.5311 38.3489 1.53246 38.404 1.53246 38.4605C1.51621 38.4054 1.52704 38.3489 1.5311 38.2923ZM2.29728 45.2633C2.31623 45.2488 2.32164 45.3242 2.32029 45.359C2.31758 45.3633 2.31352 45.3677 2.30946 45.3735C2.29999 45.3474 2.29186 45.3227 2.28239 45.2981C2.2851 45.2821 2.28916 45.2691 2.29592 45.2633H2.29728ZM2.25667 45.6969C2.20929 45.7157 2.2323 45.7853 2.17274 45.7839C2.18899 45.7331 2.14296 45.4489 2.2296 45.5359C2.28645 45.6505 2.29728 45.5925 2.28374 45.3996C2.29863 45.4126 2.31217 45.4271 2.32164 45.4431C2.32164 45.504 2.32435 45.5664 2.32571 45.6287C2.27427 45.5823 2.28239 45.7679 2.3054 45.7926C2.31352 45.7578 2.32029 45.7273 2.32841 45.694C2.33247 45.8013 2.33518 45.9115 2.33518 46.0203C2.33383 46.0217 2.33247 46.0232 2.32977 46.0246C2.31082 45.9927 2.33383 45.9477 2.3054 45.9289C2.29051 45.939 2.2878 45.955 2.2878 45.9724C2.27291 45.8796 2.22689 45.7926 2.25667 45.6954V45.6969ZM38.1207 3.58832C37.9691 3.76089 37.5847 3.76379 37.4358 3.60137C37.6266 3.54191 37.8757 3.61442 38.1207 3.58832ZM33.2137 7.31235C33.5006 7.18619 33.525 7.38051 33.4952 7.60529C33.261 7.61399 32.8211 7.55308 33.2137 7.31235ZM32.7142 7.16734C33.123 7.19199 32.6654 7.64879 32.4583 7.42837C33.0675 7.3022 32.0427 7.28335 32.7142 7.16734ZM31.351 7.91127C31.3104 7.93447 31.2224 7.97218 31.1642 7.93738C31.2224 7.92287 31.286 7.91707 31.351 7.91127ZM33.7375 49.7689C33.3896 49.7631 33.0336 49.7399 32.6939 49.7298C32.8847 49.6152 33.1961 49.6138 33.7375 49.7689ZM32.9172 8.25641C32.9375 8.25641 32.9565 8.25496 32.9768 8.25351C32.9673 8.28977 32.9416 8.26511 32.9172 8.25641ZM33.5575 50.3302C33.3599 50.3026 33.5629 50.1242 33.6455 50.2127C33.9825 50.3606 33.8418 50.3563 33.5575 50.3302ZM33.5602 49.9662C33.0973 50.0793 32.6424 50.1054 32.1808 50.0981C32.1795 50.0314 32.1781 49.9604 32.1754 49.8879C32.6289 49.8444 33.0959 49.9488 33.5602 49.9662ZM27.5878 3.28958C27.1695 3.36934 27.1777 3.62167 26.781 3.30989C27.0789 3.28378 27.2927 3.05901 27.5878 3.28958ZM26.735 2.94879C26.9909 2.98215 26.8812 3.21853 26.647 3.16922C26.291 3.19532 26.467 2.94734 26.735 2.94879ZM25.5248 3.14312C25.3272 3.16052 25.1526 3.25478 24.9022 3.20837C25.0998 3.07641 25.3177 3.11556 25.5248 3.14312ZM34.9518 51.2757C34.2249 51.1437 31.8817 51.0552 32.2729 50.7696C32.8901 50.5042 33.8242 51.1553 34.5335 51.0944C34.1423 50.8508 33.8458 50.9204 34.5159 50.8943C34.4523 50.6797 32.8062 50.6115 32.1903 50.5158C32.1889 50.436 32.1862 50.349 32.1835 50.2533C32.6059 50.188 33.0323 50.117 33.4763 50.0256C33.3003 50.1329 33.2935 50.3055 33.0715 50.4752C33.4303 50.5477 35.3931 50.5506 34.9626 50.8145C34.6486 51.0871 35.8763 51.3685 34.9518 51.2757ZM34.1287 49.9038C34.2221 49.927 34.5484 49.972 34.2722 50.0271C34.1193 49.9952 33.7605 49.9575 34.1287 49.9038ZM35.075 50.2954C35.2888 50.2606 35.3403 50.4114 35.0993 50.4331C34.9504 50.4665 34.9085 50.2693 35.075 50.2954ZM35.9318 50.4897C36.0185 50.7478 35.6056 50.829 36.0239 51.0987C34.9937 50.9581 35.0222 50.9842 35.9318 50.4897ZM36.7007 50.1619C36.5829 50.5767 37.2462 50.0938 37.2598 50.378C37.1204 50.4317 36.2256 50.4679 36.7007 50.1619ZM38.4903 49.5514C38.3657 49.7298 38.0706 49.3136 38.183 49.7037C37.563 49.9517 37.1853 49.2962 37.9691 49.6993C37.6578 49.286 39.1157 49.3556 38.4903 49.55V49.5514ZM39.0723 49.9401C38.8057 49.9705 38.5444 50.1286 38.271 50.0082C38.5024 49.9734 38.9261 49.6979 39.0723 49.9401ZM37.5129 49.2643C37.4791 49.0439 37.1312 49.476 37.1461 49.2121C38.1315 48.806 38.2249 49.8008 37.5129 49.2643ZM37.0825 49.0584C37.1041 49.0598 37.1285 49.0555 37.1488 49.0627C37.1136 49.0729 36.9958 49.1062 37.0825 49.0584ZM38.3211 48.8698C38.3955 48.8408 38.47 48.8089 38.5552 48.8713C38.4767 48.8713 38.3996 48.8713 38.3211 48.8698ZM37.0378 48.6494C37.0594 48.6436 37.0879 48.6422 37.1244 48.6451C37.5792 48.619 38.2507 48.7016 38.5715 48.7263C38.0476 48.8727 37.5292 48.9525 37.0378 48.6509V48.6494ZM38.3644 49.8879C37.9204 50.0952 37.4303 50.1068 36.9092 50.03C37.4249 49.8893 37.9488 49.8299 38.3644 49.8879ZM37.2097 50.7159C37.0283 50.7304 36.7846 50.7652 36.6588 50.6289C36.7346 50.5767 37.5021 50.5317 37.2097 50.7159ZM37.563 50.8029C37.2327 50.6448 37.9353 50.5549 37.8419 50.3084C37.9691 50.9175 37.7864 50.7449 38.5092 50.8377C38.1749 50.9276 37.8595 50.8856 37.563 50.8029ZM38.3847 50.6637C38.2588 50.6666 38.0571 50.7 38.0625 50.6028C38.1424 50.4462 38.8842 50.6187 38.3847 50.6637ZM38.5065 50.1982C38.6148 50.1808 39.2118 49.9444 39.0236 50.1431C38.8558 50.188 38.6865 50.217 38.5065 50.1982ZM39.6395 50.5361C39.3972 50.6753 39.3309 50.7304 39.2524 50.436C37.5847 50.8174 39.8466 50.0677 40.384 50.2925C40.2392 50.4665 39.3377 50.3055 39.6395 50.5361ZM39.2348 49.9285C39.3823 49.8255 39.5529 50.0039 39.7086 49.8951C39.6558 50.0967 39.4459 50.0024 39.2348 49.9285ZM40.0226 50.0633C40.093 50.0416 40.1634 50.0198 40.2338 49.9995C40.223 50.0822 40.0876 50.0358 40.0226 50.0633ZM40.7238 50.3751C40.8592 50.3099 41.0148 50.2547 41.157 50.2533C41.0162 50.3447 40.8822 50.407 40.7238 50.3751ZM41.2301 49.3658C41.3749 49.2672 41.5265 49.3411 41.6971 49.315C41.5279 49.4746 41.3776 49.3527 41.2301 49.3658ZM40.4653 7.27465C40.3461 7.17749 41.0473 7.02957 40.3624 7.11078C40.5939 7.00782 40.6142 6.95851 40.3258 6.97011C40.7725 6.93821 41.2193 6.91356 41.6741 6.89905C41.5847 6.94691 41.6714 7.00492 41.7431 7.05132C42.2507 7.44142 40.6778 7.13543 40.4653 7.27465ZM42.1276 50.0677C41.9313 50.1358 42.1736 49.9473 42.2142 49.9908C42.2183 50.0706 42.1668 50.0633 42.1276 50.0677ZM46.8018 6.52201C46.8072 6.51041 46.8112 6.49881 46.8153 6.48721C46.8248 6.51041 46.8302 6.52491 46.8018 6.52201ZM46.9236 6.31319C47.0454 6.10581 46.42 6.32624 46.2684 6.22763C46.5635 6.07681 45.5618 6.19427 46.1046 6.33204C46.041 6.51331 46.4715 6.55826 46.3578 6.4089C47.3839 6.23053 46.1615 6.78884 45.4752 6.56116C45.884 6.50896 45.3858 6.4698 45.3222 6.27403C45.3709 6.61772 44.6968 6.50171 44.8877 6.70763C45.1503 7.07162 46.6312 6.56552 46.5175 6.89035C46.416 6.92081 46.2346 6.79464 46.1791 6.87585C46.1317 7.10063 45.8447 6.89615 45.8082 7.10933C45.8677 7.07888 45.9436 7.10498 46.0288 7.13108C44.9215 7.2848 43.7696 7.16008 42.9005 6.93531C42.6636 6.94111 42.581 6.98171 42.6365 7.01217C42.7164 7.22099 42.2562 7.08178 42.0991 6.98606C41.3438 6.78594 43.9902 6.97011 44.1797 6.67138C43.3675 6.68153 39.5461 6.73083 39.9766 6.99622C39.9048 7.01507 40.1526 7.13543 40.1593 7.13833C38.4591 7.3225 36.6736 7.39501 34.7135 7.52263C34.853 7.53278 34.9951 7.54003 35.1386 7.54583C34.6323 7.97943 39.4053 7.19489 39.8358 7.37181C38.2777 7.7445 36.12 7.56613 34.4062 7.79526C36.6926 7.80976 32.5206 8.1433 31.305 8.12155C31.3551 8.11865 31.4038 8.11284 31.4498 8.10414C31.7747 8.1317 32.0874 8.09254 32.3879 8.01713C32.3162 7.99393 32.2458 7.98378 32.1768 7.97653C32.2553 7.96348 32.3365 7.95043 32.4258 7.93592C32.1686 7.93592 32.0048 7.92287 31.8952 7.90112C32.7453 7.89822 36.101 7.6807 33.7281 7.40951C34.9369 7.32975 35.2374 7.10498 33.678 7.2877C34.015 6.93676 35.0181 7.11078 35.3376 7.44577C36.0564 6.93531 36.878 7.42837 38.1261 7.12963C36.1051 6.88455 36.3907 7.08468 38.2344 6.86715C38.0138 6.49736 42.4524 6.42485 43.7208 6.27693C44.0538 6.38859 46.3415 5.96224 46.5053 6.16382C46.5459 6.25953 46.573 6.0188 46.6596 5.98255C46.8275 5.9869 47.4299 6.08841 46.9926 6.10001C47.193 6.24213 47.1172 6.28128 46.925 6.31609L46.9236 6.31319ZM36.4543 7.15138C36.5559 7.14558 36.6533 7.14268 36.7562 7.14268C36.6506 7.19199 36.5342 7.19634 36.4543 7.15138ZM47.8752 6.05651C48.2069 6.0275 48.5602 6.00865 48.9108 5.9898C48.8485 6.09856 47.7114 6.24648 47.8752 6.05651ZM47.7141 51.3931C48.2245 50.9305 48.7605 51.0059 49.3589 51.1104C48.8174 51.2583 48.2637 51.3018 47.7141 51.3931ZM48.7741 50.8725C48.9013 50.758 49.1084 50.758 49.4685 50.9204C49.2343 50.9044 49.0015 50.8885 48.7741 50.8725ZM51.4097 49.956C51.3894 49.956 51.369 49.9502 51.3609 49.9285C51.3731 49.9386 51.3907 49.9473 51.4097 49.956ZM51.9579 49.6689C51.8861 49.6587 51.8009 49.6486 51.7251 49.6384C51.897 49.65 52.0838 49.5471 52.2855 49.7109C52.1677 49.695 52.0608 49.6819 51.9579 49.6689ZM60.107 5.12115C59.422 5.50979 59.7902 4.95293 59.3543 4.92102C59.1323 4.93263 59.3638 5.1429 59.2257 5.20961C58.2024 4.83256 59.0552 4.90652 59.6386 4.85867C59.9729 4.89057 60.3263 4.81371 60.6999 4.80066C60.3696 4.85142 60.2071 5.43728 60.107 5.12115ZM60.6349 5.1719C60.5645 5.1719 60.4779 5.17625 60.4697 5.10084C60.5009 4.92247 60.9259 5.11245 60.6349 5.1719ZM61.3605 5.16465C61.2495 5.1806 60.8474 4.99498 60.9408 4.79341C61.0288 4.81081 61.1588 4.81661 61.3131 4.81661C61.2522 4.85142 61.2048 4.91377 61.2508 4.96888C61.2806 5.02689 61.4268 5.08779 61.3605 5.16465ZM62.1212 5.51849C62.1564 5.41263 62.4001 5.42713 62.438 5.45614C62.4028 5.56635 62.1496 5.61856 62.1212 5.51849ZM62.5598 48.4203C62.1158 48.3536 62.752 47.8678 62.7547 48.2187C62.7317 48.2956 62.7601 48.4 62.5598 48.4203ZM63.284 48.4971C62.8698 48.6088 62.8116 48.168 63.2299 48.1868C63.3409 48.2303 63.2448 48.3797 63.284 48.4971ZM63.5331 4.93698C62.9916 4.96743 62.5544 5.22556 61.929 5.1168C62.04 4.95438 61.7273 4.80791 61.6366 4.86447C61.8924 5.26616 61.6014 5.18495 61.4606 4.88187C61.4674 4.84997 61.4633 4.82821 61.4539 4.81371C62.331 4.79051 63.7754 4.61359 63.5344 4.93843L63.5331 4.93698ZM64.0096 5.00078C63.8769 4.65274 63.5791 4.80066 64.2153 4.6919C64.3209 4.67595 64.4333 4.66579 64.547 4.65854C64.3006 4.6919 64.1923 5.23426 64.0109 4.99933L64.0096 5.00078ZM64.7825 4.64984C64.8556 4.64839 64.9274 4.64694 65.0005 4.64694C64.922 4.7412 64.857 4.69045 64.7825 4.64984ZM65.703 5.08199C65.8208 4.93988 65.967 4.96598 66.1064 4.98193C65.9778 5.01673 65.8479 5.111 65.703 5.08199ZM65.9169 4.63969C65.9832 4.63679 66.0482 4.63099 66.1105 4.62374C66.055 4.65999 65.9616 4.7006 65.9169 4.63969ZM66.2919 4.66724C66.4435 4.51643 66.6181 4.52658 66.813 4.55123C66.6682 4.57298 66.3392 4.92972 66.2919 4.66724ZM66.7034 4.88477C66.6831 4.73975 67.0107 4.64114 66.9782 4.82531C67.054 4.95583 66.7101 5.00658 66.7034 4.88477ZM67.1785 47.0122C67.23 47.0252 67.28 47.0383 67.3315 47.0513C67.2814 47.0484 67.23 47.0354 67.1785 47.0122ZM67.0364 5.04284C67.1812 4.96743 67.2949 4.83256 67.4736 5.00948C67.3328 5.04719 67.1812 5.02979 67.0364 5.04284ZM67.8932 4.68465C67.9718 4.64404 68.0665 4.59329 68.1626 4.60199C68.1031 4.689 67.7958 4.87897 67.8932 4.68465ZM70.4029 4.83256C70.3908 4.71655 70.6466 4.7528 70.5275 4.58168C70.5491 4.34966 69.7694 4.49322 70.005 4.62374C70.2161 4.89202 69.8331 4.52513 69.8046 4.65274C69.7857 4.69335 69.8777 4.74265 69.9657 4.77166C69.3078 4.94858 66.966 5.17915 68.3657 4.71075C68.5322 4.84997 68.7244 4.7267 68.8246 4.7238C68.5999 4.45407 68.3752 4.63389 68.7907 4.45117C69.4892 4.52658 71.5603 3.96681 70.9228 4.64259C70.9634 4.83546 70.5356 4.81951 70.4029 4.83256ZM71.1461 4.54108C71.0229 4.53818 71.0703 4.50192 71.1745 4.53093C71.1664 4.53528 71.1583 4.53818 71.1461 4.54108ZM73.9861 3.04015C74.0159 3.07496 73.959 3.06916 73.9347 3.07931C73.9523 3.06626 73.9685 3.05321 73.9861 3.04015ZM73.7871 3.67678C73.8304 3.72318 73.8575 3.63762 73.936 3.64052C73.913 3.80439 73.9766 3.60137 74.0497 3.58107C74.1296 3.65068 74.0375 3.78699 74.2487 3.79424C73.9726 3.87255 73.1563 3.93346 73.7871 3.67533V3.67678ZM73.8128 3.98567C73.7925 3.99292 73.7722 4.00017 73.7519 4.00742C73.7655 4.00162 73.779 3.99727 73.7925 3.99002C73.7993 3.98857 73.8074 3.98712 73.8142 3.98567H73.8128ZM73.7262 4.01612C73.5421 4.08283 73.3431 4.14953 72.8951 4.15823C73.1414 3.97986 73.4622 4.10313 73.7262 4.01612ZM71.7539 3.97551C72.0598 4.19449 72.0328 3.83195 72.1532 3.71593C72.313 3.69998 72.317 4.04512 72.4673 3.78699C72.6067 3.61587 72.826 3.92331 73.0115 3.72463C73.113 3.63907 73.2335 3.75799 73.09 3.82905C72.8274 3.91171 72.956 4.14518 72.6758 4.07558C72.535 4.09008 72.489 4.20174 72.2859 4.14083C72.2399 3.99437 71.7999 4.17854 71.6118 4.03497C71.3762 3.84645 71.6524 3.845 71.7553 3.97551H71.7539ZM71.6023 4.53528C71.7174 4.53528 71.8392 4.53818 71.9556 4.53528C71.7593 4.76586 71.0514 4.79776 71.6023 4.53528ZM73.1035 4.66289C73.1062 4.64114 73.2091 4.61504 73.2321 4.63099C73.2944 4.76876 72.937 4.77601 73.1035 4.66289ZM73.2687 4.48452C73.0764 4.66289 72.7759 4.52078 72.4714 4.6948C71.3559 4.79196 72.8206 4.35546 71.8284 4.40476C72.424 4.16259 73.4758 4.296 73.8778 4.20899C74.0849 4.19594 74.1621 4.22204 74.3029 4.22204C74.2433 4.39026 73.7993 4.14518 73.8981 4.39606C74.3001 4.45262 74.6521 4.35691 73.978 4.54108C73.5529 4.7441 73.6111 4.6919 73.2673 4.48452H73.2687ZM73.9617 4.68465C74.066 4.61359 74.2528 4.66434 74.4098 4.62229C74.3381 4.7441 74.0592 4.70785 73.9617 4.68465ZM75.7242 5.1835C75.9882 5.03849 76.0085 5.04574 76.1966 5.11535C76.0166 5.21541 75.9124 5.19801 75.7242 5.1835ZM76.5337 5.16755C76.5824 5.32562 76.3672 5.17045 76.4295 5.06894C76.5202 5.07474 76.6406 5.13855 76.5337 5.16755ZM77.1185 5.15885C77.2836 5.09504 77.4461 5.1313 77.6193 5.12115C77.7046 5.29952 77.0995 5.1545 77.1185 5.15885ZM77.0643 5.05299C77.0779 5.04429 77.1036 5.03704 77.1239 5.03559C77.1063 5.04429 77.086 5.05009 77.0643 5.05299ZM80.4553 5.11245C79.7744 5.10955 76.6379 5.27487 78.4356 5.01383C78.1256 4.90217 76.0396 4.95873 76.5432 4.85432C77.3283 4.82096 78.1094 4.81226 78.8904 4.80646C78.8255 5.01819 81.6397 4.66144 82.6739 4.71365C83.9978 4.62374 81.6275 5.16175 80.4539 5.11245H80.4553ZM84.9549 3.55351C84.9034 3.54771 84.8493 3.55932 84.8127 3.54626C84.852 3.49696 84.9156 3.49841 84.9549 3.55351ZM84.6868 3.92331C84.4689 3.72318 84.8547 3.85805 85.0144 3.80149C84.9413 3.84935 84.7545 3.97261 84.6868 3.92331ZM85.0077 3.37224C85.0577 3.3969 85.1119 3.32584 85.1539 3.4288C85.2283 3.65213 84.9725 3.56077 85.0077 3.37224ZM85.3027 3.44475C85.3488 3.4433 85.3637 3.49841 85.3731 3.55206C85.277 3.57962 85.189 3.51001 85.3027 3.44475ZM90.1259 2.12655C90.1624 2.01634 90.2179 2.01489 90.2734 2.04389C90.3194 2.18165 90.1841 2.1483 90.1259 2.12655ZM93.6576 3.69853C93.5967 3.69128 93.6264 3.69563 93.6576 3.69853C93.5926 3.74349 93.6373 3.76959 93.6576 3.69853ZM93.8119 3.71593C93.7144 3.77539 93.7821 3.77249 93.8119 3.71593V3.71593ZM94.1043 4.05382C94.172 4.04512 94.1314 4.22349 94.1503 4.2815C94.0637 4.2902 93.9865 4.08718 94.1043 4.05382ZM94.2952 4.35111C94.2437 4.32935 94.2749 4.2699 94.2952 4.23074C94.3669 4.12778 94.4535 4.40766 94.2952 4.35111ZM94.4156 3.75074C94.459 3.94361 94.7987 3.8711 94.903 4.04512C94.8285 4.07413 93.9215 3.81745 94.4156 3.75074ZM95.0451 4.12923C95.0167 4.12053 95.037 4.10023 95.0451 4.07703C95.0451 4.09588 95.0451 4.11328 95.0451 4.12923ZM95.0491 3.86385C94.9733 3.69418 94.6904 3.74784 94.9733 3.68838C95.1304 3.56367 95.1439 3.9001 95.0491 3.86385ZM93.7253 2.13235C93.8133 2.03809 93.8918 1.98733 93.9635 2.13815C93.8823 2.1512 93.8011 2.26867 93.7253 2.13235ZM94.5442 2.62976C94.4251 2.52825 94.6891 2.48184 94.7568 2.5529C94.685 2.60365 94.6133 2.5471 94.5442 2.62976ZM94.6106 2.31652C94.4766 2.20341 93.6914 2.34697 94.1706 2.09609C94.3696 2.22371 94.3831 2.21791 94.3845 1.97718C94.5794 1.92062 94.4793 2.1222 94.5063 2.21356C94.6674 1.92788 94.9747 2.40643 94.6106 2.31652ZM95.0031 2.21791C94.9706 2.34262 94.8921 2.19471 94.8204 2.21501C94.7351 2.02649 95.0316 2.1048 95.0031 2.21791ZM95.1859 2.29187C95.1128 2.33537 95.0627 2.39628 95.0343 2.5413C95.0126 2.22226 95.2319 2.06709 94.8691 1.92498C95.0343 1.84377 95.4133 2.1512 95.1859 2.29187ZM95.4431 2.86903C95.5527 2.52099 95.3158 2.79363 95.263 2.62106C95.2915 2.45284 95.7125 2.70662 95.4431 2.86903ZM95.527 2.45719C95.4674 2.37888 95.1913 2.38033 95.3591 2.24691C95.439 2.23821 95.6231 2.36293 95.527 2.45719ZM95.8383 2.53985C96.0861 2.18311 95.6976 1.80316 96.1903 2.35713C96.1253 2.42238 95.6827 2.88209 95.8383 2.53985ZM96.1456 2.9633C96.1348 3.05901 96.0197 2.99665 96.0265 2.92849C96.0522 2.82843 96.1754 2.85308 96.1456 2.9633ZM96.4272 3.81455C97.039 3.16777 96.748 3.02565 96.1673 2.66311C96.4529 2.47894 96.0603 1.85682 96.369 2.08449C96.6262 2.28172 97.5237 2.9981 97.2624 3.07641C97.016 3.24463 96.771 2.41948 96.4881 2.33827C96.4583 2.5355 96.656 2.46299 96.6181 2.66311C96.0739 2.25416 96.9917 3.20837 97.2218 3.33454C97.3869 3.50421 97.2827 3.22868 97.2841 3.15037C97.3612 3.0068 97.6956 3.47376 97.437 3.39255C96.8225 3.55351 97.1433 3.76379 97.5033 4.05672C97.7064 3.90446 97.2259 3.8218 97.2272 3.60717C97.41 3.67243 97.6807 3.55932 97.7416 3.75364C97.9636 4.49177 95.6854 3.8189 96.4272 3.81455ZM96.2661 3.4462C96.2918 3.36064 96.4191 3.47231 96.4218 3.56657C96.3866 3.67823 96.3026 3.49116 96.2661 3.4462ZM96.5395 3.17647C96.6045 3.22143 96.7358 3.26058 96.6573 3.36934C96.5829 3.43315 96.568 3.24318 96.5395 3.17647ZM96.901 4.43957C97.2637 4.3192 97.7578 4.30325 98.2628 4.3192C98.3697 4.54833 97.2218 4.39461 96.901 4.43957ZM113.149 49.9502C113.058 49.985 112.965 50.0155 112.826 50.0633C112.89 49.9415 113.26 49.753 113.149 49.9502ZM113.589 49.6718C113.825 49.6993 113.83 49.2817 113.995 49.5732C114.233 49.6631 113.732 49.9024 113.589 49.6718ZM114.137 50.0227C113.854 49.9256 114.26 49.6515 114.328 49.8792C114.328 49.9879 114.22 49.9937 114.137 50.0227ZM114.182 4.58749C114.217 4.58023 114.254 4.57298 114.294 4.56428C114.681 4.56573 114.366 4.61649 114.182 4.58749ZM114.921 49.8487C115.05 49.8342 115.162 49.7428 115.324 49.795C115.196 49.9241 115.055 49.8806 114.921 49.8487ZM120.325 50.4447C120.265 50.4186 120.175 50.4186 120.172 50.3476C120.221 50.1822 120.619 50.3925 120.325 50.4447ZM120.088 4.7354C120.131 4.66289 120.633 4.67885 120.643 4.82821C120.509 4.84271 120.074 4.83836 120.088 4.7354ZM120.793 4.87462C121.228 4.80791 121.496 4.95148 121.814 4.96453C121.475 5.01528 121.188 4.92682 120.793 4.87462ZM122.332 4.03787C122.535 3.94506 123.143 3.90736 123.303 3.98276C123.375 4.2873 122.535 4.07267 122.332 4.03787ZM130.381 4.3163C130.422 4.3163 130.462 4.3163 130.503 4.31775C130.465 4.31775 130.414 4.34241 130.381 4.3163ZM130.634 4.3221C130.659 4.3221 130.683 4.3221 130.709 4.325C130.89 4.33516 131.074 4.35691 131.265 4.39026C131.057 4.41927 130.835 4.37431 130.634 4.3221ZM132.789 4.12633C133.45 4.15533 134.044 4.17999 134.636 4.20609C134.025 4.30905 133.404 4.17709 132.789 4.12633ZM134.186 49.0265C134.186 49.0265 134.18 49.0236 134.177 49.0221C134.219 49.0192 134.264 49.0163 134.307 49.0134C134.276 49.0323 134.238 49.0395 134.186 49.0265ZM134.621 49.1381C134.45 49.0381 134.55 48.9699 134.686 48.9873C134.657 49.0294 134.66 49.1106 134.621 49.1381ZM135.463 48.6755C135.088 48.8626 134.391 48.8539 134.009 48.7176C133.897 48.6494 133.676 48.9859 133.695 48.7147C134.009 48.4275 134.521 48.6509 134.851 48.6103C133.966 48.2216 135.735 48.4507 135.463 48.6755ZM135.023 48.3014C135.176 48.2985 135.421 48.2477 135.433 48.3898C135.307 48.4797 135.18 48.3289 135.023 48.3014ZM133.987 3.75799C134.519 3.71883 135.038 3.78699 135.566 3.80874C135.031 3.86095 134.514 3.78699 133.987 3.75799ZM138.461 5.29372C138.506 5.30387 138.553 5.31257 138.599 5.32127C138.376 5.42133 138.705 5.29372 138.815 5.36478C138.13 5.50544 137.35 5.24731 138.461 5.29372ZM139.481 5.42858C139.11 5.40248 139.582 5.34592 139.747 5.41263C139.659 5.40828 139.56 5.41698 139.481 5.42858ZM140.335 5.31982C140.398 5.43583 140.11 5.29662 140.027 5.29952C140.128 5.29372 140.23 5.29662 140.335 5.31982ZM139.869 5.43438C139.907 5.44018 139.945 5.44743 139.984 5.45469C140.114 5.47644 140.266 5.50254 140.416 5.52864C140.194 5.5852 140.034 5.56345 139.868 5.43438H139.869ZM140.462 5.35607C140.66 5.40393 140.947 5.38508 141.162 5.45324C140.999 5.51704 140.264 5.39958 140.462 5.35607ZM176.093 13.6786C176.076 13.6786 176.057 13.6771 176.044 13.6626C176.047 13.7148 176.031 13.7584 176.02 13.8033C176.02 13.7801 176.02 13.7569 176.021 13.7337C176.016 13.6264 176.054 13.5365 176.092 13.6786H176.093ZM176.108 12.7461C176.085 12.823 176.08 12.8737 176.073 12.9448C176.053 12.939 176.051 12.8868 176.051 12.8433C176.043 12.7954 176.067 12.7664 176.108 12.7461ZM169.606 3.70578C169.43 3.73914 169.287 3.75944 169.114 3.65503C169.302 3.59992 169.449 3.57092 169.606 3.70578ZM156.986 3.71738C156.694 3.80294 156.397 3.76379 156.101 3.76814C156.393 3.69418 156.69 3.72899 156.986 3.71738ZM153.507 3.56802C153.48 3.59702 153.448 3.59557 153.412 3.58687C153.444 3.57962 153.476 3.57382 153.507 3.56802ZM145.67 3.38384C145.64 3.41865 145.606 3.423 145.571 3.3969C145.599 3.34034 145.633 3.33599 145.67 3.38384ZM145.527 3.78119C145.519 3.77829 145.503 3.78119 145.5 3.77394C145.508 3.77684 145.518 3.77829 145.527 3.78119ZM142.469 4.91232C142.758 4.80211 143.038 4.88332 143.321 4.90072L142.469 4.91232ZM144.233 4.2815C144.837 4.10313 143.451 4.12198 143.927 4.3279C143.49 4.35546 143.172 4.34676 143.788 4.2699C142.639 4.23944 143.402 4.06832 144.115 4.10748C145.295 4.14373 145.116 4.41782 144.232 4.28295L144.233 4.2815ZM146.299 4.35546C146.119 4.21334 146.146 4.42072 146.299 4.35546C146.304 4.33951 146.31 4.325 146.299 4.35546ZM145.438 4.3279C145.006 4.50338 145.193 3.80149 145.246 4.18144C145.392 4.2815 145.396 4.02192 145.284 3.95666C145.743 3.86965 146.223 4.03352 146.697 4.05237C146.268 4.00017 145.99 4.16114 145.652 3.99727C144.985 4.21044 146.767 4.33371 146.792 4.06252C147.376 4.12778 147.915 4.19014 148.505 4.2699C147.27 4.35111 146.145 4.2583 145.439 4.3279H145.438ZM149.063 48.0708C149.063 48.0708 149.058 48.0534 149.055 48.0476C149.063 48.0548 149.067 48.0621 149.063 48.0708ZM151.85 48.1665C151.616 48.1317 151.301 48.1897 151 48.1288C150.765 47.9968 151.925 48.0302 151.85 48.1665ZM151.946 48.3275H152.007C151.986 48.3623 151.955 48.413 151.946 48.3275ZM152.964 48.1259C152.979 48.1259 152.994 48.1259 153.01 48.1259C152.987 48.1332 152.974 48.1332 152.964 48.1259ZM176.015 12.5402C176.015 12.5692 176.012 12.5982 176.009 12.6287C175.998 12.6417 175.985 12.6519 175.975 12.6635C175.96 12.604 175.97 12.5808 176.015 12.5402ZM176.048 15.2216C176.035 15.0331 176.008 14.8416 175.997 14.643C176.015 14.5516 176.017 14.4515 176.016 14.35C176.027 14.35 176.038 14.35 176.051 14.3428C176.03 14.321 176.025 14.3123 176.015 14.3138C176.015 14.2848 176.015 14.2558 176.013 14.2282C176.015 14.2311 176.016 14.2326 176.019 14.234C176.059 14.1717 176.067 14.1731 176.016 14.1209C176.015 14.1223 176.013 14.1238 176.012 14.1252C176.016 14.0063 175.986 13.8657 176.093 13.7932C175.985 14.0759 176.196 14.1484 176.138 14.4356C176.111 14.4167 176.086 14.4196 176.066 14.4472C176.092 14.466 176.116 14.4631 176.138 14.4399C176.078 14.6198 176.253 15.339 176.048 15.2187V15.2216ZM176.15 11.8601C175.971 11.483 176.153 10.9044 176.099 10.4563C176.139 10.4433 176.081 10.3896 176.099 10.3461C176.143 10.3853 176.131 10.2808 176.099 10.3287C176.099 10.2475 176.1 10.1677 176.101 10.0865C176.147 10.1068 176.131 10.0314 176.101 10.0735C176.124 9.8864 176.067 9.65437 176.145 9.49196C176.135 9.48761 176.124 9.48616 176.116 9.48906C176.12 9.32229 176.124 9.15697 176.128 8.9902C176.158 8.9902 176.172 8.97134 176.18 8.93799C176.13 9.82259 176.155 11.0567 176.149 11.8601H176.15ZM176.183 8.82923C176.177 8.79587 176.166 8.76687 176.15 8.75237C176.15 8.80168 176.143 8.84518 176.131 8.88724C176.134 8.75962 176.135 8.63346 176.139 8.50584C176.151 8.50584 176.162 8.50584 176.172 8.51454C176.18 8.52179 176.185 8.52179 176.191 8.51744L176.184 8.82778L176.183 8.82923ZM176.197 8.1723C176.178 8.1462 176.147 8.1549 176.13 8.1781C176.061 8.26656 176.216 8.24336 176.191 8.31442C176.191 8.31152 176.192 8.30862 176.193 8.30572L176.189 8.45073C176.173 8.44638 176.155 8.45509 176.136 8.45218C176.046 8.15925 176.073 7.79961 176.131 7.40081C176.151 7.58353 176.127 7.7126 176.126 7.89242C176.077 7.97798 176.249 8.02584 176.196 8.17085L176.197 8.1723ZM176.203 7.93592V7.96783C176.189 7.95478 176.188 7.94318 176.203 7.93592ZM176.206 7.80686C176.17 7.81121 176.157 7.86052 176.132 7.88662C176.18 7.7155 176.178 7.55453 176.197 7.36456C176.227 7.54583 176.204 7.65024 176.206 7.80686ZM176.922 28.7719C176.889 28.9532 176.869 29.149 176.848 29.3448C176.735 28.9155 176.912 27.6785 176.922 28.7719ZM176.916 45.9115C176.954 45.7244 176.958 45.823 176.953 45.9913C176.942 45.9651 176.93 45.939 176.916 45.9115ZM177.158 42.1947C177.158 42.0613 177.158 41.9293 177.164 41.7959C177.172 41.9337 177.24 42.0511 177.158 42.1947ZM177.302 38.6824C177.302 38.6824 177.309 38.6926 177.311 38.6984C177.311 38.7143 177.311 38.7288 177.311 38.7448C177.31 38.723 177.306 38.7027 177.301 38.6824H177.302Z" fill="url(#paint0_linear_11_10211)"/>
<defs>
<linearGradient id="paint0_linear_11_10211" x1="174.993" y1="1.5" x2="137.064" y2="100.845" gradientUnits="userSpaceOnUse">
<stop stop-color="#E9D022"/>
<stop offset="1" stop-color="#E60B09"/>
</linearGradient>
</defs>
</svg>
