<svg width="111" height="135" viewBox="0 0 111 135" fill="none" xmlns="http://www.w3.org/2000/svg">
<g opacity="0.6">
<path fill-rule="evenodd" clip-rule="evenodd" d="M38.6625 40.532C60.7554 45.6101 87.262 51.7027 99.5067 59.4364H99.5065C109.764 65.9146 105.941 75.8325 98.4627 77.3033C99.5418 75.2121 98.5083 73.2913 93.9263 73.2913H77.947C81.0369 75.384 88.658 80.547 91.0535 84.9324C87.9066 89.5492 80.8938 93.8697 69.4734 94.0153C71.3736 91.7434 69.9634 90.132 65.679 90.132H62.5152C62.5152 90.132 49.2983 115.427 46.9209 120.029C43.5828 126.498 46.1578 131.723 47.641 134.568C18.8334 128.811 16.5119 85.5099 27.9039 67.0955L5.02515 67.5846L31.6789 38.9205C33.9395 39.4464 36.2752 39.9832 38.6625 40.532ZM33.4424 43.0276C33.4424 43.0276 79.2014 49.9399 97.6815 60.3105C105.027 64.4319 106.71 71.8123 100.236 74.9753C100.751 72.7307 98.8891 71.4054 95.165 71.4054H69.8217C69.8217 71.4054 84.5946 78.6873 89.0622 84.9324C83.699 91.4444 76.3079 91.841 72.2654 91.841C72.932 90.236 71.3606 88.1564 66.4445 88.1564H60.5212C55.7465 97.3102 51.9203 104.953 48.9546 110.877C47.4118 113.959 46.1019 116.575 45.0125 118.697C42.1917 124.196 42.9846 128.518 44.5497 132.241C22.4833 123.916 19.1583 83.8725 34.1637 64.0353H13.8406L33.4424 43.0276Z" fill="white"/>
<path fill-rule="evenodd" clip-rule="evenodd" d="M67.6861 72.0866L67.6864 72.0867L68.1529 73.4731C67.0506 75.6305 63.1005 83.4624 61.7317 86.2027H71.9836C72.1227 88.0195 73.9256 89.5607 75.7974 89.9703C74.6885 88.4876 75.1292 87.0167 75.9559 86.2027H80.7979C82.1433 86.2027 81.7286 87.8194 79.5396 89.501C82.9646 88.7179 85.5227 87.1586 87.1957 84.9321C84.028 80.0943 67.7671 72.1262 67.6864 72.0867L67.6863 72.0866H67.6861ZM96.9135 61.7031C104.065 65.6296 103.593 71.0384 101.479 72.824C101.516 70.8928 99.6197 69.4557 96.1984 69.4557H62.7828L66.3744 71.3806C66.3744 71.3806 44.8683 114.226 43.2175 117.607C41.312 121.514 40.7895 125.9 42.4312 129.555C38.1767 126.856 34.8361 122.514 32.4846 117.221L30.5751 117.091L50.8607 87.3095C50.8179 87.1183 50.7801 86.9245 50.7463 86.732L30.2657 110.888C29.2168 106.992 28.6124 102.792 28.4824 98.4851L26.1622 97.9038L51.3223 78.0407C51.3848 77.8301 51.451 77.6207 51.5186 77.4113L28.7033 91.2659C29.0478 87.4448 29.7666 83.6252 30.8754 79.9381L28.5149 78.6013L55.3674 69.6472C55.4871 69.4638 55.6093 69.2818 55.7315 69.1022L33.1919 73.7101C34.4085 70.9971 35.8605 68.4053 37.5645 66.0057L35.4768 64.0355H62.4321C62.5074 63.8845 62.5815 63.7364 62.6556 63.5908L22.5225 60.5202L33.9339 48.2288L32.149 45.9567C32.149 45.9567 81.3721 53.1733 96.9132 61.7036L96.9135 61.7031ZM32.3377 84.7632L48.7536 75.7947C48.842 75.5722 48.9343 75.3485 49.0305 75.1263L33.2321 80.8058C32.8812 82.1088 32.5836 83.4313 32.3377 84.7632ZM39.6781 66.9756C38.954 67.9681 38.282 69.0006 37.6569 70.0671L53.714 67.1968C53.8544 67.0122 53.9975 66.8275 54.1403 66.6468L39.6781 66.9756ZM49.865 96.52C49.7584 96.3287 49.6543 96.135 49.5531 95.9425L36.2231 116.053C36.9225 117.378 37.6957 118.617 38.5367 119.755L49.865 96.52ZM32.0596 102.902L46.8778 86.3628C46.8662 86.1262 46.8584 85.8906 46.8531 85.6553L31.5798 98.6452C31.6826 100.085 31.8449 101.507 32.0596 102.902ZM78.2032 83.9682L66.5696 82.2308L65.3892 84.5173H77.9289L78.2032 83.9682ZM86.239 63.157L32.9759 55.7829L36.2346 52.2521C54.1754 55.0261 75.6321 59.4115 86.5262 62.5861C86.4643 62.7109 86.4 62.8382 86.3349 62.9669L86.3348 62.9672L86.239 63.157ZM99.1089 66.6844L98.6799 64.7857C101.675 66.3163 102.044 69.3752 101.644 70.5158C101.372 69.6821 100.085 68.2321 97.0291 68.2321H89.3262C89.3439 68.197 89.3615 68.162 89.3791 68.1272C89.4362 68.014 89.4924 67.9026 89.5471 67.7912C91.0095 67.6728 96.1843 67.2344 99.1089 66.6844ZM97.1213 65.4269C95.6655 63.7479 91.8217 61.602 90.1138 61.0323C90.1138 61.0323 93.27 63.6348 94.3592 65.4269H97.1213Z" fill="white"/>
<path d="M0.238037 11.4578L2.50392 13.3344V23.616H7.58554V19.7183L13.0798 19.7144L14.1152 17.0039L7.58536 17.0087V14.1748H15.561V11.4579L0.238037 11.4578ZM17.3076 11.4578L19.6433 13.2896L15.6728 23.6159H20.3563L21.5848 20.321H27.4386L28.6937 23.6159H33.385L28.6147 11.4578L17.3076 11.4578ZM33.3847 11.4578L35.7056 13.307V23.616H46.9053V20.5147H40.7302V11.4578L33.3847 11.4578ZM46.8187 11.4578L49.1496 13.2963V23.616H60.7643V20.5147H54.2004V14.1748H60.7643V11.4578L46.8187 11.4578ZM61.8095 11.4578L64.1298 13.2843V23.616H78.0547V11.4579L61.8095 11.4578ZM79.2722 11.4578L81.5266 13.2795V23.6159H86.4101V18.2592L92.2663 23.6159H95.0728V11.4578H90.1744V16.7204L84.334 11.4578L79.2722 11.4578ZM96.2976 11.4578L98.5216 13.2559V18.5869L105.701 18.5816V20.5146H98.5216V23.6158H110.595V15.8733H103.407V14.1745H110.595V11.4575L96.2976 11.4578ZM67.3398 14.1747H73.1802V20.5147H69.0337V15.5749L67.3398 14.1747ZM23.7514 14.5144H25.2286L26.4138 17.6263H22.5912L23.7514 14.5144Z" fill="white"/>
<path d="M25.6559 0.500222L26.8315 1.42239L24.833 6.62044H27.1904L27.8091 4.96161H30.7557L31.3878 6.62044H33.7491L31.3478 0.500049L25.6559 0.500222ZM33.438 0.500222L33.9829 1.87238H36.2594V6.62049H38.8332V2.54927L38.005 1.87236H41.4748V0.500197L33.438 0.500222ZM42.4973 0.500222L43.6204 1.45034V6.62051H49.24L49.2337 5.06911L46.1401 5.07104V0.500296L42.4973 0.500222ZM51.1504 0.500222L52.3255 1.42239L50.3274 6.62044H52.6849L53.303 4.96161H56.2496L56.8818 6.62044H59.2435L56.8422 0.500049L51.1504 0.500222ZM59.4788 0.500222L60.5946 1.46575V6.62039H63.034V3.95698L65.9593 6.62039H67.371V0.5H64.9293V3.18709L62.012 0.5L59.4788 0.500222ZM68.7939 0.500222V1.87238H71.4487V6.62049H74.023V2.54927L73.1948 1.87236H76.6671L76.6623 0.500197L68.7939 0.500222ZM77.91 0.500222L79.0856 1.42239L77.0866 6.62044H79.444L80.0626 4.96161H83.0092L83.6409 6.62044H86.0026L83.6014 0.500049L77.91 0.500222ZM28.8995 2.03909H29.643L30.2394 3.60541H28.3156L28.8995 2.03909ZM54.394 2.03909H55.1378L55.7343 3.60541H53.81L54.394 2.03909ZM81.1538 2.03909H81.8977L82.4937 3.60541H80.5699L81.1538 2.03909Z" fill="white"/>
</g>
</svg>
