<svg width="110" height="17" viewBox="0 0 110 17" fill="none" xmlns="http://www.w3.org/2000/svg">
<path d="M5.952 13.6224C6.37733 13.5344 6.69267 13.3584 6.898 13.0944C7.10333 12.8304 7.206 12.537 7.206 12.2144C7.206 11.9504 7.118 11.7084 6.942 11.4884C6.78067 11.2537 6.57533 11.0484 6.326 10.8724C6.09133 10.6817 5.83467 10.5204 5.556 10.3884C5.27733 10.2417 5.03533 10.117 4.83 10.0144C4.522 9.85304 4.214 9.69904 3.906 9.55237C3.61267 9.39104 3.32667 9.2297 3.048 9.06837C2.652 8.84837 2.29267 8.6137 1.97 8.36437C1.662 8.10037 1.39067 7.81437 1.156 7.50637C0.936 7.1837 0.76 6.8317 0.628 6.45037C0.510667 6.06904 0.452 5.63637 0.452 5.15237C0.452 4.4337 0.584 3.81037 0.848 3.28237C1.112 2.7397 1.45667 2.29237 1.882 1.94037C2.322 1.5737 2.81333 1.29504 3.356 1.10437C3.91333 0.899035 4.48533 0.774368 5.072 0.730368V3.65637C4.69067 3.7297 4.38267 3.86903 4.148 4.07437C3.91333 4.2797 3.796 4.5877 3.796 4.99837C3.796 5.3357 3.92067 5.63637 4.17 5.90037C4.434 6.1497 4.742 6.37704 5.094 6.58237C5.446 6.80237 5.82 7.01504 6.216 7.22037C6.62667 7.41104 7.02267 7.60904 7.404 7.81437C7.844 8.04904 8.25467 8.29837 8.636 8.56237C9.032 8.82637 9.36933 9.12704 9.648 9.46437C9.94133 9.78704 10.1687 10.161 10.33 10.5864C10.4913 11.0117 10.572 11.5104 10.572 12.0824C10.572 12.7717 10.4473 13.3804 10.198 13.9084C9.94867 14.4217 9.61133 14.8617 9.186 15.2284C8.77533 15.595 8.284 15.8884 7.712 16.1084C7.15467 16.3137 6.568 16.4457 5.952 16.5044V13.6224ZM5.952 0.730368C6.77333 0.774368 7.558 0.965035 8.306 1.30237C9.054 1.62504 9.66267 2.04304 10.132 2.55637L8.57 5.02037C8.27667 4.62437 7.88067 4.3017 7.382 4.05237C6.898 3.80303 6.42133 3.6637 5.952 3.63437V0.730368ZM1.64 11.7304C1.84533 11.9357 2.08 12.1484 2.344 12.3684C2.608 12.5737 2.88667 12.7644 3.18 12.9404C3.488 13.1164 3.80333 13.2704 4.126 13.4024C4.44867 13.5197 4.764 13.6004 5.072 13.6444V16.5264C4.104 16.497 3.18 16.2917 2.3 15.9104C1.43467 15.529 0.672 15.001 0.0120001 14.3264L1.64 11.7304ZM15.8573 8.62837C15.8573 9.2297 15.9673 9.8017 16.1873 10.3444C16.4073 10.887 16.7007 11.3637 17.0673 11.7744C17.4487 12.185 17.896 12.5224 18.4093 12.7864C18.9373 13.0504 19.4947 13.2117 20.0813 13.2704V16.5264C19.04 16.4677 18.0647 16.2257 17.1553 15.8004C16.246 15.3604 15.454 14.7884 14.7793 14.0844C14.1047 13.3657 13.5693 12.5444 13.1733 11.6204C12.792 10.6817 12.6013 9.68437 12.6013 8.62837C12.6013 7.57237 12.792 6.58237 13.1733 5.65837C13.5693 4.7197 14.1047 3.89837 14.7793 3.19437C15.454 2.4757 16.246 1.9037 17.1553 1.47837C18.0647 1.03837 19.04 0.789035 20.0813 0.730368V3.96437C19.4947 4.02304 18.9373 4.18437 18.4093 4.44837C17.896 4.71237 17.4487 5.05704 17.0673 5.48237C16.7007 5.89304 16.4073 6.3697 16.1873 6.91237C15.9673 7.44037 15.8573 8.01237 15.8573 8.62837ZM20.9613 0.730368C22.0027 0.789035 22.978 1.03837 23.8873 1.47837C24.7967 1.9037 25.5887 2.4757 26.2633 3.19437C26.938 3.89837 27.466 4.7197 27.8473 5.65837C28.2433 6.58237 28.4413 7.57237 28.4413 8.62837C28.4413 9.68437 28.2433 10.6817 27.8473 11.6204C27.466 12.5444 26.938 13.3657 26.2633 14.0844C25.5887 14.7884 24.7967 15.3604 23.8873 15.8004C22.978 16.2257 22.0027 16.4677 20.9613 16.5264V13.2704C21.5627 13.2117 22.12 13.0504 22.6333 12.7864C23.1467 12.5224 23.594 12.185 23.9753 11.7744C24.3567 11.3637 24.6573 10.887 24.8773 10.3444C25.0973 9.8017 25.2073 9.2297 25.2073 8.62837C25.2073 8.01237 25.0973 7.44037 24.8773 6.91237C24.6573 6.3697 24.3567 5.89304 23.9753 5.48237C23.594 5.05704 23.1467 4.71237 22.6333 4.44837C22.12 4.18437 21.5627 4.02304 20.9613 3.96437V0.730368ZM38.3539 0.708368C39.3659 0.723035 40.3119 0.899035 41.1919 1.23637C42.0719 1.55903 42.8419 2.09437 43.5019 2.84237L41.6319 5.21837C41.2945 4.77837 40.8619 4.41904 40.3339 4.14037C39.8059 3.8617 39.1459 3.7077 38.3539 3.67837V0.708368ZM30.4119 8.62837C30.4119 7.58704 30.5659 6.6117 30.8739 5.70237C31.1965 4.77837 31.6585 3.96437 32.2599 3.26037C32.8759 2.55637 33.6165 1.98437 34.4819 1.54437C35.3619 1.0897 36.3592 0.818369 37.4739 0.730368V3.74437C36.9019 3.84704 36.3812 4.05237 35.9119 4.36037C35.4572 4.6537 35.0685 5.02037 34.7459 5.46037C34.4232 5.90037 34.1739 6.3917 33.9979 6.93437C33.8219 7.47704 33.7339 8.0417 33.7339 8.62837C33.7339 9.21504 33.8219 9.7797 33.9979 10.3224C34.1739 10.865 34.4232 11.3564 34.7459 11.7964C35.0685 12.2364 35.4572 12.6104 35.9119 12.9184C36.3812 13.2117 36.9019 13.4097 37.4739 13.5124V16.5264C36.3592 16.4384 35.3619 16.1744 34.4819 15.7344C33.6165 15.2944 32.8759 14.7224 32.2599 14.0184C31.6585 13.3144 31.1965 12.5004 30.8739 11.5764C30.5659 10.6524 30.4119 9.6697 30.4119 8.62837ZM38.3539 13.5784C39.1459 13.5637 39.8059 13.417 40.3339 13.1384C40.8619 12.845 41.2945 12.4784 41.6319 12.0384L43.5019 14.4144C42.8419 15.1624 42.0719 15.705 41.1919 16.0424C40.3119 16.365 39.3659 16.5337 38.3539 16.5484V13.5784ZM46.2261 0.928368H49.5261V16.3284H46.2261V0.928368ZM51.6838 16.3284L58.8558 0.576369H59.1198L66.2918 16.3284H62.7718L61.9358 14.3484H57.0078L58.0638 11.8184H60.8578L58.9878 7.50637L55.2038 16.3284H51.6838ZM68.4409 0.928368H71.7409V16.3284H68.4409V0.928368ZM72.6209 13.3584H77.7469V16.3284H72.6209V13.3584ZM80.4507 0.928368H83.7507V16.3284H80.4507V0.928368ZM87.1184 3.89837V0.928368H97.0624L95.6544 3.89837H87.1184ZM95.2364 4.77837L91.6064 12.4784H88.2844L91.9364 4.77837H95.2364ZM96.4024 13.3584V16.3284H86.4584L87.8664 13.3584H96.4024ZM99.7652 0.928368H103.065V6.89037H108.345V9.86037H103.065V16.3284H99.7652V0.928368ZM103.945 0.928368H109.203V3.89837H103.945V0.928368ZM103.945 13.3584H109.203V16.3284H103.945V13.3584Z" fill="#01070F"/>
</svg>
