<svg width="178" height="52" viewBox="0 0 178 52" fill="none" xmlns="http://www.w3.org/2000/svg">
<path d="M176.903 35.7728C176.992 35.812 176.981 35.9947 177.001 36.0745C177 35.9077 176.983 35.7424 176.95 35.58C176.965 35.6438 176.954 35.7018 176.901 35.738C176.884 35.1797 176.855 34.62 176.823 34.0587C176.826 34.3285 176.853 34.6055 176.826 34.8679C176.72 32.9668 176.618 31.067 176.545 29.1949C176.965 25.9247 176.788 22.701 176.564 19.4526C176.553 20.1705 176.595 20.9043 176.557 21.6728C176.491 21.1754 176.543 20.6969 176.453 20.2444C176.418 20.2357 176.437 20.3691 176.434 20.4417C176.445 20.765 176.35 20.6882 176.365 20.4156C176.352 20.3184 176.371 19.7673 176.329 19.6992C176.258 20.0313 176.358 20.9536 176.342 21.3219L176.321 21.3263C176.291 21.0957 176.311 20.823 176.275 20.5823C176.23 20.8347 176.287 21.1363 176.249 21.3814C176.21 20.7868 176.226 20.1734 176.164 19.6035C176.115 19.7021 176.172 19.9007 176.154 20.0719C176.055 18.7334 175.973 17.8125 175.859 16.4624C175.87 16.4609 175.878 16.4551 175.885 16.445C175.874 16.4377 175.864 16.4363 175.856 16.4363C175.851 16.342 175.844 16.2478 175.837 16.155C175.863 16.1216 175.863 16.1027 175.837 16.1013C175.864 15.9287 175.825 15.5053 175.946 15.4226C175.998 15.4284 175.997 15.3704 176 15.2921C176.095 14.8005 175.873 14.1682 176.034 13.7709C175.994 13.7781 176.002 13.7433 175.975 13.7897C175.954 13.7346 176.061 13.6012 175.998 13.6404C176.002 13.6143 176.007 13.5882 176.011 13.5606C176.015 13.5635 176.017 13.5664 176.021 13.5708C176.021 13.4968 175.998 13.3054 176.05 13.2793C176.004 13.0095 175.988 12.6383 176.059 12.3816C176.015 12.3338 176.065 12.2308 176.059 12.1612C176.074 11.9727 176.231 10.5399 176.084 10.5704C176.035 10.5312 176.092 10.3267 176.088 10.2455C176.089 10.2687 176.09 10.2919 176.093 10.3166C176.105 9.61904 176.155 8.79825 176.086 8.12682C176.086 8.13117 176.086 8.13552 176.085 8.13987C176.085 8.13842 176.085 8.13697 176.085 8.13552C176.058 8.30229 176.004 8.42556 176.004 8.61263C175.928 6.73321 176.08 4.80303 176.043 2.89751C175.418 2.50162 173.179 2.38125 170.213 2.41461C170.239 2.3334 170.274 2.28554 170.317 2.27539C169.195 1.85484 165.134 2.17968 162.452 2.3479C162.137 2.23189 160.648 2.49292 161.206 2.30874C160.276 2.17533 161.595 2.15938 161.939 2.15068C160.538 1.83889 158.582 2.00276 156.962 1.95635C155.702 2.34355 151.662 2.05641 154.372 2.02741C154.107 2.00421 154.315 1.93315 154.315 1.72433C154.257 1.84469 153.854 1.77508 154.123 1.97811C153.54 1.88239 153.094 1.99841 152.493 1.93895C152.73 3.13099 149.989 2.7786 149.291 2.73944C149.222 2.78875 148.916 2.7989 148.967 2.63648C148.841 2.51032 148.457 2.95407 148.469 2.63068C148.344 2.85691 148.151 2.62053 148.005 2.63068C147.489 2.58863 147.657 2.42911 147.609 2.01291C147.458 1.99696 147.55 2.09847 147.483 2.18258C147.282 2.38125 147.389 2.345 147.51 2.50307C147.03 2.27684 146.464 2.3421 146.222 2.08542C146.026 2.20288 145.797 2.08252 145.576 2.04336C145.613 1.87659 145.423 1.84034 145.507 2.02886C145.125 2.07672 145.611 1.58946 145.067 1.75333C145.059 1.58946 144.994 1.45169 144.802 1.41399C144.822 1.57061 144.905 1.83019 145.091 1.87659C144.714 1.98101 144.407 1.79828 144.343 1.39949C144.259 2.18403 142.502 1.22982 141.641 1.25012C141.799 1.75333 145.657 2.25364 144.638 2.20433C137.338 0.583043 139.569 1.72143 144.93 2.39285C143.938 2.7554 141.3 2.20578 140.989 2.42331C139.749 2.31309 138.671 2.19563 137.39 2.14197C134.698 2.11877 131.674 2.16953 128.891 1.71127C129.746 1.67647 130.483 1.83454 131.298 1.84904C130.265 1.60541 129.103 1.65327 128.024 1.4807C128.145 1.54596 128.045 1.62571 128.138 1.70112C128.179 1.76058 127.683 1.8911 127.614 1.92155C127.817 2.18983 127.333 2.02886 127.212 2.09267C126.91 2.3595 125.964 2.26959 125.048 2.28119C125.194 2.3624 125.359 2.39865 125.616 2.3914C124.942 2.44506 124.378 2.45376 123.85 2.44071C124.047 2.45666 124.241 2.49437 124.444 2.48131C124.713 2.69014 123.819 2.46246 123.614 2.43781C123.639 2.43636 123.663 2.43636 123.686 2.43636C122.625 2.3972 121.689 2.26814 120.275 2.21738C120.605 2.374 121.247 2.3247 121.676 2.43056C122.173 2.87866 120.009 2.09847 119.652 2.39285C120.701 2.84966 119.651 2.52047 118.983 2.56397C120.138 2.66694 119.364 3.03963 118.691 2.84821C119.023 2.98887 119.467 2.95552 119.825 3.07153C119.549 3.13824 118.87 2.92797 119.417 3.2325C118.034 2.95697 118.419 3.09039 117.184 2.98742C118.772 3.59214 113.789 2.89461 112.983 3.00483C113.053 3.00773 113.115 3.05848 113.169 3.07588C113.01 3.07153 112.851 3.06573 112.691 3.06138C112.765 3.05123 112.843 3.03383 112.928 3.01063C112.361 3.12519 111.929 2.70609 111.411 2.85981C111.514 3.08458 112.062 2.8105 112.308 3.05123C108.146 2.76555 103.623 3.17014 99.5894 2.7699C100.335 2.42186 100.632 2.79165 101.571 2.78585C100.882 2.22463 95.7801 2.95117 98.853 2.3479C98.8421 2.27829 98.8503 2.18693 98.3508 2.19273C97.5751 2.19708 98.2154 2.36095 97.7511 2.41751C97.6035 2.11007 97.7511 2.01726 98.0435 1.97666C97.2326 1.86499 96.9497 0.802019 96.4624 0.482982C96.771 0.910782 96.2038 0.590294 96.0698 0.419174C95.4282 0.00732642 95.4539 -0.262405 95.3998 0.401772C94.991 0.55259 94.7175 -0.249353 94.4657 0.427875C94.149 0.136391 92.6843 -0.0405291 93.5493 0.411924C93.3611 0.449628 93.1066 0.472831 92.9997 0.578693C92.9659 0.738212 92.8589 0.855675 92.7899 0.774466C92.7181 0.688906 92.5151 0.710658 92.5016 0.81362C92.7073 1.0326 93.9622 0.773016 93.7334 1.12976C93.6251 1.0413 93.2555 1.11671 93.5425 1.16021C93.6833 1.10075 93.82 1.28493 93.908 1.07465C93.9337 1.01084 93.9744 1.00649 93.9676 1.08915C93.9486 1.30088 94.4887 1.20952 94.7473 1.36323C95.1547 1.43864 94.616 1.58946 94.4305 1.42124C94.1801 1.22547 93.9798 1.68082 93.7537 1.48505C93.1825 1.72143 94.7974 1.38789 94.6119 1.81424C94.3317 2.54947 93.5263 1.5329 93.1554 1.90705C92.312 1.77073 90.8907 0.947036 90.0636 0.543889C90.1299 0.259656 90.1895 0.583044 90.2829 0.623648C90.2206 0.504734 90.2274 0.335065 90.1096 0.326364C89.8876 0.411923 89.7699 0.230652 89.5939 0.110288C89.6007 0.580143 89.5655 0.279958 89.4369 0.132041C89.5628 0.881778 87.7163 0.0609827 86.8107 0.422075C86.7106 0.55114 86.9028 0.948486 86.8947 0.584494C86.9664 0.661353 87.1343 0.770115 87.2114 0.667153C87.2764 0.342315 87.9614 0.664253 88.2321 0.564191C88.0791 1.08625 87.8856 0.733861 87.8084 0.954287C87.7055 0.886129 87.5336 0.954287 87.5715 0.751263C87.6175 0.659902 87.6676 0.848424 87.7164 0.751263C87.4537 0.475731 87.5025 0.748363 87.516 0.961538C86.9136 0.875978 86.23 0.938335 85.5437 1.14426C85.4314 1.14426 85.5572 1.38354 85.4666 1.38789C85.3691 1.38209 85.4693 1.19792 85.3948 1.17181C85.2852 1.29508 85.2622 1.5387 85.0821 1.4894C84.7708 1.50245 84.4838 1.82729 84.2401 1.82439C84.3389 2.42041 84.1386 1.61846 83.746 2.09122C83.6188 2.3247 84.1291 2.22463 84.052 2.39575C84.0181 2.54367 83.9166 2.3769 83.8828 2.47696C83.9112 2.11442 83.5416 2.63938 83.3102 2.67854C83.5687 2.89026 83.6608 2.47841 83.8151 2.53787C83.8367 2.7757 83.0611 3.22235 83.0421 2.93087C82.3369 3.32676 81.4408 2.61038 83.2222 2.84241C84.0303 2.69594 82.7484 2.78005 82.766 2.57993C82.6184 2.82065 82.4587 2.71769 82.387 2.50887C82.054 2.90186 80.7314 2.54222 80.6841 2.85546C84.2983 2.99902 76.7584 3.14404 75.2883 3.16144C74.889 3.12084 75.0866 3.07153 74.4829 2.98017C74.602 2.91782 74.4098 2.80905 74.334 2.82065C74.4761 2.60748 75.7378 2.81485 76.2508 2.66839C75.1814 2.03466 75.6159 2.42621 74.3096 2.46826C73.7587 2.67709 73.8954 2.3566 74.2528 2.21593C74.2217 2.37545 75.1652 1.87949 74.8904 2.12022C74.3692 2.67564 76.6339 1.57061 76.8708 1.33133C76.4105 1.08045 76.0153 1.78668 75.7973 1.66632C75.1543 1.44299 76.2562 1.32698 76.4606 1.12106C76.2684 0.665703 75.5875 1.0471 75.2071 0.997792C74.7618 0.81072 75.7405 0.765765 75.8907 0.786067C75.911 0.55549 76.6772 0.310412 76.4119 0.166845C75.7757 -0.0666322 75.6944 0.532288 75.1949 0.432226C74.6684 0.424975 73.1563 1.0558 73.3688 1.16746C73.756 1.0703 74.3787 0.89338 74.8525 0.696157C74.5222 1.16456 74.2054 0.951386 73.7844 1.20952C73.9604 1.27332 74.0281 1.34873 73.7817 1.45895C73.5908 1.41689 73.576 1.39224 73.5191 1.58946C73.2809 1.4749 72.6731 1.17906 72.5431 1.56191C73.7655 1.65037 70.9783 2.08687 71.9624 1.54741C71.6944 1.35743 71.3979 1.93025 70.9715 1.70402C71.3979 1.9462 70.851 1.9549 70.5992 1.9085C70.6696 1.8882 70.74 1.85774 70.8118 1.80409C69.5271 2.06512 67.9339 1.62571 66.7047 2.03321C67.299 2.07382 68.7041 2.10282 69.1251 2.06657C69.2239 2.06657 69.3214 2.06512 69.4202 2.06367C68.9329 2.3479 69.5583 2.02451 69.538 2.28119C69.6652 2.316 69.6544 2.08397 69.5339 2.06367C70.2121 2.07672 70.8835 2.00566 71.54 1.97521C71.3018 2.23044 70.958 1.9549 70.7238 2.11877C70.6737 2.16228 70.5695 2.28844 70.514 2.11152C70.4138 2.01146 70.4314 2.24204 70.3258 2.21303C70.1417 2.12167 70.093 2.20723 70.2161 2.3595C69.9468 2.43201 69.7031 2.53932 70.2013 2.56687C70.2107 2.65388 70.0673 2.66694 70.0334 2.59298C69.963 2.64228 69.6449 2.69159 69.7356 2.52917C69.9414 2.28264 69.2835 2.40301 69.3146 2.49147C68.9112 2.70754 69.01 2.61908 68.83 2.30439C68.5227 3.03238 68.1721 2.54077 67.6103 2.72929C66.7007 2.57413 66.8997 3.04543 66.2499 2.91637C66.4909 2.52047 67.0689 2.63358 67.3247 2.61618C67.5332 2.61763 67.8892 2.62923 68.0164 2.52192C67.9447 2.48131 67.2733 2.3595 67.4303 2.50742C67.1812 2.50017 65.8248 2.66839 66.4462 2.46101C66.9673 2.30004 66.5003 2.26089 66.2594 2.40591C66.0022 2.41171 65.814 2.67129 66.0266 2.83661C66.6736 2.25219 66.1971 3.17014 65.638 2.84241C62.1145 2.70899 56.471 2.70174 52.4682 3.29776C52.8527 3.32966 54.959 3.08023 54.1657 3.40362C54.6598 3.78792 55.0118 3.16289 56.1299 3.19045C54.0101 3.73426 57.4633 3.34561 58.1875 3.40652C57.9885 3.49353 58.247 3.62985 58.1726 3.74296C57.7137 3.59939 57.3847 3.81257 56.9055 3.80387C57.0572 3.79517 57.4226 3.68495 57.3604 3.52689C57.0368 3.78502 56.9313 3.52109 56.6632 3.72991C56.4832 3.91263 56.2747 3.65885 56.578 3.62695C56.8027 3.32531 56.0812 3.72846 55.9647 3.72701C55.7184 3.6777 55.985 4.11275 55.5397 3.82997C54.852 3.70236 53.5945 4.31868 53.164 3.89813C52.6997 4.04895 52.0675 4.28097 51.8212 3.93728C51.4652 4.10695 51.0631 4.07795 50.7166 3.94308C50.4458 3.78212 50.8777 4.15336 50.6827 4.21427C50.5162 4.33173 50.5623 3.72121 50.3931 4.0852C50.4283 4.18526 50.4161 4.28532 50.2834 4.27372C50.2238 3.62695 48.8959 4.38394 49.9084 4.18236C50.1264 4.33028 49.3683 4.36363 49.1531 4.31433C50.3579 3.82707 47.0319 4.57536 46.9371 4.35493C46.9439 4.34913 46.8613 4.48835 46.7571 4.31433C46.6448 4.47965 46.0451 4.21572 46.3903 4.27082C46.2211 4.15481 45.9963 4.43759 45.7337 4.34333C45.838 4.27082 45.7838 4.10405 45.8434 3.99674C45.6769 4.51445 44.9418 4.42019 44.533 4.33898C44.0268 4.9669 43.0792 4.29258 42.11 4.52025C41.3844 4.59566 42.0815 4.62756 42.5391 4.67542C41.1407 4.58261 38.7096 5.3628 37.8743 4.68412C38.2588 4.84944 38.252 4.82334 38.673 4.63482C38.8422 4.62031 39.1617 4.9321 39.0155 4.64642C38.9816 4.60001 39.0331 4.57246 39.1075 4.55506C40.338 4.88714 41.513 4.42309 42.7936 4.20266C41.7282 3.88073 41.3668 4.65367 40.3407 4.5159C40.2988 4.34768 40.7766 4.22587 40.8077 4.06635C40.3962 3.93873 40.6223 3.81547 41.0311 3.86478C41.0094 3.6632 40.6318 3.85462 40.5817 3.71831C40.7143 3.46453 39.8223 3.36447 40.0944 3.17304C40.2622 3.14694 40.1485 3.40362 40.4165 3.27311C40.7346 3.13534 40.2974 3.09909 40.2893 2.99467C41.1313 2.97872 41.2964 3.50658 42.1194 3.16434C40.805 2.68289 42.3888 3.11649 42.7882 2.84966C42.0599 2.72784 41.3032 2.78585 40.5736 2.54947C40.8998 2.46391 41.2369 2.3566 40.5181 2.36095C39.7654 2.3943 39.672 2.18983 39.0899 2.31745C38.853 2.21593 39.2564 2.17243 39.3201 2.06222C39.205 2.07817 39.0967 2.08397 38.9925 2.08107C38.8179 2.11297 37.5481 1.81569 38.3305 1.65907C39.3607 1.56481 38.5106 1.45024 37.9853 1.501C37.9948 1.40239 37.8188 1.5039 37.915 1.53C37.7106 1.77218 36.323 1.72578 37.3572 1.87224C38.5891 1.84904 36.3569 1.84759 36.6506 2.24929C35.6679 1.43719 36.2554 2.02306 35.6394 2.14052C35.9982 1.66052 35.1183 1.95635 34.7799 1.9607C34.5795 2.05206 34.1328 1.96505 34.1301 1.84904C33.9609 1.60831 33.4655 2.07527 33.0512 1.85194C34.746 1.45605 33.8472 1.27042 32.8698 1.54306C32.9335 1.75913 32.6627 1.66777 32.6153 1.54015C32.5098 1.60396 32.2756 1.62862 32.4475 1.75478C32.4624 1.9346 31.8018 1.9549 31.6367 1.89255C32.013 1.76783 31.8749 1.35888 31.3957 1.55031C31.3091 1.57931 30.7906 1.42994 31.0613 1.64602C30.7338 2.19708 29.1391 1.64312 28.3703 1.84034C27.5405 1.89545 27.6704 1.75478 28.354 1.63007C28.5557 1.54886 29.6535 1.77508 28.997 1.47345C28.3053 1.42849 28.8874 0.742562 28.0914 1.04565C28.5327 1.27187 27.7652 1.48505 27.3956 1.38789C28.3635 0.81217 25.8105 1.4575 25.4585 1.41689C25.2839 1.31393 25.8078 1.31393 25.5736 1.20807C25.3962 1.14426 25.2595 1.29943 25.089 1.31683C24.9536 1.37629 24.7302 1.24287 24.9698 1.19066C25.5411 1.03115 25.0863 1.08335 24.7614 1.07755C26.2098 0.652652 23.3955 1.35163 22.915 1.16746C22.5495 1.17906 21.7941 1.894 22.0189 1.35888C21.6317 1.12831 21.5221 1.42559 21.166 1.36178C21.3176 1.32698 21.0361 1.24577 21.1552 1.35743C20.7044 1.21677 20.7153 1.45459 20.5122 1.63587C20.1481 1.79393 20.01 1.55756 20.4527 1.4836C20.19 1.36033 19.7975 1.60686 19.5078 1.78233C19.386 1.77943 19.2641 1.77508 19.1423 1.77218C19.3305 1.54596 19.922 1.78668 19.3778 1.5271C19.0232 1.31683 19.0164 1.58221 18.8445 1.60396C18.766 1.55176 18.7281 1.49665 18.7904 1.43719C19.0476 1.27912 18.2773 1.01374 18.3829 1.23562C18.7646 1.34293 18.3098 1.59236 18.2814 1.36758C18.1839 1.24432 18.1189 1.0326 17.9389 1.0819C17.4489 1.18921 18.2529 1.39224 17.7819 1.50825C17.7426 1.5358 17.6885 1.55611 17.6208 1.53725C17.5193 1.42414 17.8293 1.34873 17.4746 1.26317C17.3677 1.22837 17.1362 1.11671 17.3622 1.0268C16.9358 0.844074 16.4742 1.30523 16.0235 1.42269C16.1006 1.1022 15.6119 1.39369 15.6268 1.68372C15.6228 1.68372 15.6187 1.68372 15.6147 1.68372C15.5172 1.4778 15.3466 1.41399 15.214 1.24142C15.302 1.14426 15.2248 1.0993 15.1273 1.0761C15.3629 1.01809 14.9744 1.06595 14.9202 1.05435C14.5832 1.05 14.904 1.27622 14.6887 1.33278C14.4789 1.30523 14.5168 1.11526 14.2068 1.25302C14.2502 1.0326 14.1189 1.25592 14.0688 1.12396C14.0024 1.07755 14.0295 0.878878 13.9862 0.98619C13.3811 0.857125 13.8928 1.28202 13.6234 1.34148C12.9493 1.0674 12.5378 1.43719 11.7784 1.29363C12.0004 1.28202 12.5391 1.23997 12.5026 1.0471C12.328 0.98329 12.1222 1.28638 11.9625 1.18051C11.6457 0.928184 11.3547 1.39659 11.0745 1.22257C10.9377 1.06305 11.402 1.14426 11.4467 1.0355C11.1855 0.936885 9.78712 1.14426 10.3096 1.31248C9.01282 0.922383 7.04865 1.73593 6.11327 1.15876C5.78433 1.04275 5.50141 1.18341 5.25369 1.5416C2.31082 1.53145 0.334467 1.56481 0.338528 1.64747C0.431931 2.63938 0.33582 3.6835 0.533456 4.64497C0.522626 3.69511 0.372369 2.73654 0.467126 1.81134C0.495553 4.13741 0.820433 6.44028 0.912482 8.73589C0.852921 8.53722 0.858336 8.32114 0.816372 8.11957C0.838031 9.01578 0.940909 10.0512 0.9558 10.9488C1.02348 11.6043 1.14802 12.2003 1.07898 12.8964C0.926019 15.2326 1.22924 17.6399 1.10876 19.9602C1.08575 19.9109 1.11012 19.7412 1.06274 19.7166C1.03702 19.7311 1.0492 19.7876 1.05326 19.8311C1.11553 20.0559 1.01942 20.2807 0.957153 20.4881C0.936848 20.3111 0.913836 20.1357 0.86375 19.9863C0.881348 20.9507 0.907068 21.8759 0.946324 22.8634C0.901653 22.5241 0.898946 22.1659 0.861043 21.7903C0.735152 22.1442 0.777116 21.2538 0.695896 21.1667C0.739213 21.7468 0.695896 22.5574 0.947678 23.0346C0.947678 23.255 0.94497 23.4754 0.943617 23.6944C0.893531 23.6552 0.866458 22.8112 0.83397 23.226C1.01536 24.3934 0.976105 25.5622 0.949031 26.7455C0.908421 26.7223 0.854275 26.718 0.821787 26.7528C0.83397 26.7803 0.894885 26.8093 0.947678 26.8006L0.942263 27.1748C0.927373 27.1603 0.908421 27.1545 0.885409 27.1559C0.885409 27.1559 0.893531 27.1936 0.896238 27.1965C0.890824 27.211 0.875933 27.2357 0.884055 27.2531C0.888116 27.2342 0.892177 27.2168 0.896238 27.198C0.896238 27.198 0.896238 27.1975 0.896238 27.1965C0.911129 27.1994 0.926019 27.198 0.940909 27.1936L0.93008 28.0536C0.909775 28.2972 1.01401 28.3045 0.978812 28.5699C0.83397 28.1986 0.939556 30.4058 0.932787 30.6421C0.921958 30.6073 0.911129 30.5711 0.903007 30.5334C0.90436 30.5305 0.907068 30.529 0.908421 30.5261C0.90436 30.5203 0.901653 30.5174 0.898946 30.5131C0.882702 30.429 0.879994 30.3376 0.820433 30.2622C0.846153 30.4783 0.843445 30.6885 0.88947 30.8945C0.856982 30.8582 0.878641 30.7944 0.812311 30.7698C0.825848 30.9249 0.800128 31.0757 0.84886 31.2237C0.858336 31.2512 0.870519 31.286 0.832616 31.2947C0.750042 31.1845 0.764933 30.9249 0.718908 30.7654C0.728384 30.7828 0.739213 30.8002 0.748689 30.8176C0.783884 30.7292 0.798774 30.7509 0.714847 30.6784C0.71214 30.6827 0.710786 30.6856 0.709432 30.6885C0.716201 30.6175 0.587602 30.1157 0.559175 30.3376C0.618737 30.4435 0.519919 30.4928 0.488785 30.5682C0.502321 30.6798 0.502321 30.7872 0.580834 30.8771C0.537517 30.9452 0.570005 30.9916 0.613322 31.0409C0.622798 31.0511 0.633627 31.0844 0.598432 31.083C0.587602 31.083 0.575419 31.0554 0.563236 31.0801C0.584895 31.157 0.691835 31.1729 0.64581 31.2889C0.675591 31.4629 0.724323 31.6268 0.724323 31.8153C0.653932 31.7834 0.681005 31.6718 0.659347 31.6051C0.647164 31.5412 0.544285 31.5267 0.59031 31.4412C0.588956 31.4383 0.587602 31.4339 0.586249 31.431C0.588956 31.4281 0.59031 31.4267 0.593017 31.4238C0.588956 31.4209 0.583541 31.418 0.57948 31.4165C0.492846 31.2701 0.594371 31.0337 0.445467 30.9351C0.34665 30.6581 0.341235 30.3014 0.188271 30.0331C0.204515 30.136 0.157136 30.2419 0.218051 30.3391C0.227527 30.3536 0.249186 30.3826 0.218051 30.384C0.159844 30.3884 0.174734 30.4304 0.174734 30.4623C0.15849 30.6827 0.299271 30.9771 0.208576 31.1599C0.165259 31.0438 0.181502 30.8814 0.153075 30.7364C0.00958684 30.8727 0.0975752 30.5566 0.00146484 30.4913C0.0109405 30.6726 0.0150015 31.257 0.250539 31.2193C0.193685 31.3266 0.300625 31.373 0.301979 31.4687C0.283027 31.5253 0.381845 31.9748 0.288442 31.8443C0.281674 31.795 0.32093 31.7269 0.26543 31.7008C0.22482 31.679 0.227527 31.6544 0.246478 31.6196C0.29521 31.4615 0.0975752 31.5369 0.130063 31.2904C-0.0147792 31.0975 0.195039 31.7051 0.18421 31.7588C0.155783 31.8487 0.234295 31.9502 0.220759 32.0314C0.136831 32.1648 0.197746 32.3388 0.226173 32.481C0.226173 32.481 0.226173 32.4824 0.226173 32.4839C0.226173 32.4839 0.226173 32.4824 0.226173 32.481C0.251893 32.5317 0.349357 32.6274 0.272198 32.6753C0.216698 32.6956 0.234295 32.7275 0.238356 32.7579C0.287088 32.9566 0.264076 33.1756 0.304686 33.383C0.283027 33.3902 0.283027 33.4134 0.304686 33.4468C0.316869 33.8325 0.342589 34.1922 0.318223 34.5648C0.30604 34.649 0.425162 34.559 0.418394 34.6258C0.408918 34.6316 0.400796 34.6403 0.392674 34.6548C0.399443 34.6649 0.407565 34.6722 0.415687 34.6751C0.362894 34.852 0.456297 35.071 0.373723 35.2232C0.353418 35.2 0.373723 35.1652 0.343942 35.1507C0.327698 35.4262 0.454943 35.7293 0.38726 36.0107C0.472541 36.4936 0.540224 36.9997 0.49826 37.5101C0.511797 37.7523 0.38726 38.0351 0.490138 38.2555C0.603846 38.489 0.513151 38.8066 0.578127 39.0473C0.601139 38.9125 0.621444 38.7848 0.64581 38.6456C0.699957 38.7761 0.62009 38.9241 0.664761 39.0676C0.689127 39.2387 0.778469 39.0705 0.831262 39.0488C0.869165 39.0937 0.819079 39.1648 0.844799 39.2213C0.959861 38.5209 1.04108 37.8031 1.1047 37.0736C1.23195 38.2033 1.05056 39.3113 1.05191 40.4105C1.13042 40.8803 0.950385 41.2429 1.03025 41.6591C1.09117 41.9462 1.08304 42.1927 0.999117 42.3682C1.06409 43.8227 0.939556 45.2903 1.24278 46.7202C1.42146 46.3388 1.18592 43.9721 1.50674 44.0229C1.45801 44.1128 1.60015 44.1737 1.57036 44.0504C1.73416 44.136 1.68678 44.4332 1.84516 44.5536C1.8411 44.674 1.86682 44.8175 1.86682 44.9408C1.84245 44.9089 1.8059 44.8813 1.80455 44.8378C1.80455 44.8146 1.81673 44.7784 1.77883 44.7784C1.71385 44.7871 1.7504 44.8668 1.72468 44.9046C1.70302 44.861 1.71656 44.8045 1.68407 44.7682C1.60827 44.7958 1.65294 44.8814 1.6015 44.9307C1.63805 44.7552 1.50945 44.6638 1.44989 44.5275C1.25361 45.9951 1.37679 47.5439 1.41875 48.9766C1.44312 48.9563 1.47019 48.936 1.50403 48.9085C1.50133 49.1274 1.44447 48.9215 1.42011 49.0651C1.41605 49.0897 1.41063 49.1303 1.40792 49.1724C1.29016 49.3421 1.16426 49.4769 1.03161 49.5697C1.45666 49.519 1.9142 49.4494 2.38798 49.3696C4.19918 49.4566 8.59995 49.5451 13.4623 49.6104C13.3567 49.6365 13.2647 49.6597 13.197 49.6814C12.5608 50.0033 13.2051 49.8293 14.0309 49.6176C14.548 49.6249 15.0691 49.6307 15.593 49.6365C15.0705 49.8279 15.3101 49.8772 16.4174 49.6466C16.5555 49.6481 16.6922 49.6495 16.8302 49.651C16.4038 49.7742 15.9747 49.9033 15.5713 50.1107C16.1047 50.2905 17.7034 49.8917 18.6509 49.6684C18.8296 49.6698 19.0083 49.6713 19.187 49.6727C19.1707 49.6814 19.1586 49.6887 19.1396 49.6974C19.2723 49.7293 19.474 49.7148 19.7122 49.6771C19.9843 49.68 20.255 49.6814 20.5244 49.6843C19.6283 49.9395 18.7308 50.2557 17.9903 50.8285C19.1762 51.9756 17.1294 51.5463 16.2834 51.8538C16.5839 52.3019 19.0746 51.5724 20.1657 51.6232C20.9657 51.5782 24.1211 50.1962 25.5966 49.7119C28.6112 49.7191 30.8894 49.7032 31.5812 49.6539C32.2079 49.7496 32.7588 49.8627 32.8522 50.0744C33.3517 50.0381 34.3129 49.8076 35.6855 50.115C36.1214 50.1817 36.4368 50.0091 35.8601 49.8627C35.6489 49.7742 35.8154 49.6597 35.9548 49.7177C37.3221 49.7061 38.2859 49.3667 39.6111 49.3595C39.5732 49.3885 39.5326 49.4131 39.4879 49.4233C40.5397 49.651 41.2639 49.0346 42.2873 48.8809C40.9228 49.6234 43.7493 48.6155 43.775 48.7707C42.8613 49.1376 41.8068 49.3972 41.0676 50.2267C41.9814 51.5521 40.1783 50.7023 39.829 51.3549C41.3059 51.2389 43.3743 51.0692 44.4748 50.5501C44.5506 50.3253 44.5493 50.6371 44.4559 50.6704C44.8322 50.582 45.172 50.5037 45.5347 50.4268C45.4441 50.1803 45.8244 50.2165 45.6633 50.347C45.8853 50.3151 50.0397 49.5871 49.4062 49.3914C49.9355 49.4276 50.7098 49.1884 49.8259 49.2652C48.4546 49.126 52.1312 49.0999 50.6313 48.9462C50.8357 48.8722 51.8428 48.9143 50.9846 48.6924C51.346 48.7649 51.7833 48.5285 51.8604 48.9375C51.9376 48.6793 51.8929 48.6851 52.1041 48.6866C51.7589 48.6663 51.5369 48.3661 51.4029 48.5778C51.3203 48.4183 50.9129 48.443 50.9954 48.3153C51.3555 48.1442 51.4273 48.2646 51.6046 48.4328C51.8686 48.0442 53.7149 48.2385 53.4415 48.3763C54.3295 48.5329 53.3183 48.3792 54.0046 48.2399C53.9018 48.0558 53.5512 48.3792 53.3806 48.1863C54.1183 47.8745 56.7593 48.2124 56.9313 47.5859C56.8812 47.3901 56.7242 47.5801 56.7066 47.6729C56.5184 47.583 56.0893 47.5091 55.9323 47.6077C55.6981 47.889 54.5908 47.8136 54.2754 47.6396C54.0493 47.3669 55.1187 47.2234 55.0456 47.5439C54.4608 47.496 54.8534 47.7106 55.2148 47.6381C55.3773 47.5874 55.074 47.4336 55.2229 47.3292C56.0243 47.3568 57.0653 47.3742 57.8639 47.2234C59.445 47.0537 59.0917 48.0007 60.1083 47.7396C60.3723 47.8411 60.5307 47.2016 60.6051 47.5888C60.5753 47.6309 60.5117 47.6787 60.6295 47.6918C61.4647 47.2016 62.6749 47.3104 63.6251 47.0465C63.9825 47.2147 63.8187 46.6027 63.4492 46.8188C63.2258 46.9087 62.9483 46.8318 63.0187 46.5722C63.4465 46.404 64.0461 46.3634 64.3521 46.726C64.6918 46.217 65.6164 46.6012 66.5734 46.246C63.6644 46.549 66.2878 45.8791 67.4262 45.7427C67.3586 45.7645 67.2855 45.8022 67.1812 45.8617C67.5427 45.895 67.2259 46.1909 67.7051 46.0429C66.744 45.4817 70.2554 46.1357 69.3647 46.2793C69.3322 46.1401 68.2208 46.0299 68.3752 46.1677C68.4131 46.246 68.8192 46.2547 68.7921 46.3431C68.6635 46.4214 68.7718 46.5142 68.8422 46.491C69.1481 46.4635 69.3512 46.3779 69.6084 46.4185C69.5718 46.4084 69.5434 46.3982 69.519 46.3881C71.6795 46.2822 74.1323 46.4548 76.4024 46.7086C76.2887 46.7666 76.5066 46.7361 76.4511 46.7158C76.5797 46.7666 77.3784 46.7825 77.132 46.929C76.9723 46.9768 77.1036 47.0276 77.35 47.045C76.2684 47.1045 76.4484 46.8753 75.2694 46.6723C76.6122 47.306 77.6667 47.0624 78.5669 47.686C78.3828 47.7585 78.2596 47.7947 77.9578 47.8977C79.8353 47.5134 80.0505 47.7527 81.7873 47.9963C81.4773 48.0369 81.1064 48.0471 80.7829 48.0616C79.9477 47.5772 79.5145 48.0833 78.6522 47.9572C79.0745 48.005 79.4955 48.0674 79.8976 48.0949C79.5131 48.1152 79.1192 48.137 78.7537 48.2312C86.5969 50.115 97.8309 48.0326 105.662 48.3298C105.321 48.6083 107.079 48.1877 106.852 48.0964C107.824 48.0558 108.552 48.0108 109.395 48.0587C107.929 48.5619 109.351 48.6677 109.559 48.237C109.67 48.224 109.616 48.3284 109.677 48.3719C109.745 48.3081 109.896 48.2863 109.787 48.1587C109.743 47.9978 110.099 48.0137 110.21 47.9905C110.304 47.9644 110.367 48.0732 110.252 48.0935C110.014 48.1573 110.255 48.5807 110.466 48.369C110.547 48.3487 110.859 48.4821 110.683 48.2762C110.928 47.757 112.135 48.2675 112.756 48.0964C113.144 48.3037 111.961 48.3154 111.844 48.3008C112.386 48.5604 112.162 49.1303 112.598 48.9012C112.207 48.6054 113.397 48.2994 112.832 48.7751C113.302 48.9273 113.868 48.5343 114.302 48.5648C114.129 48.865 114.255 48.8113 114.541 48.6721C114.893 48.6764 114.496 48.8418 114.404 48.9172C114.925 48.9186 114.572 48.8795 114.37 49.1129C115.069 48.7402 115.878 49.0796 116.403 48.5358C116.543 48.3647 116.614 48.6155 116.544 48.7301C116.65 48.7417 116.767 48.7286 116.854 48.8664C116.88 48.4154 117.394 48.9998 117.444 48.5314C117.482 48.4386 117.569 48.3661 117.673 48.4053C117.895 48.4923 117.584 48.5387 117.538 48.5981C117.999 48.8244 118.116 47.963 118.465 48.2631C118.369 48.5329 117.877 48.3371 118.232 48.5807C118.458 48.7997 118.466 48.5358 118.577 48.5184C118.653 48.7083 118.553 49.0158 118.87 48.9723C118.948 48.8766 118.611 48.7504 118.847 48.6837C119.024 48.7185 119.098 49.403 119.257 48.9157C119.154 48.8084 119.101 48.717 119.262 48.646C119.529 48.5242 119.208 48.8505 119.456 48.9012C119.691 48.9404 119.434 49.2449 119.615 49.2029C119.967 49.1202 120.11 48.9317 120.394 48.7838C120.352 49.1347 120.701 48.7345 120.655 48.5097C120.805 48.7185 120.846 49.1884 121.099 49.1898C121.343 49.2174 121.067 48.8273 121.339 48.9317C121.327 49.1884 121.519 48.9694 121.622 49.023C121.651 49.1216 121.63 49.3508 121.822 49.3073C122.074 49.2493 121.768 49.0491 121.915 48.9534C122.358 49.2043 122.592 48.9346 123.067 49.0462C122.837 49.0274 122.451 49.3798 122.79 49.2391C122.849 49.1753 122.969 49.1158 123.01 49.1666C123.208 49.432 123.408 48.9766 123.584 49.1608C123.645 49.2696 123.514 49.2652 123.431 49.2783C123.146 49.3783 123.731 49.4523 123.777 49.3261C123.89 49.1245 124.417 49.432 124.08 49.1013C124.862 49.519 126.309 48.8476 126.783 49.4421C127.534 49.0564 127.888 49.6278 128.684 49.4798C128.766 49.664 129.053 49.577 129.147 49.7394C129.287 49.6408 129.072 49.49 129.232 49.4537C129.493 49.4131 129.244 49.6829 129.404 49.7177C129.595 49.7104 129.388 49.3899 129.627 49.4465C129.767 49.5639 129.599 49.8119 129.949 49.7438C130.523 49.767 130.374 49.5117 129.895 49.5668C130.513 49.345 131.434 49.4842 131.96 49.4291C132.108 49.3841 132.356 49.4204 132.441 49.519C132.33 49.6234 132.03 49.4726 131.981 49.6423C132.372 49.7075 132.914 49.6785 133.259 49.6249C132.957 49.2638 133.604 49.6249 133.473 49.0781C133.602 49.0332 133.916 49.3566 133.922 49.1231C133.56 49.0941 133.753 48.7997 134.008 48.9534C134.176 49.0665 134.177 48.7765 134.379 48.8882C134.652 48.7635 134.093 48.7983 134.396 48.5793C134.165 48.6126 133.951 48.4894 133.81 48.3371C133.838 48.5561 133.566 48.4372 133.523 48.3081C133.656 48.1848 133.956 48.2805 134.136 48.1776C134.509 47.8571 133.473 48.0253 133.366 47.7889C133.78 47.7179 134.445 47.9238 134.62 47.6642C134.824 47.6178 134.717 47.8774 134.917 47.8571C135.141 47.6845 134.885 47.641 135.219 47.7657C135.375 47.3205 134.634 47.6613 134.392 47.4786C134.854 47.4496 135.344 47.4264 135.889 47.4133C135.609 47.393 135.353 47.3814 135.137 47.3669C135.372 47.3104 136.658 47.335 135.93 46.9507C135.766 46.971 135.567 46.7463 135.8 46.7825C135.455 46.7463 136.126 46.7173 135.753 46.5722C137.093 46.8304 138.288 46.304 139.363 46.7086C139.998 46.9681 140.272 46.4316 140.83 46.4707C141.951 46.6056 143.42 46.0299 144.166 46.7187C143.607 46.127 144.754 46.5186 145.119 46.4461C145.182 46.6056 145.343 46.5316 145.273 46.42C145.494 46.3359 145.946 46.6738 145.724 46.4142C145.76 46.4142 145.798 46.4142 145.835 46.4127C145.709 46.6477 146.708 46.1865 146.686 46.5186C147.033 46.2242 148.695 46.5345 148.455 46.6636C148.112 46.6012 147.991 46.6883 147.681 46.6955C147.42 46.7231 147.157 46.7274 146.958 46.7695C147.429 46.6926 147.517 46.8739 147.761 46.9826C147.321 47.2161 148.325 46.9464 147.831 46.8753C147.612 46.6157 150.807 46.9667 149.082 46.6404C148.821 46.6143 149.366 46.4852 149.129 46.3475C149.529 46.4388 149.954 46.4925 150.39 46.5287C149.795 46.7129 150.776 46.8492 150.758 46.681C150.907 46.8028 151.205 46.8275 151.428 46.8202C151.44 47.0102 151.658 47.0204 151.823 47.0102C151.646 46.9391 151.631 46.8376 151.863 46.826C151.71 46.871 152.334 46.8579 152.194 46.7622C150.043 46.3895 155.603 46.7825 154.657 46.9522C154.606 47.3176 154.698 47.2712 154.93 47.1799C155.056 47.4496 155.025 47.2277 155.216 47.2495C155.172 47.2785 155.244 47.3147 155.224 47.2495C155.4 47.2364 155.015 47.0784 155.033 47.1625C154.983 46.404 157.27 47.1799 158.359 46.8565C162.632 46.9406 168.066 47.4568 171.579 46.6172C170.932 46.5389 170.524 46.4272 170.126 46.3199C170.967 46.2808 171.755 46.2286 172.473 46.1589C173.043 46.2286 173.573 46.304 173.915 46.3765C173.265 46.3953 172.479 46.1749 171.992 46.2938C173.038 47.2103 173.722 46.9942 174.132 45.9458C175.43 45.7268 176.302 45.4136 176.543 44.9756C176.543 44.9771 176.543 44.98 176.543 44.9814C176.543 44.9785 176.543 44.9771 176.543 44.9742C176.616 44.8407 176.631 44.6957 176.58 44.5391C176.652 43.7865 176.75 43.0324 176.747 42.2855C176.747 42.3015 176.744 42.316 176.742 42.3305C176.758 41.8099 176.775 41.2878 176.766 40.7672C176.866 40.6251 176.838 40.396 176.863 40.2176C176.949 39.2445 176.976 38.2715 176.923 37.297C176.927 37.3811 176.935 37.4666 176.951 37.5522C176.951 37.4362 176.949 37.3202 176.947 37.2042C176.97 36.759 176.912 36.2311 176.915 35.7656L176.903 35.7728ZM176.061 8.58507C176.061 8.64453 176.059 8.70544 176.055 8.7678C176.031 8.72574 176.03 8.56332 176.061 8.58507ZM175.977 9.53639C176.072 9.75391 176.032 10.0207 176.025 10.2847C175.86 10.1121 175.97 9.80757 175.977 9.53639ZM75.7486 1.18341C75.6944 1.20517 75.4995 1.38789 75.4941 1.23417C75.5252 1.17906 75.8555 1.02534 75.7486 1.18341ZM75.019 1.06595C75.0311 1.16311 74.7401 1.18341 74.7482 1.09785C74.7902 0.965888 74.981 0.889029 75.019 1.06595ZM40.7035 2.7496C41.0704 2.58863 40.7942 2.90041 41.2707 2.94392C41.1435 3.14984 40.6155 2.94102 40.7035 2.7496ZM40.1959 3.86478C40.273 3.98659 39.8196 4.04025 39.737 4.12436C39.3377 4.02574 40.0023 3.75746 40.1959 3.86478ZM40.4409 4.30708C39.959 4.14031 40.3556 4.5246 39.959 4.52605C39.7708 4.51445 39.9333 4.44774 39.9252 4.40714C39.6287 4.18671 40.7184 4.06345 40.4409 4.30708ZM40.3461 2.77135C39.9085 2.85836 39.6106 2.87963 39.4527 2.83516C39.8426 2.72494 40.1404 2.70367 40.3461 2.77135ZM39.5434 3.12084C39.9197 3.15854 39.5312 3.57909 40.1729 3.55879C40.2663 3.55879 40.4084 3.611 40.38 3.6777C40.1377 3.68785 39.0805 3.72556 39.1062 3.58489C39.8169 3.55299 39.0087 3.13244 39.5434 3.11939V3.12084ZM39.1657 3.92713C39.3837 3.85317 39.5542 4.1026 39.2564 4.0591C38.715 4.14756 38.7258 3.92423 39.1657 3.92713ZM27.8545 1.50245C27.9953 1.4691 28.1401 1.43429 28.3527 1.38354C28.2565 1.49665 27.7015 1.70982 27.8545 1.50245ZM16.7423 1.23997C16.8343 1.26317 16.9751 1.25882 16.9805 1.32988C16.9115 1.4981 16.2901 1.30813 16.7423 1.23997ZM14.1825 1.25012C14.1568 1.23562 14.1324 1.22112 14.1825 1.25012ZM0.720262 31.4745C0.751396 31.3165 0.813665 31.6254 0.771701 31.6471C0.717554 31.6326 0.737859 31.5238 0.720262 31.4745ZM0.809604 34.0486C0.805543 34.0689 0.804189 34.0892 0.801482 34.1138C0.666115 34.0964 0.824494 33.8818 0.809604 34.0486ZM0.74192 33.5149C0.725676 33.5265 0.718908 33.5019 0.718908 33.4874C0.731091 33.4801 0.745981 33.47 0.76764 33.4584C0.739213 33.4497 0.725676 33.4439 0.714847 33.4439C0.770347 33.3134 0.739213 33.193 0.762225 33.0596C0.787945 33.206 0.936848 33.4323 0.74192 33.5149ZM0.859689 31.5238C0.840738 31.4542 0.80825 31.4035 0.839384 31.344C0.854275 31.3977 0.903007 31.447 0.859689 31.5238ZM1.0289 21.1667C1.01942 21.0826 1.00995 20.9985 1.00182 20.9144C1.00453 20.9086 1.00589 20.9028 1.00859 20.897C1.05462 20.8216 1.03296 21.1218 1.0289 21.1682V21.1667ZM1.12095 36.7923C1.12095 36.8489 1.1223 36.904 1.1223 36.9605C1.10606 36.9054 1.11689 36.8489 1.12095 36.7923ZM1.88712 43.7633C1.90607 43.7488 1.91149 43.8242 1.91013 43.859C1.90743 43.8633 1.90337 43.8677 1.89931 43.8735C1.88983 43.8474 1.88171 43.8227 1.87223 43.7981C1.87494 43.7821 1.879 43.7691 1.88577 43.7633H1.88712ZM1.84651 44.1969C1.79913 44.2157 1.82215 44.2853 1.76258 44.2839C1.77883 44.2331 1.7328 43.9489 1.81944 44.0359C1.87629 44.1505 1.88712 44.0925 1.87359 43.8996C1.88848 43.9126 1.90201 43.9271 1.91149 43.9431C1.91149 44.004 1.9142 44.0664 1.91555 44.1287C1.86411 44.0823 1.87223 44.2679 1.89524 44.2926C1.90337 44.2578 1.91013 44.2273 1.91826 44.194C1.92232 44.3013 1.92502 44.4115 1.92502 44.5203C1.92367 44.5217 1.92232 44.5232 1.91961 44.5246C1.90066 44.4927 1.92367 44.4477 1.89524 44.4289C1.88035 44.439 1.87765 44.455 1.87765 44.4724C1.86276 44.3796 1.81673 44.2926 1.84651 44.1954V44.1969ZM37.7106 2.08832C37.5589 2.26089 37.1745 2.26379 37.0256 2.10137C37.2165 2.04191 37.4655 2.11442 37.7106 2.08832ZM32.8035 5.81235C33.0905 5.68619 33.1149 5.88051 33.0851 6.10529C32.8509 6.11399 32.4109 6.05308 32.8035 5.81235ZM32.304 5.66734C32.7128 5.69199 32.2553 6.14879 32.0482 5.92837C32.6573 5.8022 31.6326 5.78335 32.304 5.66734ZM30.9409 6.41127C30.9003 6.43447 30.8123 6.47218 30.7541 6.43738C30.8123 6.42287 30.8759 6.41707 30.9409 6.41127ZM33.3274 48.2689C32.9795 48.2631 32.6235 48.2399 32.2837 48.2298C32.4746 48.1152 32.7859 48.1138 33.3274 48.2689ZM32.5071 6.75641C32.5274 6.75641 32.5463 6.75496 32.5666 6.75351C32.5571 6.78977 32.5314 6.76511 32.5071 6.75641ZM33.1473 48.8302C32.9497 48.8026 33.1528 48.6242 33.2353 48.7127C33.5724 48.8606 33.4316 48.8563 33.1473 48.8302ZM33.15 48.4662C32.6871 48.5793 32.2323 48.6054 31.7707 48.5981C31.7693 48.5314 31.768 48.4604 31.7652 48.3879C32.2187 48.3444 32.6857 48.4488 33.15 48.4662ZM27.1777 1.78958C26.7594 1.86934 26.7675 2.12167 26.3709 1.80989C26.6687 1.78378 26.8826 1.55901 27.1777 1.78958ZM26.3249 1.44879C26.5807 1.48215 26.4711 1.71853 26.2369 1.66922C25.8809 1.69532 26.0568 1.44734 26.3249 1.44879ZM25.1147 1.64312C24.9171 1.66052 24.7424 1.75478 24.492 1.70837C24.6896 1.57641 24.9076 1.61556 25.1147 1.64312ZM34.5416 49.7757C33.8147 49.6437 31.4715 49.5552 31.8627 49.2696C32.48 49.0042 33.414 49.6553 34.1233 49.5944C33.7321 49.3508 33.4357 49.4204 34.1057 49.3943C34.0421 49.1797 32.3961 49.1115 31.7801 49.0158C31.7788 48.936 31.7761 48.849 31.7734 48.7533C32.1957 48.688 32.6221 48.617 33.0661 48.5256C32.8901 48.6329 32.8834 48.8055 32.6614 48.9752C33.0201 49.0477 34.9829 49.0506 34.5524 49.3145C34.2384 49.5871 35.4662 49.8685 34.5416 49.7757ZM33.7186 48.4038C33.812 48.427 34.1382 48.472 33.8621 48.5271C33.7091 48.4952 33.3504 48.4575 33.7186 48.4038ZM34.6648 48.7954C34.8787 48.7606 34.9301 48.9114 34.6892 48.9331C34.5403 48.9665 34.4983 48.7693 34.6648 48.7954ZM35.5217 48.9897C35.6083 49.2478 35.1954 49.329 35.6137 49.5987C34.5836 49.4581 34.612 49.4842 35.5217 48.9897ZM36.2906 48.6619C36.1728 49.0767 36.8361 48.5938 36.8496 48.878C36.7102 48.9317 35.8154 48.9679 36.2906 48.6619ZM38.0801 48.0514C37.9556 48.2298 37.6605 47.8136 37.7728 48.2037C37.1528 48.4517 36.7752 47.7962 37.5589 48.1993C37.2476 47.786 38.7055 47.8556 38.0801 48.05V48.0514ZM38.6622 48.4401C38.3955 48.4705 38.1343 48.6286 37.8608 48.5082C38.0923 48.4734 38.516 48.1979 38.6622 48.4401ZM37.1028 47.7643C37.0689 47.5439 36.721 47.976 36.7359 47.7121C37.7214 47.306 37.8148 48.3008 37.1028 47.7643ZM36.6723 47.5584C36.694 47.5598 36.7183 47.5555 36.7386 47.5627C36.7034 47.5729 36.5857 47.6062 36.6723 47.5584ZM37.9109 47.3698C37.9853 47.3408 38.0598 47.3089 38.1451 47.3713C38.0666 47.3713 37.9894 47.3713 37.9109 47.3698ZM36.6276 47.1494C36.6493 47.1436 36.6777 47.1422 36.7143 47.1451C37.1691 47.119 37.8405 47.2016 38.1613 47.2263C37.6375 47.3727 37.119 47.4525 36.6276 47.1509V47.1494ZM37.9542 48.3879C37.5102 48.5952 37.0202 48.6068 36.499 48.53C37.0148 48.3893 37.5386 48.3299 37.9542 48.3879ZM36.7995 49.2159C36.6181 49.2304 36.3745 49.2652 36.2486 49.1289C36.3244 49.0767 37.0919 49.0317 36.7995 49.2159ZM37.1528 49.3029C36.8225 49.1448 37.5251 49.0549 37.4317 48.8084C37.5589 49.4175 37.3762 49.2449 38.0991 49.3377C37.7647 49.4276 37.4493 49.3856 37.1528 49.3029ZM37.9745 49.1637C37.8486 49.1666 37.6469 49.2 37.6523 49.1028C37.7322 48.9462 38.474 49.1187 37.9745 49.1637ZM38.0963 48.6982C38.2046 48.6808 38.8016 48.4444 38.6134 48.6431C38.4456 48.688 38.2764 48.717 38.0963 48.6982ZM39.2294 49.0361C38.9871 49.1753 38.9207 49.2304 38.8422 48.936C37.1745 49.3174 39.4365 48.5677 39.9739 48.7925C39.829 48.9665 38.9275 48.8055 39.2294 49.0361ZM38.8246 48.4285C38.9722 48.3255 39.1427 48.5039 39.2984 48.3951C39.2456 48.5967 39.0358 48.5024 38.8246 48.4285ZM39.6125 48.5633C39.6828 48.5416 39.7532 48.5198 39.8236 48.4995C39.8128 48.5822 39.6774 48.5358 39.6125 48.5633ZM40.3137 48.8751C40.449 48.8099 40.6047 48.7547 40.7468 48.7533C40.606 48.8447 40.472 48.907 40.3137 48.8751ZM40.8199 47.8658C40.9648 47.7672 41.1164 47.8411 41.2869 47.815C41.1177 47.9746 40.9675 47.8527 40.8199 47.8658ZM40.0551 5.77465C39.936 5.67749 40.6372 5.52957 39.9522 5.61078C40.1837 5.50782 40.204 5.45851 39.9157 5.47011C40.3624 5.43821 40.8091 5.41356 41.2639 5.39905C41.1746 5.44691 41.2612 5.50492 41.333 5.55132C41.8406 5.94142 40.2676 5.63543 40.0551 5.77465ZM41.7174 48.5677C41.5211 48.6358 41.7634 48.4473 41.804 48.4908C41.8081 48.5706 41.7567 48.5633 41.7174 48.5677ZM46.3916 5.02201C46.397 5.01041 46.4011 4.99881 46.4052 4.98721C46.4146 5.01041 46.42 5.02491 46.3916 5.02201ZM46.5134 4.81319C46.6353 4.60581 46.0099 4.82624 45.8583 4.72763C46.1534 4.57681 45.1517 4.69427 45.6945 4.83204C45.6309 5.01331 46.0613 5.05826 45.9476 4.9089C46.9737 4.73053 45.7513 5.28884 45.065 5.06116C45.4738 5.00896 44.9757 4.9698 44.9121 4.77403C44.9608 5.11772 44.2867 5.00171 44.4775 5.20763C44.7401 5.57162 46.2211 5.06551 46.1073 5.39035C46.0058 5.42081 45.8244 5.29464 45.7689 5.37585C45.7216 5.60063 45.4346 5.39615 45.398 5.60933C45.4576 5.57888 45.5334 5.60498 45.6187 5.63108C44.5114 5.7848 43.3594 5.66008 42.4903 5.43531C42.2535 5.44111 42.1709 5.48171 42.2264 5.51217C42.3063 5.72099 41.846 5.58178 41.689 5.48606C40.9336 5.28594 43.5801 5.47011 43.7696 5.17138C42.9574 5.18153 39.136 5.23083 39.5664 5.49622C39.4947 5.51507 39.7424 5.63543 39.7492 5.63833C38.049 5.8225 36.2635 5.89501 34.3034 6.02263C34.4428 6.03278 34.5849 6.04003 34.7284 6.04583C34.2222 6.47943 38.9952 5.69489 39.4257 5.87181C37.8676 6.2445 35.7098 6.06613 33.9961 6.29526C36.2824 6.30976 32.1104 6.6433 30.8948 6.62155C30.9449 6.61865 30.9937 6.61285 31.0397 6.60414C31.3646 6.6317 31.6773 6.59254 31.9778 6.51713C31.906 6.49393 31.8356 6.48378 31.7666 6.47653C31.8451 6.46348 31.9263 6.45043 32.0157 6.43592C31.7585 6.43592 31.5947 6.42287 31.485 6.40112C32.3351 6.39822 35.6909 6.1807 33.3179 5.90951C34.5267 5.82975 34.8272 5.60498 33.2678 5.7877C33.6049 5.43676 34.6079 5.61078 34.9274 5.94577C35.6462 5.43531 36.4679 5.92837 37.716 5.62963C35.6949 5.38455 35.9806 5.58468 37.8243 5.36715C37.6036 4.99736 42.0423 4.92485 43.3107 4.77693C43.6437 4.88859 45.9314 4.46225 46.0952 4.66382C46.1358 4.75953 46.1629 4.5188 46.2495 4.48255C46.4173 4.4869 47.0197 4.58841 46.5825 4.60001C46.7828 4.74213 46.707 4.78128 46.5148 4.81609L46.5134 4.81319ZM36.0442 5.65138C36.1457 5.64558 36.2432 5.64268 36.3461 5.64268C36.2405 5.69199 36.1241 5.69634 36.0442 5.65138ZM47.4651 4.55651C47.7967 4.5275 48.15 4.50865 48.5006 4.4898C48.4384 4.59856 47.3013 4.74648 47.4651 4.55651ZM47.304 49.8931C47.8143 49.4305 48.3504 49.5059 48.9487 49.6104C48.4072 49.7583 47.8536 49.8018 47.304 49.8931ZM48.3639 49.3725C48.4912 49.258 48.6983 49.258 49.0583 49.4204C48.8242 49.4044 48.5913 49.3885 48.3639 49.3725ZM50.9995 48.456C50.9792 48.456 50.9589 48.4502 50.9508 48.4285C50.9629 48.4386 50.9805 48.4473 50.9995 48.456ZM51.5477 48.1689C51.476 48.1587 51.3907 48.1486 51.3149 48.1384C51.4868 48.15 51.6736 48.0471 51.8753 48.2109C51.7576 48.195 51.6506 48.1819 51.5477 48.1689ZM59.6968 3.62115C59.0118 4.00979 59.38 3.45293 58.9442 3.42102C58.7222 3.43262 58.9536 3.6429 58.8156 3.70961C57.7922 3.33256 58.645 3.40652 59.2284 3.35867C59.5628 3.39057 59.9161 3.31371 60.2897 3.30066C59.9594 3.35142 59.797 3.93728 59.6968 3.62115ZM60.2247 3.6719C60.1543 3.6719 60.0677 3.67625 60.0596 3.60084C60.0907 3.42247 60.5158 3.61245 60.2247 3.6719ZM60.9503 3.66465C60.8393 3.6806 60.4373 3.49498 60.5307 3.29341C60.6187 3.31081 60.7486 3.31661 60.9029 3.31661C60.842 3.35142 60.7946 3.41377 60.8407 3.46888C60.8704 3.52689 61.0166 3.58779 60.9503 3.66465ZM61.7111 4.01849C61.7463 3.91263 61.9899 3.92713 62.0278 3.95614C61.9926 4.06635 61.7395 4.11855 61.7111 4.01849ZM62.1497 46.9203C61.7056 46.8536 62.3419 46.3678 62.3446 46.7187C62.3216 46.7956 62.35 46.9 62.1497 46.9203ZM62.8739 46.9971C62.4596 47.1088 62.4014 46.668 62.8197 46.6868C62.9307 46.7303 62.8346 46.8797 62.8739 46.9971ZM63.1229 3.43698C62.5815 3.46743 62.1442 3.72556 61.5188 3.6168C61.6298 3.45438 61.3171 3.30791 61.2264 3.36447C61.4823 3.76616 61.1913 3.68495 61.0505 3.38187C61.0572 3.34997 61.0532 3.32821 61.0437 3.31371C61.9209 3.29051 63.3652 3.11359 63.1243 3.43843L63.1229 3.43698ZM63.5994 3.50078C63.4668 3.15274 63.169 3.30066 63.8052 3.1919C63.9108 3.17595 64.0231 3.16579 64.1368 3.15854C63.8905 3.1919 63.7822 3.73426 63.6008 3.49933L63.5994 3.50078ZM64.3724 3.14984C64.4455 3.14839 64.5172 3.14694 64.5903 3.14694C64.5118 3.2412 64.4468 3.19045 64.3724 3.14984ZM65.2929 3.58199C65.4106 3.43988 65.5568 3.46598 65.6963 3.48193C65.5677 3.51673 65.4377 3.611 65.2929 3.58199ZM65.5067 3.13969C65.5731 3.13679 65.638 3.13099 65.7003 3.12374C65.6448 3.15999 65.5514 3.2006 65.5067 3.13969ZM65.8817 3.16724C66.0333 3.01643 66.2079 3.02658 66.4029 3.05123C66.258 3.07298 65.9291 3.42972 65.8817 3.16724ZM66.2932 3.38477C66.2729 3.23975 66.6005 3.14114 66.568 3.32531C66.6438 3.45583 66.3 3.50658 66.2932 3.38477ZM66.7684 45.5122C66.8198 45.5252 66.8699 45.5383 66.9213 45.5513C66.8712 45.5484 66.8198 45.5354 66.7684 45.5122ZM66.6262 3.54284C66.7711 3.46743 66.8848 3.33256 67.0635 3.50948C66.9227 3.54719 66.7711 3.52979 66.6262 3.54284ZM67.4831 3.18465C67.5616 3.14404 67.6564 3.09329 67.7525 3.10199C67.6929 3.189 67.3856 3.37897 67.4831 3.18465ZM69.9928 3.33256C69.9806 3.21655 70.2365 3.2528 70.1173 3.08168C70.139 2.84966 69.3593 2.99322 69.5948 3.12374C69.806 3.39202 69.4229 3.02513 69.3945 3.15274C69.3755 3.19335 69.4676 3.24265 69.5556 3.27166C68.8977 3.44858 66.5558 3.67915 67.9555 3.21075C68.122 3.34997 68.3142 3.2267 68.4144 3.2238C68.1897 2.95407 67.965 3.13389 68.3806 2.95117C69.0791 3.02658 71.1502 2.46681 70.5126 3.14259C70.5532 3.33546 70.1254 3.31951 69.9928 3.33256ZM70.736 3.04108C70.6128 3.03818 70.6601 3.00192 70.7644 3.03093C70.7563 3.03528 70.7481 3.03818 70.736 3.04108ZM73.576 1.54015C73.6057 1.57496 73.5489 1.56916 73.5245 1.57931C73.5421 1.56626 73.5584 1.55321 73.576 1.54015ZM73.377 2.17678C73.4203 2.22318 73.4474 2.13762 73.5259 2.14052C73.5029 2.30439 73.5665 2.10137 73.6396 2.08107C73.7194 2.15068 73.6274 2.28699 73.8386 2.29424C73.5624 2.37255 72.7461 2.43346 73.377 2.17533V2.17678ZM73.4027 2.48567C73.3824 2.49292 73.3621 2.50017 73.3418 2.50742C73.3553 2.50162 73.3688 2.49727 73.3824 2.49002C73.3891 2.48857 73.3973 2.48712 73.404 2.48567H73.4027ZM73.316 2.51612C73.1319 2.58283 72.933 2.64953 72.4849 2.65823C72.7313 2.47986 73.0521 2.60313 73.316 2.51612ZM71.3438 2.47551C71.6497 2.69449 71.6226 2.33195 71.7431 2.21593C71.9028 2.19998 71.9069 2.54512 72.0571 2.28699C72.1966 2.11587 72.4159 2.42331 72.6013 2.22463C72.7028 2.13907 72.8233 2.25799 72.6798 2.32905C72.4172 2.41171 72.5458 2.64518 72.2656 2.57558C72.1248 2.59008 72.0788 2.70174 71.8757 2.64083C71.8297 2.49437 71.3898 2.67854 71.2016 2.53497C70.9661 2.34645 71.2422 2.345 71.3451 2.47551H71.3438ZM71.1921 3.03528C71.3072 3.03528 71.429 3.03818 71.5454 3.03528C71.3492 3.26586 70.6412 3.29776 71.1921 3.03528ZM72.6934 3.16289C72.6961 3.14114 72.7989 3.11504 72.822 3.13099C72.8842 3.26876 72.5269 3.27601 72.6934 3.16289ZM72.8585 2.98452C72.6663 3.16289 72.3658 3.02078 72.0612 3.1948C70.9458 3.29196 72.4104 2.85546 71.4182 2.90476C72.0138 2.66259 73.0656 2.796 73.4677 2.70899C73.6748 2.69594 73.7519 2.72204 73.8927 2.72204C73.8331 2.89026 73.3891 2.64518 73.488 2.89606C73.89 2.95262 74.242 2.85691 73.5678 3.04108C73.1428 3.2441 73.201 3.1919 72.8572 2.98452H72.8585ZM73.5516 3.18465C73.6558 3.11359 73.8426 3.16434 73.9996 3.12229C73.9279 3.2441 73.649 3.20785 73.5516 3.18465ZM75.314 3.6835C75.578 3.53849 75.5983 3.54574 75.7865 3.61535C75.6065 3.71541 75.5022 3.69801 75.314 3.6835ZM76.1236 3.66755C76.1723 3.82562 75.957 3.67045 76.0193 3.56894C76.11 3.57474 76.2305 3.63855 76.1236 3.66755ZM76.7083 3.65885C76.8735 3.59504 77.0359 3.6313 77.2092 3.62115C77.2945 3.79952 76.6894 3.6545 76.7083 3.65885ZM76.6542 3.55299C76.6677 3.54429 76.6934 3.53704 76.7137 3.53559C76.6961 3.54429 76.6758 3.55009 76.6542 3.55299ZM80.0451 3.61245C79.3642 3.60955 76.2278 3.77487 78.0255 3.51383C77.7155 3.40217 75.6295 3.45873 76.133 3.35432C76.9182 3.32096 77.6992 3.31226 78.4803 3.30646C78.4153 3.51819 81.2296 3.16144 82.2638 3.21365C83.5877 3.12374 81.2174 3.66175 80.0438 3.61245H80.0451ZM84.5447 2.05351C84.4933 2.04771 84.4391 2.05932 84.4026 2.04626C84.4418 1.99696 84.5054 1.99841 84.5447 2.05351ZM84.2767 2.42331C84.0587 2.22318 84.4445 2.35805 84.6043 2.30149C84.5312 2.34935 84.3444 2.47261 84.2767 2.42331ZM84.5975 1.87224C84.6476 1.8969 84.7017 1.82584 84.7437 1.9288C84.8181 2.15213 84.5623 2.06077 84.5975 1.87224ZM84.8926 1.94475C84.9386 1.9433 84.9535 1.99841 84.963 2.05206C84.8669 2.07962 84.7789 2.01001 84.8926 1.94475ZM89.7157 0.626549C89.7523 0.516336 89.8078 0.514885 89.8633 0.543889C89.9093 0.681655 89.7739 0.648301 89.7157 0.626549ZM93.2474 2.19853C93.2163 2.19563 93.1865 2.19128 93.2474 2.19853C93.2271 2.26959 93.1825 2.24349 93.2474 2.19853ZM93.4017 2.21593C93.372 2.27249 93.3043 2.27539 93.4017 2.21593ZM93.6941 2.55382C93.7618 2.54512 93.7212 2.72349 93.7402 2.7815C93.6535 2.7902 93.5764 2.58718 93.6941 2.55382ZM93.885 2.85111C93.8336 2.82935 93.8647 2.7699 93.885 2.73074C93.9567 2.62778 94.0434 2.90766 93.885 2.85111ZM94.0055 2.25074C94.0488 2.44361 94.3886 2.3711 94.4928 2.54512C94.4184 2.57413 93.5114 2.31745 94.0055 2.25074ZM94.6349 2.62923C94.6065 2.62053 94.6268 2.60023 94.6349 2.57703C94.6349 2.59588 94.6349 2.61328 94.6349 2.62923ZM94.639 2.36385C94.5632 2.19418 94.2803 2.24784 94.5632 2.18838C94.7202 2.06367 94.7337 2.40011 94.639 2.36385ZM93.3151 0.632349C93.4031 0.538088 93.4816 0.487332 93.5534 0.63815C93.4721 0.651201 93.3909 0.768665 93.3151 0.632349ZM94.1341 1.12976C94.015 1.02825 94.2789 0.98184 94.3466 1.0529C94.2749 1.10365 94.2031 1.0471 94.1341 1.12976ZM94.2004 0.816521C94.0664 0.703407 93.2813 0.846974 93.7605 0.596095C93.9595 0.72371 93.973 0.717909 93.9743 0.477181C94.1693 0.420624 94.0691 0.622198 94.0962 0.713559C94.2573 0.427875 94.5645 0.906431 94.2004 0.816521ZM94.593 0.717909C94.5605 0.842624 94.482 0.694706 94.4102 0.715009C94.3249 0.526487 94.6214 0.604796 94.593 0.717909ZM94.7757 0.791868C94.7026 0.835373 94.6525 0.89628 94.6241 1.0413C94.6024 0.72226 94.8217 0.567092 94.459 0.424975C94.6241 0.343766 95.0031 0.651201 94.7757 0.791868ZM95.0329 1.36903C95.1426 1.02099 94.9057 1.29363 94.8529 1.12106C94.8813 0.952836 95.3023 1.20662 95.0329 1.36903ZM95.1168 0.957187C95.0573 0.878878 94.7811 0.880328 94.949 0.746913C95.0289 0.738212 95.213 0.862926 95.1168 0.957187ZM95.4282 1.03985C95.6759 0.683105 95.2874 0.303161 95.7801 0.857125C95.7152 0.922383 95.2725 1.38209 95.4282 1.03985ZM95.7355 1.4633C95.7246 1.55901 95.6096 1.49665 95.6163 1.42849C95.6421 1.32843 95.7653 1.35308 95.7355 1.4633ZM96.017 2.31455C96.6289 1.66777 96.3378 1.52565 95.7571 1.16311C96.0427 0.97894 95.6502 0.356817 95.9588 0.584494C96.216 0.781717 97.1135 1.4981 96.8522 1.57641C96.6059 1.74463 96.3609 0.919483 96.0779 0.838273C96.0482 1.0355 96.2458 0.962988 96.2079 1.16311C95.6637 0.754163 96.5815 1.70837 96.8116 1.83454C96.9768 2.00421 96.8725 1.72868 96.8739 1.65037C96.9511 1.5068 97.2854 1.97376 97.0269 1.89255C96.4123 2.05351 96.7331 2.26379 97.0932 2.55672C97.2962 2.40446 96.8157 2.3218 96.817 2.10717C96.9998 2.17243 97.2705 2.05932 97.3314 2.25364C97.5534 2.99177 95.2752 2.3189 96.017 2.31455ZM95.8559 1.9462C95.8817 1.86064 96.0089 1.97231 96.0116 2.06657C95.9764 2.17823 95.8925 1.99116 95.8559 1.9462ZM96.1294 1.67647C96.1944 1.72143 96.3257 1.76058 96.2472 1.86934C96.1727 1.93315 96.1578 1.74318 96.1294 1.67647ZM96.4908 2.93957C96.8536 2.8192 97.3477 2.80325 97.8526 2.8192C97.9595 3.04833 96.8116 2.89461 96.4908 2.93957ZM112.739 48.4502C112.648 48.485 112.555 48.5155 112.415 48.5633C112.48 48.4415 112.85 48.253 112.739 48.4502ZM113.179 48.1718C113.414 48.1993 113.42 47.7817 113.585 48.0732C113.823 48.1631 113.322 48.4024 113.179 48.1718ZM113.727 48.5227C113.444 48.4256 113.85 48.1515 113.918 48.3792C113.918 48.4879 113.81 48.4937 113.727 48.5227ZM113.772 3.08749C113.807 3.08023 113.843 3.07298 113.884 3.06428C114.271 3.06573 113.956 3.11649 113.772 3.08749ZM114.511 48.3487C114.639 48.3342 114.752 48.2428 114.914 48.295C114.786 48.4241 114.645 48.3806 114.511 48.3487ZM119.915 48.9447C119.855 48.9186 119.764 48.9186 119.762 48.8476C119.81 48.6822 120.208 48.8925 119.915 48.9447ZM119.678 3.2354C119.721 3.16289 120.223 3.17885 120.233 3.32821C120.099 3.34271 119.664 3.33836 119.678 3.2354ZM120.383 3.37462C120.818 3.30791 121.086 3.45148 121.404 3.46453C121.065 3.51528 120.778 3.42682 120.383 3.37462ZM121.922 2.53787C122.125 2.44506 122.733 2.40736 122.893 2.48276C122.964 2.7873 122.125 2.57267 121.922 2.53787ZM129.971 2.8163C130.012 2.8163 130.052 2.8163 130.093 2.81775C130.055 2.81775 130.004 2.84241 129.971 2.8163ZM130.224 2.8221C130.249 2.8221 130.273 2.8221 130.299 2.825C130.48 2.83516 130.664 2.85691 130.855 2.89026C130.647 2.91927 130.425 2.87431 130.224 2.8221ZM132.379 2.62633C133.04 2.65533 133.634 2.67999 134.226 2.70609C133.615 2.80905 132.994 2.67709 132.379 2.62633ZM133.776 47.5265C133.776 47.5265 133.769 47.5236 133.767 47.5221C133.809 47.5192 133.853 47.5163 133.897 47.5134C133.866 47.5323 133.828 47.5395 133.776 47.5265ZM134.211 47.6381C134.04 47.5381 134.14 47.4699 134.276 47.4873C134.247 47.5294 134.25 47.6106 134.211 47.6381ZM135.053 47.1755C134.678 47.3626 133.981 47.3539 133.599 47.2176C133.487 47.1494 133.266 47.4859 133.285 47.2147C133.599 46.9275 134.111 47.1509 134.441 47.1103C133.556 46.7216 135.325 46.9507 135.053 47.1755ZM134.613 46.8014C134.766 46.7985 135.011 46.7477 135.023 46.8898C134.897 46.9797 134.77 46.8289 134.613 46.8014ZM133.577 2.25799C134.109 2.21883 134.628 2.28699 135.156 2.30874C134.621 2.36095 134.104 2.28699 133.577 2.25799ZM138.051 3.79372C138.096 3.80387 138.143 3.81257 138.189 3.82127C137.966 3.92133 138.295 3.79372 138.404 3.86478C137.719 4.00544 136.94 3.74731 138.051 3.79372ZM139.07 3.92858C138.699 3.90248 139.172 3.84592 139.337 3.91263C139.249 3.90828 139.15 3.91698 139.07 3.92858ZM139.925 3.81982C139.988 3.93583 139.7 3.79662 139.617 3.79952C139.717 3.79372 139.82 3.79662 139.925 3.81982ZM139.459 3.93438C139.497 3.94018 139.535 3.94744 139.574 3.95469C139.704 3.97644 139.856 4.00254 140.006 4.02864C139.784 4.0852 139.624 4.06345 139.458 3.93438H139.459ZM140.052 3.85607C140.249 3.90393 140.536 3.88508 140.752 3.95324C140.589 4.01704 139.854 3.89958 140.052 3.85607ZM175.683 12.1786C175.665 12.1786 175.646 12.1771 175.634 12.1626C175.637 12.2148 175.621 12.2584 175.61 12.3033C175.61 12.2801 175.61 12.2569 175.611 12.2337C175.606 12.1264 175.644 12.0365 175.682 12.1786H175.683ZM175.698 11.2461C175.675 11.323 175.669 11.3737 175.663 11.4448C175.642 11.439 175.641 11.3868 175.641 11.3433C175.633 11.2954 175.657 11.2664 175.698 11.2461ZM169.196 2.20578C169.02 2.23914 168.877 2.25944 168.704 2.15503C168.892 2.09992 169.039 2.07092 169.196 2.20578ZM156.576 2.21738C156.284 2.30294 155.987 2.26379 155.691 2.26814C155.983 2.19418 156.28 2.22898 156.576 2.21738ZM153.097 2.06802C153.07 2.09702 153.038 2.09557 153.002 2.08687C153.033 2.07962 153.066 2.07382 153.097 2.06802ZM145.259 1.88384C145.23 1.91865 145.196 1.923 145.161 1.8969C145.189 1.84034 145.223 1.83599 145.259 1.88384ZM145.117 2.28119C145.109 2.27829 145.093 2.28119 145.09 2.27394C145.098 2.27684 145.108 2.27829 145.117 2.28119ZM142.059 3.41232C142.348 3.30211 142.628 3.38332 142.911 3.40072L142.059 3.41232ZM143.823 2.7815C144.427 2.60313 143.041 2.62198 143.517 2.8279C143.08 2.85546 142.762 2.84676 143.378 2.7699C142.228 2.73944 142.992 2.56832 143.705 2.60748C144.884 2.64373 144.706 2.91782 143.822 2.78295L143.823 2.7815ZM145.889 2.85546C145.736 2.92072 145.709 2.71334 145.889 2.85546C145.9 2.825 145.894 2.83951 145.889 2.85546ZM145.028 2.8279C144.596 3.00338 144.783 2.30149 144.836 2.68144C144.982 2.7815 144.986 2.52192 144.874 2.45666C145.332 2.36965 145.813 2.53352 146.287 2.55237C145.858 2.50017 145.58 2.66114 145.242 2.49727C144.574 2.71044 146.357 2.83371 146.382 2.56252C146.966 2.62778 147.505 2.69014 148.095 2.7699C146.859 2.85111 145.734 2.7583 145.029 2.8279H145.028ZM148.653 46.5708C148.653 46.5708 148.648 46.5534 148.645 46.5476C148.653 46.5548 148.657 46.5621 148.653 46.5708ZM151.44 46.6665C151.206 46.6317 150.891 46.6897 150.59 46.6288C150.355 46.4968 151.515 46.5302 151.44 46.6665ZM151.536 46.8275H151.597C151.576 46.8623 151.544 46.913 151.536 46.8275ZM152.554 46.6259C152.569 46.6259 152.584 46.6259 152.6 46.6259C152.577 46.6332 152.564 46.6332 152.554 46.6259ZM175.604 11.0402C175.604 11.0692 175.602 11.0982 175.599 11.1287C175.588 11.1417 175.575 11.1519 175.565 11.1635C175.55 11.104 175.56 11.0808 175.604 11.0402ZM175.638 13.7216C175.625 13.5331 175.598 13.3416 175.587 13.143C175.604 13.0516 175.607 12.9515 175.606 12.85C175.617 12.85 175.628 12.85 175.641 12.8428C175.619 12.821 175.615 12.8123 175.604 12.8138C175.604 12.7848 175.604 12.7558 175.603 12.7282C175.604 12.7311 175.606 12.7326 175.609 12.734C175.649 12.6717 175.657 12.6731 175.606 12.6209C175.604 12.6223 175.603 12.6238 175.602 12.6252C175.606 12.5063 175.576 12.3657 175.683 12.2932C175.575 12.5759 175.786 12.6484 175.728 12.9356C175.701 12.9167 175.676 12.9196 175.656 12.9472C175.682 12.966 175.706 12.9631 175.728 12.9399C175.668 13.1198 175.843 13.839 175.638 13.7187V13.7216ZM175.74 10.3601C175.561 9.98304 175.743 9.40442 175.688 8.95632C175.729 8.94327 175.671 8.88961 175.688 8.84611C175.733 8.88526 175.721 8.78085 175.688 8.8287C175.688 8.74749 175.69 8.66773 175.691 8.58652C175.737 8.60683 175.721 8.53142 175.691 8.57347C175.714 8.3864 175.657 8.15437 175.734 7.99196C175.725 7.98761 175.714 7.98616 175.706 7.98906C175.71 7.82229 175.714 7.65697 175.718 7.4902C175.748 7.4902 175.762 7.47135 175.77 7.43799C175.72 8.32259 175.745 9.55669 175.739 10.3601H175.74ZM175.772 7.32923C175.767 7.29587 175.756 7.26687 175.74 7.25237C175.74 7.30168 175.733 7.34518 175.721 7.38724C175.724 7.25962 175.725 7.13346 175.729 7.00584C175.741 7.00584 175.752 7.00584 175.762 7.01454C175.77 7.02179 175.775 7.02179 175.78 7.01744L175.774 7.32778L175.772 7.32923ZM175.787 6.6723C175.768 6.6462 175.737 6.6549 175.72 6.6781C175.651 6.76656 175.806 6.74336 175.78 6.81442C175.78 6.81152 175.782 6.80862 175.783 6.80572L175.779 6.95073C175.763 6.94638 175.745 6.95509 175.726 6.95218C175.636 6.65925 175.663 6.29961 175.721 5.90081C175.741 6.08353 175.717 6.2126 175.715 6.39242C175.667 6.47798 175.839 6.52584 175.786 6.67085L175.787 6.6723ZM175.793 6.43592V6.46783C175.779 6.45478 175.778 6.44318 175.793 6.43592ZM175.795 6.30686C175.76 6.31121 175.747 6.36052 175.722 6.38662C175.77 6.2155 175.768 6.05453 175.787 5.86456C175.817 6.04583 175.794 6.15024 175.795 6.30686ZM176.511 27.2719C176.479 27.4532 176.459 27.649 176.438 27.8448C176.325 27.4155 176.502 26.1785 176.511 27.2719ZM176.506 44.4115C176.544 44.2244 176.548 44.323 176.543 44.4913C176.532 44.4651 176.52 44.439 176.506 44.4115ZM176.748 40.6947C176.748 40.5613 176.748 40.4293 176.754 40.2959C176.762 40.4337 176.83 40.5511 176.748 40.6947ZM176.892 37.1824C176.892 37.1824 176.899 37.1926 176.901 37.1984C176.901 37.2143 176.901 37.2288 176.901 37.2448C176.9 37.223 176.896 37.2027 176.89 37.1824H176.892Z" fill="url(#paint0_linear_1_2276)"/>
<defs>
<linearGradient id="paint0_linear_1_2276" x1="174.583" y1="-1.65555e-07" x2="139.803" y2="100.421" gradientUnits="userSpaceOnUse">
<stop stop-color="#EEF2F3"/>
<stop offset="1" stop-color="#8399A2"/>
</linearGradient>
</defs>
</svg>
