<svg width="98" height="17" viewBox="0 0 98 17" fill="none" xmlns="http://www.w3.org/2000/svg">
<path d="M0.98 0.928368H4.28V6.89037H9.56V9.86037H4.28V16.3284H0.98V0.928368ZM5.16 0.928368H10.418V3.89837H5.16V0.928368ZM5.16 13.3584H10.418V16.3284H5.16V13.3584ZM12.4406 0.928368H16.0926L26.1246 16.3284H22.5386L12.4406 0.928368ZM20.0306 5.15237L22.4726 0.928368H26.1246L21.8786 7.92437L20.0306 5.15237ZM18.6006 11.9724L16.0926 16.3284H12.4406L16.7746 9.15637L18.6006 11.9724ZM32.8748 3.78837V0.928368H35.5588C36.2922 0.928368 36.9742 1.0677 37.6048 1.34637C38.2502 1.62503 38.8148 2.00637 39.2988 2.49037C39.7828 2.9597 40.1642 3.51704 40.4428 4.16237C40.7215 4.79303 40.8608 5.47504 40.8608 6.20837C40.8608 6.92704 40.7215 7.60904 40.4428 8.25437C40.1642 8.8997 39.7828 9.46437 39.2988 9.94837C38.8148 10.4177 38.2502 10.7917 37.6048 11.0704C36.9742 11.349 36.2922 11.4884 35.5588 11.4884H32.8748V8.62837H35.1188C35.4562 8.62837 35.7715 8.5697 36.0648 8.45237C36.3582 8.32037 36.6148 8.14437 36.8348 7.92437C37.0548 7.70437 37.2235 7.4477 37.3408 7.15437C37.4728 6.86104 37.5388 6.5457 37.5388 6.20837C37.5388 5.87104 37.4728 5.5557 37.3408 5.26237C37.2235 4.96904 37.0548 4.71237 36.8348 4.49237C36.6148 4.27237 36.3582 4.1037 36.0648 3.98637C35.7715 3.85437 35.4562 3.78837 35.1188 3.78837H32.8748ZM31.9948 16.3284H28.6948V0.928368H31.9948V16.3284ZM43.562 0.928368H46.862V16.3284H43.562V0.928368ZM47.742 13.3584H52.868V16.3284H47.742V13.3584ZM57.4511 8.62837C57.4511 9.2297 57.5611 9.8017 57.7811 10.3444C58.0011 10.887 58.2944 11.3637 58.6611 11.7744C59.0424 12.185 59.4897 12.5224 60.0031 12.7864C60.5311 13.0504 61.0884 13.2117 61.6751 13.2704V16.5264C60.6337 16.4677 59.6584 16.2257 58.7491 15.8004C57.8397 15.3604 57.0477 14.7884 56.3731 14.0844C55.6984 13.3657 55.1631 12.5444 54.7671 11.6204C54.3857 10.6817 54.1951 9.68437 54.1951 8.62837C54.1951 7.57237 54.3857 6.58237 54.7671 5.65837C55.1631 4.7197 55.6984 3.89837 56.3731 3.19437C57.0477 2.4757 57.8397 1.9037 58.7491 1.47837C59.6584 1.03837 60.6337 0.789035 61.6751 0.730368V3.96437C61.0884 4.02304 60.5311 4.18437 60.0031 4.44837C59.4897 4.71237 59.0424 5.05704 58.6611 5.48237C58.2944 5.89304 58.0011 6.3697 57.7811 6.91237C57.5611 7.44037 57.4511 8.01237 57.4511 8.62837ZM62.5551 0.730368C63.5964 0.789035 64.5717 1.03837 65.4811 1.47837C66.3904 1.9037 67.1824 2.4757 67.8571 3.19437C68.5317 3.89837 69.0597 4.7197 69.4411 5.65837C69.8371 6.58237 70.0351 7.57237 70.0351 8.62837C70.0351 9.68437 69.8371 10.6817 69.4411 11.6204C69.0597 12.5444 68.5317 13.3657 67.8571 14.0844C67.1824 14.7884 66.3904 15.3604 65.4811 15.8004C64.5717 16.2257 63.5964 16.4677 62.5551 16.5264V13.2704C63.1564 13.2117 63.7137 13.0504 64.2271 12.7864C64.7404 12.5224 65.1877 12.185 65.5691 11.7744C65.9504 11.3637 66.2511 10.887 66.4711 10.3444C66.6911 9.8017 66.8011 9.2297 66.8011 8.62837C66.8011 8.01237 66.6911 7.44037 66.4711 6.91237C66.2511 6.3697 65.9504 5.89304 65.5691 5.48237C65.1877 5.05704 64.7404 4.71237 64.2271 4.44837C63.7137 4.18437 63.1564 4.02304 62.5551 3.96437V0.730368ZM77.1756 3.78837V0.928368H80.1236C80.7836 0.928368 81.3996 1.0457 81.9716 1.28037C82.5583 1.50037 83.0716 1.82304 83.5116 2.24837C83.9516 2.65903 84.2963 3.1577 84.5456 3.74437C84.795 4.33104 84.9196 4.99104 84.9196 5.72437C84.9196 6.2377 84.839 6.71437 84.6776 7.15437C84.5163 7.59437 84.2963 7.9977 84.0176 8.36437C83.739 8.71637 83.409 9.0317 83.0276 9.31037C82.661 9.57437 82.2576 9.79437 81.8176 9.97037L85.2276 16.3284H81.5536L78.3856 10.4104H77.1756V7.66037H79.6836C79.9476 7.66037 80.197 7.60904 80.4316 7.50637C80.6663 7.4037 80.8716 7.26437 81.0476 7.08837C81.2236 6.91237 81.363 6.70704 81.4656 6.47237C81.5683 6.2377 81.6196 5.98837 81.6196 5.72437C81.6196 5.46037 81.5683 5.21104 81.4656 4.97637C81.363 4.7417 81.2236 4.53637 81.0476 4.36037C80.8716 4.18437 80.6663 4.04503 80.4316 3.94237C80.197 3.8397 79.9476 3.78837 79.6836 3.78837H77.1756ZM76.2956 16.3284H72.9956V0.928368H76.2956V16.3284ZM88.1851 0.928368H91.4851V6.89037H96.7651V9.86037H91.4851V16.3284H88.1851V0.928368ZM92.3651 0.928368H97.6231V3.89837H92.3651V0.928368ZM92.3651 13.3584H97.6231V16.3284H92.3651V13.3584Z" fill="#01070F"/>
</svg>
