<svg width="137" height="102" viewBox="0 0 137 102" fill="none" xmlns="http://www.w3.org/2000/svg">
<path fill-rule="evenodd" clip-rule="evenodd" d="M32.1804 20.8604L52.455 0.587497H64.3302V66.1315L51.4032 52.9922V30.5701V19.9153L41.3116 30.0061L46.9824 35.6764L47.0739 36.7739V54.0592L32.1651 39.1517L17.2869 54.0287V35.7526L23.0187 30.0213L12.9576 19.9611V53.0074L0.0610352 66.1315V0.587497H12.988L32.1804 20.8604ZM76.2054 0.328369L136.77 0.450311L127.639 13.1933H89.1171L88.5988 12.6903L76.2054 0.328369ZM85.6414 16.6686V49.3339L72.7144 62.2293V3.77324L85.1384 16.1656L85.6414 16.6686ZM89.1171 52.794H127.624L136.724 65.6742H76.2054L89.1019 52.794H89.1171ZM12.3325 2.08129H1.55496V62.458L2.75924 61.2233V3.28547H13.4606L12.3325 2.08129ZM25.1681 29.9908L18.8113 36.3471V50.3704L20.0156 49.1663V37.5513L26.3724 31.195L25.1681 29.9908ZM52.9124 18.6807V29.061V52.3672L54.1166 53.5714V30.2652V17.4765L52.9124 18.6807ZM62.8363 3.27023V2.06605H53.0953L32.2109 22.9487L33.3847 24.1833L54.2843 3.28547H62.821L62.8363 3.27023ZM79.8639 1.82216L81.0682 3.02634L132.99 3.13304L133.843 1.9441L79.8487 1.8374L79.8639 1.82216ZM75.4431 8.58996L74.2389 7.38578V58.5863L75.4431 57.3821V8.6052V8.58996ZM89.7421 54.2726L79.8487 64.1347H82.2573L90.9464 55.4768H127.7L126.846 54.2726H89.7269H89.7421Z" fill="#01070F"/>
<path d="M25.8388 71.7863H21.5247L17.8356 80.7491L13.9636 73.3563V81.4502L18.2624 89.6966L25.8235 71.7863H25.8388ZM123.172 83.8281L121.023 86.6938C122.532 87.8827 124.743 89.0412 127.929 89.3155V85.8707C126.13 85.5201 124.224 84.636 123.172 83.8281ZM130.047 89.3765C134.179 89.2393 136.953 87.4559 136.953 84.011C136.953 79.8498 133.051 79.1333 130.047 78.5998V82.2429C131.648 82.563 132.898 83.005 132.898 84.0873C132.898 84.9713 131.892 85.8249 130.047 85.9774V89.346V89.3765ZM127.929 78.2035C126.572 77.9292 125.337 77.5329 125.337 76.5726C125.337 75.4293 126.77 75.0025 127.929 74.8958V71.4967C124.788 71.6644 121.282 72.9143 121.282 76.7097C121.282 80.5052 125.383 81.4655 127.929 81.8923V78.2035ZM130.047 75.0178C131.374 75.2769 132.7 75.8714 133.874 76.6488L136.13 73.8136C134.362 72.6094 132.593 71.7711 130.047 71.5424V75.0178ZM102.654 71.7406H101.19V74.9873H102.806C104.986 74.9873 106.145 76.4811 106.145 77.9444C106.145 79.4077 105.245 80.7643 103.218 80.7643H101.19V84.011H102.623C107.654 84.011 110.215 81.3588 110.215 77.9444C110.215 74.53 107.364 71.7406 102.654 71.7406ZM99.0867 71.7406H95.047V89.0412H99.0867V71.7406ZM63.0801 89.0412H67.5466L68.9796 86.3889H72.3028V83.1879H70.9766L72.3028 80.6729V73.021L63.0649 89.0259L63.0801 89.0412ZM74.4217 86.3889H77.7297L79.2236 89.0412H83.6597L74.4217 73.0362V80.6576L75.7785 83.2032H74.4217V86.4042V86.3889ZM41.5402 89.0412V71.7406H37.5158V89.0412H41.5402ZM43.6591 83.6452H44.3146C45.8543 85.5353 47.272 87.273 48.8116 89.0412H53.6593C52.1501 87.1968 50.4275 85.1085 48.8116 83.2489C51.144 82.3191 52.6379 80.2613 52.6379 77.7615C52.6379 74.2099 49.894 71.7558 45.8695 71.7558H43.6744V75.0026H45.8695C48.2628 75.0026 48.6135 76.8774 48.6135 77.7767C48.6135 79.5754 47.1195 80.429 45.8695 80.429H43.6744V83.6757L43.6591 83.6452ZM11.8599 73.3258L7.98791 80.7338L4.37506 71.7711H0L7.48486 89.6814L11.8447 81.4198V73.3411L11.8599 73.3258ZM10.7014 96.5711C10.7014 96.5711 10.6404 96.4949 10.6099 96.4492V95.3822C11.0367 95.4889 11.3873 95.7327 11.6465 96.0986L10.7014 96.5559V96.5711ZM10.0001 96.1595C10.0001 96.1595 9.9544 96.1595 9.93916 96.1595C9.7105 96.1595 9.51232 96.2358 9.32939 96.3729C9.14647 96.5254 9.055 96.7083 9.055 96.9369C9.055 97.2875 9.17695 97.5161 9.4361 97.6381C9.55806 97.6991 9.75623 97.7295 10.0154 97.7448V98.5831H9.9544C9.61903 98.5831 9.34464 98.6594 9.11598 98.8423C8.85683 99.0252 8.71963 99.2843 8.71963 99.6044C8.71963 99.9245 8.84158 100.168 9.08549 100.351C9.29891 100.519 9.58854 100.595 9.90867 100.595C9.93916 100.595 9.96965 100.595 10.0154 100.595V101.495C10.0154 101.495 9.93916 101.495 9.89343 101.495C9.28366 101.495 8.76536 101.342 8.35377 101.037C7.8812 100.687 7.65254 100.229 7.65254 99.6349C7.65254 99.2691 7.75925 98.949 7.95742 98.6898C8.1556 98.4307 8.42999 98.2478 8.78061 98.1411C8.2928 97.9125 8.04889 97.5161 8.04889 96.9522C8.04889 96.4492 8.24706 96.0376 8.65865 95.7327C9.02451 95.4584 9.48184 95.3212 10.0001 95.3212V96.1595ZM10.6099 100.428C11.0977 100.138 11.3416 99.4977 11.3416 98.4917C11.3416 98.2783 11.3416 98.0496 11.3111 97.8058H12.9727V98.5069H12.363C12.363 99.391 12.18 100.092 11.8142 100.61C11.5245 101.022 11.113 101.296 10.6099 101.418V100.428ZM37.6377 99.513L36.9212 100.534C37.4243 100.961 38.1712 101.388 39.2536 101.479V100.245C38.6438 100.123 38.0036 99.8026 37.6377 99.4977V99.513ZM39.8633 101.51C41.2506 101.464 42.1957 100.839 42.1957 99.5892C42.1957 98.0801 40.8695 97.8362 39.8633 97.6381V98.949C40.4121 99.0557 40.8542 99.2233 40.8542 99.6196C40.8542 99.9397 40.5036 100.26 39.8633 100.306V101.51ZM39.2536 97.5161C38.7963 97.4094 38.3542 97.2875 38.3542 96.9217C38.3542 96.4949 38.8725 96.3425 39.2536 96.312V95.0925C38.2017 95.1383 37.0127 95.5803 37.0127 96.9674C37.0127 98.3545 38.4152 98.6746 39.2536 98.827V97.5009V97.5161ZM39.8633 96.3577C40.3207 96.4492 40.7627 96.6625 41.1743 96.9522L41.9213 95.9309C41.3268 95.4889 40.7323 95.184 39.8633 95.123V96.3577ZM60.3667 101.388V95.184H59.0252V101.388H60.3667ZM83.7816 97.9429H80.809V99.1166H82.3487C82.181 99.7111 81.5102 100.184 80.809 100.275V101.495C82.3639 101.388 83.6597 100.29 83.7816 98.7965C83.7816 98.6746 83.7969 98.5527 83.7969 98.446C83.7969 98.3088 83.7969 98.1106 83.7816 97.9429ZM80.1993 100.275C79.2541 100.107 78.5377 99.2538 78.5377 98.3088C78.5377 97.3637 79.2541 96.5254 80.1993 96.3425V95.1078C78.5224 95.2755 77.2114 96.6473 77.2114 98.3088C77.2114 99.9702 78.5224 101.342 80.1993 101.51V100.275ZM80.809 96.3272C81.373 96.4187 81.8609 96.7845 82.1962 97.2418L83.3548 96.5711C82.7908 95.7327 81.8609 95.1688 80.809 95.0925V96.3272ZM101.861 97.8667L103.035 98.888V97.2113L100.535 95.0011V101.403H101.861V97.882V97.8667ZM103.645 99.4215L106.145 101.601V95.2145H104.803V98.7965L103.645 97.7753V99.4367V99.4215ZM123.66 99.5282L122.944 100.549C123.447 100.976 124.194 101.403 125.276 101.495V100.26C124.666 100.138 124.026 99.8178 123.66 99.513V99.5282ZM125.886 101.525C127.273 101.479 128.218 100.854 128.218 99.6044C128.218 98.0954 126.892 97.8515 125.886 97.6533V98.9642C126.435 99.0709 126.877 99.2386 126.877 99.6349C126.877 99.955 126.526 100.275 125.886 100.321V101.525ZM125.276 97.5314C124.819 97.4247 124.377 97.3027 124.377 96.9369C124.377 96.5101 124.895 96.3577 125.276 96.3272V95.1078C124.224 95.1535 123.035 95.5956 123.035 96.9826C123.035 98.3697 124.438 98.6898 125.276 98.8423V97.5161V97.5314ZM125.886 96.3729C126.343 96.4644 126.785 96.6778 127.197 96.9674L127.944 95.9461C127.349 95.5041 126.755 95.1992 125.886 95.1383V96.3729Z" fill="#01070F"/>
</svg>
