<svg width="453" height="73" viewBox="0 0 453 73" fill="none" xmlns="http://www.w3.org/2000/svg">
<path d="M8.316 50.4844L3.564 62.3284H1.602L5.76 52.1584H0.558V50.4844H8.316ZM14.1916 54.7324C14.8036 54.7324 15.3796 54.9004 15.9196 55.2364C16.4716 55.5604 16.9156 56.0104 17.2516 56.5864C17.5876 57.1624 17.7556 57.8044 17.7556 58.5124C17.7556 59.2924 17.5636 59.9824 17.1796 60.5824C16.7956 61.1824 16.2856 61.6504 15.6496 61.9864C15.0136 62.3104 14.3356 62.4724 13.6156 62.4724C12.8116 62.4724 12.0856 62.2804 11.4376 61.8964C10.8016 61.5124 10.2976 60.9664 9.92559 60.2584C9.55359 59.5504 9.36759 58.7224 9.36759 57.7744C9.36759 56.3464 9.87159 55.0144 10.8796 53.7784C11.8996 52.5424 13.2136 51.4084 14.8216 50.3764L15.9916 51.6544C14.9236 52.1824 14.0296 52.8004 13.3096 53.5084C12.5896 54.2044 12.0616 54.9244 11.7256 55.6684C12.3496 55.0444 13.1716 54.7324 14.1916 54.7324ZM13.5436 60.9064C14.2276 60.9064 14.7976 60.6844 15.2536 60.2404C15.7216 59.7964 15.9556 59.2204 15.9556 58.5124C15.9556 57.8284 15.7216 57.2764 15.2536 56.8564C14.7976 56.4244 14.2276 56.2084 13.5436 56.2084C13.1116 56.2084 12.7096 56.3044 12.3376 56.4964C11.9776 56.6764 11.6896 56.9284 11.4736 57.2524C11.2576 57.5644 11.1496 57.9064 11.1496 58.2784V58.6024C11.1496 59.0104 11.2576 59.3944 11.4736 59.7544C11.6896 60.1024 11.9776 60.3844 12.3376 60.6004C12.7096 60.8044 13.1116 60.9064 13.5436 60.9064ZM23.1182 54.5884C23.8982 54.5884 24.5642 54.7624 25.1162 55.1104C25.6802 55.4584 26.1062 55.9264 26.3942 56.5144C26.6822 57.0904 26.8262 57.7384 26.8262 58.4584C26.8262 59.2024 26.6522 59.8804 26.3042 60.4924C25.9682 61.1044 25.5002 61.5904 24.9002 61.9504C24.3122 62.2984 23.6462 62.4724 22.9022 62.4724C22.2902 62.4724 21.6902 62.3584 21.1022 62.1304C20.5142 61.9024 20.0342 61.6084 19.6622 61.2484L20.5982 59.8804C20.8382 60.1564 21.1562 60.3784 21.5522 60.5464C21.9482 60.7144 22.3502 60.7984 22.7582 60.7984C23.4182 60.7984 23.9582 60.5884 24.3782 60.1684C24.8102 59.7364 25.0262 59.1844 25.0262 58.5124C25.0262 57.7804 24.8222 57.1924 24.4142 56.7484C24.0182 56.2924 23.4482 56.0644 22.7042 56.0644C22.3082 56.0644 21.9242 56.1244 21.5522 56.2444C21.1922 56.3524 20.8142 56.5204 20.4182 56.7484H20.4002V50.4844H26.0702V52.1584H21.9122V54.7324C22.2962 54.6364 22.6982 54.5884 23.1182 54.5884ZM42.3034 58.9084H37.2994L35.9134 62.3284H34.1854L39.8734 48.7744H39.9814L45.6694 62.3284H43.6534L42.3034 58.9084ZM41.7094 57.3964L39.8554 52.6444L37.9294 57.3964H41.7094ZM49.7945 62.4904C49.2425 62.4904 48.7145 62.3944 48.2105 62.2024C47.7185 62.0104 47.3165 61.7284 47.0045 61.3564L47.7245 60.3844C48.0245 60.6724 48.3365 60.8944 48.6605 61.0504C48.9965 61.2064 49.3265 61.2844 49.6505 61.2844C50.0465 61.2844 50.3705 61.2064 50.6225 61.0504C50.8745 60.8944 51.0005 60.6544 51.0005 60.3304C51.0005 60.0784 50.9225 59.8744 50.7665 59.7184C50.6105 59.5624 50.4305 59.4484 50.2265 59.3764C50.0345 59.3044 49.7045 59.1964 49.2365 59.0524C47.9645 58.6444 47.3285 57.9184 47.3285 56.8744C47.3285 56.2504 47.5565 55.7164 48.0125 55.2724C48.4805 54.8284 49.1285 54.6064 49.9565 54.6064C50.4845 54.6064 50.9525 54.6724 51.3605 54.8044C51.7685 54.9364 52.1465 55.1464 52.4945 55.4344L51.8285 56.4604C51.6365 56.2564 51.3905 56.0944 51.0905 55.9744C50.8025 55.8544 50.5265 55.7884 50.2625 55.7764C49.9265 55.7764 49.6385 55.8604 49.3985 56.0284C49.1585 56.1844 49.0385 56.4004 49.0385 56.6764C49.0385 56.9044 49.1165 57.0964 49.2725 57.2524C49.4285 57.3964 49.5905 57.5044 49.7585 57.5764C49.9265 57.6364 50.2565 57.7444 50.7485 57.9004C51.3605 58.1044 51.8345 58.3684 52.1705 58.6924C52.5185 59.0164 52.6925 59.4544 52.6925 60.0064C52.6925 60.7264 52.4405 61.3204 51.9365 61.7884C51.4325 62.2564 50.7185 62.4904 49.7945 62.4904ZM59.6621 54.5884C60.3581 54.5884 60.9341 54.7984 61.3901 55.2184C61.8461 55.6264 62.0801 56.1604 62.0921 56.8204V62.3284H60.4001V57.3964C60.3761 56.9764 60.2501 56.6464 60.0221 56.4064C59.7941 56.1664 59.4521 56.0404 58.9961 56.0284C58.5641 56.0284 58.1741 56.1484 57.8261 56.3884C57.4781 56.6284 57.2021 56.9644 56.9981 57.3964C56.8061 57.8284 56.7101 58.3084 56.7101 58.8364V62.3284H55.0361V48.3784H56.6741V56.2264C56.9501 55.7344 57.3461 55.3384 57.8621 55.0384C58.3901 54.7384 58.9901 54.5884 59.6621 54.5884ZM77.8267 51.6364C77.3587 51.3844 76.8607 51.1804 76.3327 51.0244C75.8047 50.8684 75.3067 50.7904 74.8387 50.7904C74.1307 50.7904 73.5667 50.9524 73.1467 51.2764C72.7387 51.5884 72.5347 52.0204 72.5347 52.5724C72.5347 53.1124 72.7747 53.5564 73.2547 53.9044C73.7467 54.2404 74.4427 54.5764 75.3427 54.9124C76.0147 55.1524 76.5787 55.4164 77.0347 55.7044C77.5027 55.9804 77.8867 56.3704 78.1867 56.8744C78.4987 57.3664 78.6547 57.9964 78.6547 58.7644C78.6547 59.4604 78.4807 60.0904 78.1327 60.6544C77.7847 61.2184 77.2867 61.6624 76.6387 61.9864C76.0027 62.3104 75.2527 62.4724 74.3887 62.4724C73.5847 62.4724 72.8107 62.3464 72.0667 62.0944C71.3227 61.8304 70.6687 61.5004 70.1047 61.1044L70.8787 59.7184C71.3227 60.0544 71.8567 60.3424 72.4807 60.5824C73.1047 60.8104 73.6867 60.9244 74.2267 60.9244C74.9227 60.9244 75.5287 60.7444 76.0447 60.3844C76.5727 60.0244 76.8367 59.4904 76.8367 58.7824C76.8367 58.1824 76.6147 57.7084 76.1707 57.3604C75.7387 57.0004 75.1267 56.6644 74.3347 56.3524C73.6027 56.0764 72.9907 55.8064 72.4987 55.5424C72.0187 55.2784 71.6047 54.9184 71.2567 54.4624C70.9087 53.9944 70.7347 53.4124 70.7347 52.7164C70.7347 51.6964 71.0887 50.8744 71.7967 50.2504C72.5167 49.6144 73.4467 49.2784 74.5867 49.2424C75.9907 49.2424 77.2927 49.5904 78.4927 50.2864L77.8267 51.6364ZM83.5692 51.6004V54.8944H85.6032V56.2264H83.5692V62.3284H81.8772V56.2264H80.5092V54.8944H81.8772V51.6004H83.5692ZM96.1109 54.0844H97.9469L98.1629 52.3384C98.2589 51.5704 98.3249 50.9944 98.3609 50.6104H99.9089L99.6929 52.3384C99.5969 53.1064 99.5189 53.6884 99.4589 54.0844H101.313C101.265 54.7684 101.223 55.2604 101.187 55.5604H99.2969L99.0809 57.4144H100.935L100.881 57.9364C100.833 58.2604 100.797 58.5844 100.773 58.9084H98.9009L98.5049 62.3284H96.9749L97.3709 58.9084H95.5529L95.3909 60.2404C95.3309 60.6964 95.2529 61.3924 95.1569 62.3284H93.6089L94.0049 58.9084H92.3309C92.4269 58.2244 92.4869 57.7264 92.5109 57.4144H94.2029L94.4189 55.5604H92.7449C92.7809 55.3444 92.8049 55.1584 92.8169 55.0024C92.8289 54.8344 92.8409 54.6964 92.8529 54.5884L92.9069 54.0844H94.5809L95.0129 50.6104H96.5429L96.1109 54.0844ZM95.9489 55.5604C95.8409 56.4364 95.7629 57.0544 95.7149 57.4144H97.5509L97.7669 55.5604H95.9489ZM106.355 50.4844V62.3284H104.591V52.1584H103.241V50.4844H106.355ZM113.845 62.3824C112.873 62.3824 112.009 62.1424 111.253 61.6624C110.509 61.1704 109.927 60.4684 109.507 59.5564C109.087 58.6444 108.877 57.5764 108.877 56.3524C108.877 54.3964 109.315 52.9084 110.191 51.8884C111.079 50.8564 112.297 50.3464 113.845 50.3584C114.817 50.3584 115.675 50.5984 116.419 51.0784C117.175 51.5584 117.763 52.2544 118.183 53.1664C118.603 54.0784 118.813 55.1404 118.813 56.3524C118.813 57.6004 118.603 58.6804 118.183 59.5924C117.763 60.5044 117.175 61.2004 116.419 61.6804C115.675 62.1604 114.817 62.3944 113.845 62.3824ZM113.827 60.7084C114.847 60.7084 115.627 60.3124 116.167 59.5204C116.719 58.7284 117.001 57.6604 117.013 56.3164C117.001 55.0084 116.719 53.9704 116.167 53.2024C115.627 52.4224 114.847 52.0324 113.827 52.0324C112.819 52.0324 112.045 52.4224 111.505 53.2024C110.965 53.9824 110.689 55.0324 110.677 56.3524C110.689 57.6844 110.965 58.7464 111.505 59.5384C112.045 60.3184 112.819 60.7084 113.827 60.7084ZM125.077 62.3824C124.105 62.3824 123.241 62.1424 122.485 61.6624C121.741 61.1704 121.159 60.4684 120.739 59.5564C120.319 58.6444 120.109 57.5764 120.109 56.3524C120.109 54.3964 120.547 52.9084 121.423 51.8884C122.311 50.8564 123.529 50.3464 125.077 50.3584C126.049 50.3584 126.907 50.5984 127.651 51.0784C128.407 51.5584 128.995 52.2544 129.415 53.1664C129.835 54.0784 130.045 55.1404 130.045 56.3524C130.045 57.6004 129.835 58.6804 129.415 59.5924C128.995 60.5044 128.407 61.2004 127.651 61.6804C126.907 62.1604 126.049 62.3944 125.077 62.3824ZM125.059 60.7084C126.079 60.7084 126.859 60.3124 127.399 59.5204C127.951 58.7284 128.233 57.6604 128.245 56.3164C128.233 55.0084 127.951 53.9704 127.399 53.2024C126.859 52.4224 126.079 52.0324 125.059 52.0324C124.051 52.0324 123.277 52.4224 122.737 53.2024C122.197 53.9824 121.921 55.0324 121.909 56.3524C121.921 57.6844 122.197 58.7464 122.737 59.5384C123.277 60.3184 124.051 60.7084 125.059 60.7084ZM132.637 63.2644L132.115 64.5244H130.747L131.215 63.2644C131.755 61.8124 132.067 60.9724 132.151 60.7444H133.681L132.637 63.2644ZM151.475 61.3564C151.055 61.6324 150.521 61.8904 149.873 62.1304C149.237 62.3584 148.541 62.4724 147.785 62.4724C146.453 62.4724 145.277 62.1784 144.257 61.5904C143.249 61.0024 142.469 60.2104 141.917 59.2144C141.377 58.2184 141.107 57.1204 141.107 55.9204C141.107 54.6364 141.383 53.4844 141.935 52.4644C142.487 51.4324 143.249 50.6284 144.221 50.0524C145.205 49.4644 146.315 49.1704 147.551 49.1704C148.283 49.1704 148.967 49.2664 149.603 49.4584C150.239 49.6504 150.809 49.9024 151.313 50.2144L150.611 51.8524C149.615 51.1804 148.613 50.8444 147.605 50.8444C146.765 50.8444 145.985 51.0664 145.265 51.5104C144.557 51.9544 143.987 52.5604 143.555 53.3284C143.135 54.0844 142.925 54.9184 142.925 55.8304C142.925 56.7664 143.117 57.6124 143.501 58.3684C143.897 59.1244 144.455 59.7184 145.175 60.1504C145.907 60.5704 146.747 60.7804 147.695 60.7804C148.859 60.7804 149.873 60.4504 150.737 59.7904L151.475 61.3564ZM161.651 54.8764V62.3284H159.977V61.1044C159.713 61.4524 159.329 61.7764 158.825 62.0764C158.321 62.3644 157.751 62.5084 157.115 62.5084C156.407 62.5084 155.765 62.3584 155.189 62.0584C154.625 61.7464 154.175 61.2964 153.839 60.7084C153.515 60.1204 153.353 59.4184 153.353 58.6024C153.353 57.7864 153.521 57.0784 153.857 56.4784C154.205 55.8664 154.667 55.3984 155.243 55.0744C155.831 54.7384 156.479 54.5704 157.187 54.5704C157.823 54.5704 158.375 54.7084 158.843 54.9844C159.311 55.2604 159.689 55.6204 159.977 56.0644L160.103 54.8764H161.651ZM157.565 61.1224C158.177 61.1224 158.699 60.9544 159.131 60.6184C159.575 60.2704 159.857 59.8024 159.977 59.2144V57.7384C159.833 57.2104 159.533 56.7844 159.077 56.4604C158.621 56.1244 158.099 55.9564 157.511 55.9564C157.067 55.9564 156.653 56.0644 156.269 56.2804C155.897 56.4964 155.597 56.8024 155.369 57.1984C155.153 57.5824 155.045 58.0204 155.045 58.5124C155.045 58.9924 155.159 59.4304 155.387 59.8264C155.615 60.2224 155.921 60.5404 156.305 60.7804C156.689 61.0084 157.109 61.1224 157.565 61.1224ZM169.191 54.5884C169.887 54.5884 170.463 54.7984 170.919 55.2184C171.375 55.6264 171.609 56.1604 171.621 56.8204V62.3284H169.929V57.3964C169.905 56.9764 169.779 56.6464 169.551 56.4064C169.323 56.1664 168.981 56.0404 168.525 56.0284C167.865 56.0284 167.319 56.2924 166.887 56.8204C166.455 57.3484 166.239 58.0204 166.239 58.8364V62.3284H164.565V54.8764H166.077L166.185 56.3164C166.449 55.7764 166.845 55.3564 167.373 55.0564C167.901 54.7444 168.507 54.5884 169.191 54.5884ZM176.927 51.6004V54.8944H178.961V56.2264H176.927V62.3284H175.235V56.2264H173.867V54.8944H175.235V51.6004H176.927ZM180.353 58.5304C180.353 57.7984 180.527 57.1324 180.875 56.5324C181.235 55.9204 181.727 55.4404 182.351 55.0924C182.987 54.7444 183.701 54.5704 184.493 54.5704C185.285 54.5704 185.987 54.7444 186.599 55.0924C187.223 55.4404 187.703 55.9144 188.039 56.5144C188.387 57.1144 188.561 57.7864 188.561 58.5304C188.561 59.2744 188.387 59.9524 188.039 60.5644C187.703 61.1644 187.223 61.6384 186.599 61.9864C185.975 62.3344 185.261 62.5084 184.457 62.5084C183.677 62.5084 182.975 62.3464 182.351 62.0224C181.727 61.6864 181.235 61.2184 180.875 60.6184C180.527 60.0184 180.353 59.3224 180.353 58.5304ZM182.045 58.5484C182.045 59.0164 182.147 59.4484 182.351 59.8444C182.567 60.2404 182.855 60.5524 183.215 60.7804C183.587 61.0084 183.995 61.1224 184.439 61.1224C185.135 61.1224 185.711 60.8764 186.167 60.3844C186.623 59.8924 186.851 59.2804 186.851 58.5484C186.851 57.8164 186.623 57.2044 186.167 56.7124C185.711 56.2084 185.135 55.9564 184.439 55.9564C183.983 55.9564 183.575 56.0764 183.215 56.3164C182.855 56.5444 182.567 56.8564 182.351 57.2524C182.147 57.6484 182.045 58.0804 182.045 58.5484ZM195.436 54.5884C196.132 54.5884 196.708 54.7984 197.164 55.2184C197.62 55.6264 197.854 56.1604 197.866 56.8204V62.3284H196.174V57.3964C196.15 56.9764 196.024 56.6464 195.796 56.4064C195.568 56.1664 195.226 56.0404 194.77 56.0284C194.11 56.0284 193.564 56.2924 193.132 56.8204C192.7 57.3484 192.484 58.0204 192.484 58.8364V62.3284H190.81V54.8764H192.322L192.43 56.3164C192.694 55.7764 193.09 55.3564 193.618 55.0564C194.146 54.7444 194.752 54.5884 195.436 54.5884ZM201.245 63.2644L200.723 64.5244H199.355L199.823 63.2644C200.363 61.8124 200.675 60.9724 200.759 60.7444H202.289L201.245 63.2644ZM220.73 61.2124C220.334 61.5244 219.71 61.8124 218.858 62.0764C218.018 62.3404 217.238 62.4724 216.518 62.4724C215.162 62.4724 213.968 62.1964 212.936 61.6444C211.904 61.0804 211.106 60.3124 210.542 59.3404C209.99 58.3684 209.714 57.2764 209.714 56.0644C209.714 54.6484 210.014 53.4244 210.614 52.3924C211.214 51.3484 212.024 50.5504 213.044 49.9984C214.064 49.4464 215.18 49.1704 216.392 49.1704C217.124 49.1704 217.814 49.2604 218.462 49.4404C219.11 49.6084 219.692 49.8364 220.208 50.1244L219.632 51.7264C219.248 51.5104 218.762 51.3244 218.174 51.1684C217.598 51.0004 217.076 50.9164 216.608 50.9164C215.6 50.9164 214.706 51.1204 213.926 51.5284C213.158 51.9364 212.564 52.5184 212.144 53.2744C211.724 54.0304 211.514 54.9124 211.514 55.9204C211.514 56.8564 211.724 57.6904 212.144 58.4224C212.564 59.1544 213.158 59.7244 213.926 60.1324C214.694 60.5284 215.57 60.7264 216.554 60.7264C217.01 60.7264 217.454 60.6844 217.886 60.6004C218.318 60.5044 218.678 60.3724 218.966 60.2044V57.6304H216.374V55.9564H220.73V61.2124ZM230.882 58.9084H225.878L224.492 62.3284H222.764L228.452 48.7744H228.56L234.248 62.3284H232.232L230.882 58.9084ZM230.288 57.3964L228.434 52.6444L226.508 57.3964H230.288ZM245.652 54.8404C246.564 54.8884 247.314 55.2004 247.902 55.7764C248.49 56.3524 248.784 57.2224 248.784 58.3864C248.784 59.2024 248.598 59.9224 248.226 60.5464C247.854 61.1584 247.344 61.6324 246.696 61.9684C246.06 62.3044 245.358 62.4724 244.59 62.4724C244.026 62.4724 243.456 62.3524 242.88 62.1124C242.304 61.8724 241.83 61.5604 241.458 61.1764L242.358 59.7364C242.586 60.0244 242.904 60.2704 243.312 60.4744C243.72 60.6784 244.134 60.7804 244.554 60.7804C245.238 60.7804 245.814 60.5524 246.282 60.0964C246.75 59.6404 246.984 59.0344 246.984 58.2784C246.984 57.6064 246.78 57.0724 246.372 56.6764C245.976 56.2684 245.43 56.0644 244.734 56.0644C244.206 56.0644 243.696 56.1544 243.204 56.3344L243.15 56.2624L245.796 52.1584H242.16V50.4844H248.37L245.652 54.8404ZM255.559 62.3824C254.587 62.3824 253.723 62.1424 252.967 61.6624C252.223 61.1704 251.641 60.4684 251.221 59.5564C250.801 58.6444 250.591 57.5764 250.591 56.3524C250.591 54.3964 251.029 52.9084 251.905 51.8884C252.793 50.8564 254.011 50.3464 255.559 50.3584C256.531 50.3584 257.389 50.5984 258.133 51.0784C258.889 51.5584 259.477 52.2544 259.897 53.1664C260.317 54.0784 260.527 55.1404 260.527 56.3524C260.527 57.6004 260.317 58.6804 259.897 59.5924C259.477 60.5044 258.889 61.2004 258.133 61.6804C257.389 62.1604 256.531 62.3944 255.559 62.3824ZM255.541 60.7084C256.561 60.7084 257.341 60.3124 257.881 59.5204C258.433 58.7284 258.715 57.6604 258.727 56.3164C258.715 55.0084 258.433 53.9704 257.881 53.2024C257.341 52.4224 256.561 52.0324 255.541 52.0324C254.533 52.0324 253.759 52.4224 253.219 53.2024C252.679 53.9824 252.403 55.0324 252.391 56.3524C252.403 57.6844 252.679 58.7464 253.219 59.5384C253.759 60.3184 254.533 60.7084 255.541 60.7084ZM265.244 50.4844V62.3284H263.48V52.1584H262.13V50.4844H265.244ZM271.185 50.4844V62.3284H269.421V52.1584H268.071V50.4844H271.185ZM282.077 58.1164V59.4664H280.529V62.3284H278.783V59.4664H273.293V59.4484L280.511 50.3404H280.529V58.1164H282.077ZM278.783 58.1164V54.4264L275.921 58.1164H278.783ZM308.676 49.5664V66.5584H307.146V49.5664H308.676ZM335.047 57.0184C335.047 55.3144 335.335 53.7304 335.911 52.2664C336.499 50.8024 337.213 49.6264 338.053 48.7384L339.367 49.4764C338.611 50.3644 337.993 51.4504 337.513 52.7344C337.033 54.0184 336.793 55.4464 336.793 57.0184C336.793 58.5904 337.033 60.0244 337.513 61.3204C337.993 62.6044 338.611 63.6844 339.367 64.5604L338.053 65.3164C337.213 64.4164 336.499 63.2344 335.911 61.7704C335.335 60.3064 335.047 58.7224 335.047 57.0184ZM348.787 50.4844L344.035 62.3284H342.073L346.231 52.1584H341.029V50.4844H348.787ZM357.611 50.4844L352.859 62.3284H350.897L355.055 52.1584H349.853V50.4844H357.611ZM363.735 62.3824C362.763 62.3824 361.899 62.1424 361.143 61.6624C360.399 61.1704 359.817 60.4684 359.397 59.5564C358.977 58.6444 358.767 57.5764 358.767 56.3524C358.767 54.3964 359.205 52.9084 360.081 51.8884C360.969 50.8564 362.187 50.3464 363.735 50.3584C364.707 50.3584 365.565 50.5984 366.309 51.0784C367.065 51.5584 367.653 52.2544 368.073 53.1664C368.493 54.0784 368.703 55.1404 368.703 56.3524C368.703 57.6004 368.493 58.6804 368.073 59.5924C367.653 60.5044 367.065 61.2004 366.309 61.6804C365.565 62.1604 364.707 62.3944 363.735 62.3824ZM363.717 60.7084C364.737 60.7084 365.517 60.3124 366.057 59.5204C366.609 58.7284 366.891 57.6604 366.903 56.3164C366.891 55.0084 366.609 53.9704 366.057 53.2024C365.517 52.4224 364.737 52.0324 363.717 52.0324C362.709 52.0324 361.935 52.4224 361.395 53.2024C360.855 53.9824 360.579 55.0324 360.567 56.3524C360.579 57.6844 360.855 58.7464 361.395 59.5384C361.935 60.3184 362.709 60.7084 363.717 60.7084ZM374.986 57.0184C374.986 58.7224 374.698 60.3124 374.122 61.7884C373.546 63.2524 372.838 64.4284 371.998 65.3164L370.666 64.5604C371.422 63.6844 372.04 62.6044 372.52 61.3204C373 60.0244 373.24 58.5904 373.24 57.0184C373.24 55.4464 373 54.0184 372.52 52.7344C372.04 51.4504 371.422 50.3704 370.666 49.4944L371.998 48.7384C372.838 49.6384 373.546 50.8204 374.122 52.2844C374.698 53.7364 374.986 55.3144 374.986 57.0184ZM387.49 54.8404C388.402 54.8884 389.152 55.2004 389.74 55.7764C390.328 56.3524 390.622 57.2224 390.622 58.3864C390.622 59.2024 390.436 59.9224 390.064 60.5464C389.692 61.1584 389.182 61.6324 388.534 61.9684C387.898 62.3044 387.196 62.4724 386.428 62.4724C385.864 62.4724 385.294 62.3524 384.718 62.1124C384.142 61.8724 383.668 61.5604 383.296 61.1764L384.196 59.7364C384.424 60.0244 384.742 60.2704 385.15 60.4744C385.558 60.6784 385.972 60.7804 386.392 60.7804C387.076 60.7804 387.652 60.5524 388.12 60.0964C388.588 59.6404 388.822 59.0344 388.822 58.2784C388.822 57.6064 388.618 57.0724 388.21 56.6764C387.814 56.2684 387.268 56.0644 386.572 56.0644C386.044 56.0644 385.534 56.1544 385.042 56.3344L384.988 56.2624L387.634 52.1584H383.998V50.4844H390.208L387.49 54.8404ZM400.799 58.1164V59.4664H399.251V62.3284H397.505V59.4664H392.015V59.4484L399.233 50.3404H399.251V58.1164H400.799ZM397.505 58.1164V54.4264L394.643 58.1164H397.505ZM406.058 54.5884C406.838 54.5884 407.504 54.7624 408.056 55.1104C408.62 55.4584 409.046 55.9264 409.334 56.5144C409.622 57.0904 409.766 57.7384 409.766 58.4584C409.766 59.2024 409.592 59.8804 409.244 60.4924C408.908 61.1044 408.44 61.5904 407.84 61.9504C407.252 62.2984 406.586 62.4724 405.842 62.4724C405.23 62.4724 404.63 62.3584 404.042 62.1304C403.454 61.9024 402.974 61.6084 402.602 61.2484L403.538 59.8804C403.778 60.1564 404.096 60.3784 404.492 60.5464C404.888 60.7144 405.29 60.7984 405.698 60.7984C406.358 60.7984 406.898 60.5884 407.318 60.1684C407.75 59.7364 407.966 59.1844 407.966 58.5124C407.966 57.7804 407.762 57.1924 407.354 56.7484C406.958 56.2924 406.388 56.0644 405.644 56.0644C405.248 56.0644 404.864 56.1244 404.492 56.2444C404.132 56.3524 403.754 56.5204 403.358 56.7484H403.34V50.4844H409.01V52.1584H404.852V54.7324C405.236 54.6364 405.638 54.5884 406.058 54.5884ZM415.174 57.7204V59.1964H411.826V57.7204H415.174ZM424.636 50.4844L419.884 62.3284H417.922L422.08 52.1584H416.878V50.4844H424.636ZM432.651 58.1164V59.4664H431.103V62.3284H429.357V59.4664H423.867V59.4484L431.085 50.3404H431.103V58.1164H432.651ZM429.357 58.1164V54.4264L426.495 58.1164H429.357ZM442.301 58.1164V59.4664H440.753V62.3284H439.007V59.4664H433.517V59.4484L440.735 50.3404H440.753V58.1164H442.301ZM439.007 58.1164V54.4264L436.145 58.1164H439.007ZM443.438 58.5844C443.438 57.7564 443.666 57.0544 444.122 56.4784C444.578 55.8904 445.124 55.4644 445.76 55.2004C445.364 54.9484 445.058 54.6544 444.842 54.3184C444.626 53.9704 444.518 53.5504 444.518 53.0584C444.518 52.5424 444.65 52.0804 444.914 51.6724C445.19 51.2524 445.562 50.9284 446.03 50.7004C446.51 50.4604 447.044 50.3404 447.632 50.3404C448.208 50.3404 448.736 50.4604 449.216 50.7004C449.696 50.9284 450.074 51.2464 450.35 51.6544C450.626 52.0504 450.764 52.4944 450.764 52.9864C450.764 53.5024 450.656 53.9344 450.44 54.2824C450.224 54.6184 449.912 54.9244 449.504 55.2004C450.152 55.4764 450.704 55.9084 451.16 56.4964C451.616 57.0724 451.844 57.7684 451.844 58.5844C451.844 59.2684 451.658 59.9104 451.286 60.5104C450.914 61.0984 450.404 61.5724 449.756 61.9324C449.108 62.2924 448.394 62.4724 447.614 62.4724C446.834 62.4724 446.126 62.2984 445.49 61.9504C444.854 61.5904 444.35 61.1104 443.978 60.5104C443.618 59.9104 443.438 59.2684 443.438 58.5844ZM446.21 53.2564C446.21 53.6284 446.354 53.9464 446.642 54.2104C446.942 54.4744 447.284 54.6064 447.668 54.6064C448.052 54.6064 448.382 54.4744 448.658 54.2104C448.946 53.9464 449.09 53.6284 449.09 53.2564C449.09 52.8364 448.952 52.4884 448.676 52.2124C448.4 51.9364 448.064 51.7984 447.668 51.7984C447.272 51.7984 446.93 51.9364 446.642 52.2124C446.354 52.4884 446.21 52.8364 446.21 53.2564ZM445.22 58.5124C445.22 58.9564 445.328 59.3704 445.544 59.7544C445.76 60.1264 446.048 60.4264 446.408 60.6544C446.78 60.8824 447.182 60.9964 447.614 60.9964C448.058 60.9964 448.466 60.8824 448.838 60.6544C449.222 60.4264 449.528 60.1264 449.756 59.7544C449.984 59.3704 450.098 58.9564 450.098 58.5124C450.098 58.0684 449.99 57.6604 449.774 57.2884C449.558 56.9164 449.258 56.6224 448.874 56.4064C448.502 56.1784 448.094 56.0644 447.65 56.0644C447.218 56.0644 446.816 56.1724 446.444 56.3884C446.072 56.6044 445.772 56.9044 445.544 57.2884C445.328 57.6604 445.22 58.0684 445.22 58.5124Z" fill="#01070F"/>
<path d="M11.814 5.77837C11.374 5.3677 10.89 5.0817 10.362 4.92037C9.84867 4.75904 9.31333 4.67837 8.756 4.67837V1.70837C9.65067 1.70837 10.516 1.83304 11.352 2.08237C12.188 2.3317 12.9433 2.75703 13.618 3.35837L11.814 5.77837ZM7.876 4.76637C7.33333 4.8837 6.842 5.09637 6.402 5.40437C5.962 5.71237 5.588 6.08637 5.28 6.52637C4.972 6.96637 4.73 7.45037 4.554 7.97837C4.39267 8.50637 4.312 9.05637 4.312 9.62837C4.312 10.2004 4.39267 10.7577 4.554 11.3004C4.71533 11.843 4.95 12.3344 5.258 12.7744C5.566 13.2144 5.94 13.5884 6.38 13.8964C6.82 14.1897 7.31867 14.395 7.876 14.5124V17.5264C6.80533 17.4677 5.84467 17.2184 4.994 16.7784C4.14333 16.3384 3.41733 15.7664 2.816 15.0624C2.22933 14.3437 1.77467 13.5224 1.452 12.5984C1.144 11.6744 0.99 10.6844 0.99 9.62837C0.99 8.6017 1.144 7.6337 1.452 6.72437C1.76 5.81504 2.20733 5.00837 2.794 4.30437C3.38067 3.60037 4.09933 3.02837 4.95 2.58837C5.81533 2.1337 6.79067 1.85504 7.876 1.75237V4.76637ZM8.756 14.5784C9.65067 14.5784 10.4207 14.395 11.066 14.0284V11.1024H8.206V8.11037H14.366V15.4364C14.102 15.6857 13.7867 15.935 13.42 16.1844C13.0533 16.419 12.6353 16.639 12.166 16.8444C11.6967 17.035 11.176 17.1964 10.604 17.3284C10.0467 17.4604 9.43067 17.5337 8.756 17.5484V14.5784ZM17.771 1.92837H21.071V7.89037H26.351V10.8604H21.071V17.3284H17.771V1.92837ZM21.951 1.92837H27.209V4.89837H21.951V1.92837ZM21.951 14.3584H27.209V17.3284H21.951V14.3584ZM40.0116 4.89837H29.5396V1.92837H40.0116V4.89837ZM36.4256 5.77837V17.3284H33.1256V5.77837H36.4256ZM54.1655 1.92837H57.4655V17.3284H54.1655V1.92837ZM61.4273 1.57637H61.7573L74.6273 13.6764V17.6804H74.2973L61.4273 5.49237V1.57637ZM71.3273 1.92837H74.6273V12.4664L71.3273 9.32037V1.92837ZM64.7273 17.3284H61.4273V6.70237L64.7273 9.84837V17.3284ZM99.2655 4.89837H88.7935V1.92837H99.2655V4.89837ZM95.6795 5.77837V17.3284H92.3795V5.77837H95.6795ZM104.213 9.62837C104.213 10.2297 104.323 10.8017 104.543 11.3444C104.763 11.887 105.056 12.3637 105.423 12.7744C105.804 13.185 106.251 13.5224 106.765 13.7864C107.293 14.0504 107.85 14.2117 108.437 14.2704V17.5264C107.395 17.4677 106.42 17.2257 105.511 16.8004C104.601 16.3604 103.809 15.7884 103.135 15.0844C102.46 14.3657 101.925 13.5444 101.529 12.6204C101.147 11.6817 100.957 10.6844 100.957 9.62837C100.957 8.57237 101.147 7.58237 101.529 6.65837C101.925 5.7197 102.46 4.89837 103.135 4.19437C103.809 3.4757 104.601 2.9037 105.511 2.47837C106.42 2.03837 107.395 1.78903 108.437 1.73037V4.96437C107.85 5.02304 107.293 5.18437 106.765 5.44837C106.251 5.71237 105.804 6.05704 105.423 6.48237C105.056 6.89304 104.763 7.3697 104.543 7.91237C104.323 8.44037 104.213 9.01237 104.213 9.62837ZM109.317 1.73037C110.358 1.78903 111.333 2.03837 112.243 2.47837C113.152 2.9037 113.944 3.4757 114.619 4.19437C115.293 4.89837 115.821 5.7197 116.203 6.65837C116.599 7.58237 116.797 8.57237 116.797 9.62837C116.797 10.6844 116.599 11.6817 116.203 12.6204C115.821 13.5444 115.293 14.3657 114.619 15.0844C113.944 15.7884 113.152 16.3604 112.243 16.8004C111.333 17.2257 110.358 17.4677 109.317 17.5264V14.2704C109.918 14.2117 110.475 14.0504 110.989 13.7864C111.502 13.5224 111.949 13.185 112.331 12.7744C112.712 12.3637 113.013 11.887 113.233 11.3444C113.453 10.8017 113.563 10.2297 113.563 9.62837C113.563 9.01237 113.453 8.44037 113.233 7.91237C113.013 7.3697 112.712 6.89304 112.331 6.48237C111.949 6.05704 111.502 5.71237 110.989 5.44837C110.475 5.18437 109.918 5.02304 109.317 4.96437V1.73037ZM132.077 11.9164C132.077 12.7377 131.923 13.4857 131.615 14.1604C131.307 14.835 130.889 15.4144 130.361 15.8984C129.833 16.3824 129.217 16.7637 128.513 17.0424C127.809 17.321 127.061 17.4824 126.269 17.5264V14.5564C127.061 14.4537 127.677 14.1384 128.117 13.6104C128.557 13.0824 128.777 12.4444 128.777 11.6964V1.92837H132.077V11.9164ZM125.389 17.5264C124.597 17.4824 123.849 17.321 123.145 17.0424C122.441 16.7637 121.825 16.3824 121.297 15.8984C120.769 15.4144 120.351 14.835 120.043 14.1604C119.735 13.4857 119.581 12.7377 119.581 11.9164V1.92837H122.881V11.6964C122.881 12.4444 123.109 13.0824 123.563 13.6104C124.018 14.1384 124.627 14.4537 125.389 14.5564V17.5264ZM142.823 1.70837C143.835 1.72303 144.781 1.89903 145.661 2.23637C146.541 2.55903 147.311 3.09437 147.971 3.84237L146.101 6.21837C145.763 5.77837 145.331 5.41904 144.803 5.14037C144.275 4.8617 143.615 4.7077 142.823 4.67837V1.70837ZM134.881 9.62837C134.881 8.58704 135.035 7.6117 135.343 6.70237C135.665 5.77837 136.127 4.96437 136.729 4.26037C137.345 3.55637 138.085 2.98437 138.951 2.54437C139.831 2.0897 140.828 1.81837 141.943 1.73037V4.74437C141.371 4.84704 140.85 5.05237 140.381 5.36037C139.926 5.6537 139.537 6.02037 139.215 6.46037C138.892 6.90037 138.643 7.3917 138.467 7.93437C138.291 8.47704 138.203 9.0417 138.203 9.62837C138.203 10.215 138.291 10.7797 138.467 11.3224C138.643 11.865 138.892 12.3564 139.215 12.7964C139.537 13.2364 139.926 13.6104 140.381 13.9184C140.85 14.2117 141.371 14.4097 141.943 14.5124V17.5264C140.828 17.4384 139.831 17.1744 138.951 16.7344C138.085 16.2944 137.345 15.7224 136.729 15.0184C136.127 14.3144 135.665 13.5004 135.343 12.5764C135.035 11.6524 134.881 10.6697 134.881 9.62837ZM142.823 14.5784C143.615 14.5637 144.275 14.417 144.803 14.1384C145.331 13.845 145.763 13.4784 146.101 13.0384L147.971 15.4144C147.311 16.1624 146.541 16.705 145.661 17.0424C144.781 17.365 143.835 17.5337 142.823 17.5484V14.5784ZM160.595 11.1684H154.875V8.08837H160.595V1.92837H163.895V17.3284H160.595V11.1684ZM153.995 17.3284H150.695V1.92837H153.995V17.3284Z" fill="#01070F"/>
</svg>
