<svg width="275" height="13" viewBox="0 0 275 13" fill="none" xmlns="http://www.w3.org/2000/svg">
<path d="M7.62 8.68037C7.34 8.86437 6.984 9.03637 6.552 9.19637C6.128 9.34837 5.664 9.42437 5.16 9.42437C4.272 9.42437 3.488 9.22837 2.808 8.83637C2.136 8.44437 1.616 7.91637 1.248 7.25237C0.888 6.58837 0.708 5.85637 0.708 5.05637C0.708 4.20037 0.892 3.43237 1.26 2.75237C1.628 2.06437 2.136 1.52837 2.784 1.14437C3.44 0.752369 4.18 0.556369 5.004 0.556369C5.492 0.556369 5.948 0.620369 6.372 0.748369C6.796 0.876369 7.176 1.04437 7.512 1.25237L7.044 2.34437C6.38 1.89637 5.712 1.67237 5.04 1.67237C4.48 1.67237 3.96 1.82037 3.48 2.11637C3.008 2.41237 2.628 2.81637 2.34 3.32837C2.06 3.83237 1.92 4.38837 1.92 4.99637C1.92 5.62037 2.048 6.18437 2.304 6.68837C2.568 7.19237 2.94 7.58837 3.42 7.87637C3.908 8.15637 4.468 8.29637 5.1 8.29637C5.876 8.29637 6.552 8.07637 7.128 7.63637L7.62 8.68037ZM8.87203 6.79637C8.87203 6.30837 8.98803 5.86437 9.22003 5.46437C9.46003 5.05637 9.78803 4.73637 10.204 4.50437C10.628 4.27237 11.104 4.15637 11.632 4.15637C12.16 4.15637 12.628 4.27237 13.036 4.50437C13.452 4.73637 13.772 5.05237 13.996 5.45237C14.228 5.85237 14.344 6.30037 14.344 6.79637C14.344 7.29237 14.228 7.74437 13.996 8.15237C13.772 8.55237 13.452 8.86837 13.036 9.10037C12.62 9.33237 12.144 9.44837 11.608 9.44837C11.088 9.44837 10.62 9.34037 10.204 9.12437C9.78803 8.90037 9.46003 8.58837 9.22003 8.18837C8.98803 7.78837 8.87203 7.32437 8.87203 6.79637ZM10 6.80837C10 7.12037 10.068 7.40837 10.204 7.67237C10.348 7.93637 10.54 8.14437 10.78 8.29637C11.028 8.44837 11.3 8.52437 11.596 8.52437C12.06 8.52437 12.444 8.36037 12.748 8.03237C13.052 7.70437 13.204 7.29637 13.204 6.80837C13.204 6.32037 13.052 5.91237 12.748 5.58437C12.444 5.24837 12.06 5.08037 11.596 5.08037C11.292 5.08037 11.02 5.16037 10.78 5.32037C10.54 5.47237 10.348 5.68037 10.204 5.94437C10.068 6.20837 10 6.49637 10 6.80837ZM18.9871 4.15637C19.4511 4.15637 19.8711 4.26837 20.2471 4.49237C20.6231 4.71637 20.9191 5.03237 21.1351 5.44037C21.3511 5.84037 21.4591 6.30437 21.4591 6.83237C21.4591 7.35237 21.3431 7.81237 21.1111 8.21237C20.8791 8.60437 20.5591 8.90837 20.1511 9.12437C19.7431 9.34037 19.2871 9.44837 18.7831 9.44837C18.4231 9.44837 18.0791 9.37237 17.7511 9.22037C17.4231 9.06037 17.1591 8.84837 16.9591 8.58437V11.7164H15.8431V4.27637H16.8151L16.9111 5.11637C17.1671 4.82837 17.4711 4.59637 17.8231 4.42037C18.1831 4.24437 18.5711 4.15637 18.9871 4.15637ZM18.5671 8.54837C18.8791 8.54837 19.1671 8.47637 19.4311 8.33237C19.7031 8.18037 19.9191 7.97637 20.0791 7.72037C20.2391 7.45637 20.3191 7.16437 20.3191 6.84437C20.3191 6.51637 20.2431 6.22037 20.0911 5.95637C19.9471 5.69237 19.7471 5.48437 19.4911 5.33237C19.2351 5.18037 18.9511 5.10437 18.6391 5.10437C18.2151 5.10437 17.8511 5.22437 17.5471 5.46437C17.2511 5.69637 17.0551 6.01237 16.9591 6.41237V7.24037C17.0231 7.62437 17.2031 7.94037 17.4991 8.18837C17.8031 8.42837 18.1591 8.54837 18.5671 8.54837ZM27.532 4.36037L24.328 11.7164H23.224L24.364 9.16037L22.06 4.36037H23.32L24.928 7.90037L26.5 4.36037H27.532ZM29.8137 5.53637C29.9417 5.26437 30.1217 5.02437 30.3537 4.81637C30.5937 4.60837 30.8457 4.44837 31.1097 4.33637C31.3737 4.22437 31.6057 4.16437 31.8057 4.15637L31.7577 5.27237C31.3977 5.25637 31.0697 5.32837 30.7737 5.48837C30.4857 5.64837 30.2577 5.87237 30.0897 6.16037C29.9297 6.44037 29.8497 6.74037 29.8497 7.06037V9.32837H28.7337V4.36037H29.7297L29.8137 5.53637ZM34.3614 4.36037V9.32837H33.2454V4.36037H34.3614ZM33.1614 2.57237C33.1614 2.39637 33.2294 2.24837 33.3654 2.12837C33.5014 2.00837 33.6574 1.94837 33.8334 1.94837C34.0094 1.94837 34.1614 2.00837 34.2894 2.12837C34.4254 2.24837 34.4934 2.39637 34.4934 2.57237C34.4934 2.74837 34.4254 2.89637 34.2894 3.01637C34.1614 3.13637 34.0094 3.19637 33.8334 3.19637C33.6574 3.19637 33.5014 3.13637 33.3654 3.01637C33.2294 2.89637 33.1614 2.74837 33.1614 2.57237ZM41.548 4.36037V9.36437C41.548 9.82037 41.432 10.2324 41.2 10.6004C40.968 10.9684 40.636 11.2604 40.204 11.4764C39.78 11.6924 39.28 11.8004 38.704 11.8004C38.2 11.8004 37.764 11.7164 37.396 11.5484C37.036 11.3804 36.672 11.1324 36.304 10.8044L36.964 10.0364C37.236 10.2924 37.508 10.4844 37.78 10.6124C38.052 10.7484 38.352 10.8164 38.68 10.8164C39.232 10.8164 39.656 10.6844 39.952 10.4204C40.256 10.1564 40.412 9.80037 40.42 9.35237L40.432 8.41637C40.248 8.72837 39.976 8.98037 39.616 9.17237C39.264 9.35637 38.856 9.44837 38.392 9.44837C37.936 9.44837 37.516 9.33237 37.132 9.10037C36.748 8.86837 36.44 8.55237 36.208 8.15237C35.984 7.75237 35.872 7.30837 35.872 6.82037C35.872 6.31637 35.988 5.86437 36.22 5.46437C36.46 5.05637 36.78 4.73637 37.18 4.50437C37.58 4.27237 38.008 4.15637 38.464 4.15637C38.888 4.15637 39.28 4.24037 39.64 4.40837C40 4.57637 40.268 4.79237 40.444 5.05637L40.528 4.36037H41.548ZM38.716 8.52437C39.14 8.52437 39.508 8.40837 39.82 8.17637C40.132 7.94437 40.336 7.64037 40.432 7.26437V6.28037C40.32 5.92037 40.108 5.63237 39.796 5.41637C39.484 5.19237 39.124 5.08037 38.716 5.08037C38.228 5.08037 37.82 5.24037 37.492 5.56037C37.164 5.88037 37 6.28837 37 6.78437C37 7.10437 37.076 7.39637 37.228 7.66037C37.38 7.92437 37.588 8.13637 37.852 8.29637C38.116 8.44837 38.404 8.52437 38.716 8.52437ZM46.5716 4.16837C47.0356 4.16837 47.4196 4.30837 47.7236 4.58837C48.0276 4.86037 48.1836 5.21637 48.1916 5.65637V9.32837H47.0636V6.04037C47.0476 5.76037 46.9636 5.54037 46.8116 5.38037C46.6596 5.22037 46.4316 5.13637 46.1276 5.12837C45.8396 5.12837 45.5796 5.20837 45.3476 5.36837C45.1156 5.52837 44.9316 5.75237 44.7956 6.04037C44.6676 6.32837 44.6036 6.64837 44.6036 7.00037V9.32837H43.4876V0.0283687H44.5796V5.26037C44.7636 4.93237 45.0276 4.66837 45.3716 4.46837C45.7236 4.26837 46.1236 4.16837 46.5716 4.16837ZM51.7284 2.17637V4.37237H53.0844V5.26037H51.7284V9.32837H50.6004V5.26037H49.6884V4.37237H50.6004V2.17637H51.7284ZM62.3575 9.35237C61.6135 9.35237 60.9295 9.17637 60.3055 8.82437C59.6815 8.47237 59.1855 7.98837 58.8175 7.37237C58.4495 6.75637 58.2655 6.07237 58.2655 5.32037C58.2655 4.56037 58.4455 3.87237 58.8055 3.25637C59.1735 2.64037 59.6695 2.15637 60.2935 1.80437C60.9255 1.45237 61.6135 1.27637 62.3575 1.27637C63.1015 1.27637 63.7855 1.45237 64.4095 1.80437C65.0335 2.15637 65.5255 2.64037 65.8855 3.25637C66.2535 3.87237 66.4375 4.56037 66.4375 5.32037C66.4375 6.07237 66.2575 6.75637 65.8975 7.37237C65.5375 7.98837 65.0455 8.47237 64.4215 8.82437C63.8055 9.17637 63.1175 9.35237 62.3575 9.35237ZM62.3455 8.42837C62.9215 8.42837 63.4455 8.29637 63.9175 8.03237C64.3975 7.76037 64.7735 7.38837 65.0455 6.91637C65.3175 6.43637 65.4535 5.90437 65.4535 5.32037C65.4535 4.72837 65.3175 4.19637 65.0455 3.72437C64.7735 3.24437 64.3975 2.86837 63.9175 2.59637C63.4455 2.32437 62.9215 2.18837 62.3455 2.18837C61.7695 2.18837 61.2455 2.32437 60.7735 2.59637C60.3015 2.86837 59.9255 3.24437 59.6455 3.72437C59.3735 4.19637 59.2375 4.72837 59.2375 5.32037C59.2375 5.91237 59.3695 6.44437 59.6335 6.91637C59.8975 7.38837 60.2655 7.76037 60.7375 8.03237C61.2095 8.29637 61.7455 8.42837 62.3455 8.42837ZM64.0735 6.90437C63.8815 7.09637 63.6415 7.25637 63.3535 7.38437C63.0735 7.50437 62.7655 7.56437 62.4295 7.56437C62.0215 7.56437 61.6455 7.46437 61.3015 7.26437C60.9655 7.05637 60.6975 6.78037 60.4975 6.43637C60.3055 6.08437 60.2095 5.70837 60.2095 5.30837C60.2095 4.86837 60.3055 4.47237 60.4975 4.12037C60.6895 3.76837 60.9575 3.49637 61.3015 3.30437C61.6455 3.10437 62.0375 3.00437 62.4775 3.00437C62.7335 3.00437 62.9935 3.04037 63.2575 3.11237C63.5215 3.18437 63.7335 3.28837 63.8935 3.42437L63.4375 4.27637C63.2215 4.08437 62.9295 3.98837 62.5615 3.98837C62.2255 3.98837 61.9415 4.11637 61.7095 4.37237C61.4775 4.62037 61.3615 4.92037 61.3615 5.27237C61.3615 5.63237 61.4735 5.93637 61.6975 6.18437C61.9215 6.42437 62.2135 6.54437 62.5735 6.54437C62.9575 6.54437 63.2855 6.40837 63.5575 6.13637L64.0735 6.90437ZM77.2506 8.20037V9.32837H71.8746L72.2706 8.93237C73.0866 8.11637 73.7226 7.45637 74.1786 6.95237C74.6346 6.44837 75.0146 5.94037 75.3186 5.42837C75.6306 4.90837 75.7866 4.41637 75.7866 3.95237C75.7866 3.46437 75.6426 3.09237 75.3546 2.83637C75.0666 2.58037 74.7146 2.45237 74.2986 2.45237C73.9706 2.45237 73.6946 2.52037 73.4706 2.65637C73.2546 2.79237 73.0946 2.96437 72.9906 3.17237C72.8946 3.38037 72.8466 3.58837 72.8466 3.79637C72.8466 4.30837 73.0026 4.72837 73.3146 5.05637L72.6066 5.70437C72.3426 5.54437 72.1266 5.27637 71.9586 4.90037C71.7986 4.51637 71.7186 4.15637 71.7186 3.82037C71.7186 3.38037 71.8266 2.97237 72.0426 2.59637C72.2666 2.21237 72.5866 1.90837 73.0026 1.68437C73.4186 1.45237 73.9146 1.33637 74.4906 1.33637C74.9786 1.33637 75.4106 1.45237 75.7866 1.68437C76.1706 1.90837 76.4666 2.21237 76.6746 2.59637C76.8826 2.98037 76.9866 3.40037 76.9866 3.85637C76.9866 4.31237 76.8786 4.76837 76.6626 5.22437C76.4466 5.68037 76.1786 6.10837 75.8586 6.50837C75.5466 6.90837 75.1266 7.40437 74.5986 7.99637L74.4186 8.20037H77.2506ZM81.5096 9.36437C80.8616 9.36437 80.2856 9.20437 79.7816 8.88437C79.2856 8.55637 78.8976 8.08837 78.6176 7.48037C78.3376 6.87237 78.1976 6.16037 78.1976 5.34437C78.1976 4.04037 78.4896 3.04837 79.0736 2.36837C79.6656 1.68037 80.4776 1.34037 81.5096 1.34837C82.1576 1.34837 82.7296 1.50837 83.2256 1.82837C83.7296 2.14837 84.1216 2.61237 84.4016 3.22037C84.6816 3.82837 84.8216 4.53637 84.8216 5.34437C84.8216 6.17637 84.6816 6.89637 84.4016 7.50437C84.1216 8.11237 83.7296 8.57637 83.2256 8.89637C82.7296 9.21637 82.1576 9.37237 81.5096 9.36437ZM81.4976 8.24837C82.1776 8.24837 82.6976 7.98437 83.0576 7.45637C83.4256 6.92837 83.6136 6.21637 83.6216 5.32037C83.6136 4.44837 83.4256 3.75637 83.0576 3.24437C82.6976 2.72437 82.1776 2.46437 81.4976 2.46437C80.8256 2.46437 80.3096 2.72437 79.9496 3.24437C79.5896 3.76437 79.4056 4.46437 79.3976 5.34437C79.4056 6.23237 79.5896 6.94037 79.9496 7.46837C80.3096 7.98837 80.8256 8.24837 81.4976 8.24837ZM91.2779 8.20037V9.32837H85.9019L86.2979 8.93237C87.1139 8.11637 87.7499 7.45637 88.2059 6.95237C88.6619 6.44837 89.0419 5.94037 89.3459 5.42837C89.6579 4.90837 89.8139 4.41637 89.8139 3.95237C89.8139 3.46437 89.6699 3.09237 89.3819 2.83637C89.0939 2.58037 88.7419 2.45237 88.3259 2.45237C87.9979 2.45237 87.7219 2.52037 87.4979 2.65637C87.2819 2.79237 87.1219 2.96437 87.0179 3.17237C86.9219 3.38037 86.8739 3.58837 86.8739 3.79637C86.8739 4.30837 87.0299 4.72837 87.3419 5.05637L86.6339 5.70437C86.3699 5.54437 86.1539 5.27637 85.9859 4.90037C85.8259 4.51637 85.7459 4.15637 85.7459 3.82037C85.7459 3.38037 85.8539 2.97237 86.0699 2.59637C86.2939 2.21237 86.6139 1.90837 87.0299 1.68437C87.4459 1.45237 87.9419 1.33637 88.5179 1.33637C89.0059 1.33637 89.4379 1.45237 89.8139 1.68437C90.1979 1.90837 90.4939 2.21237 90.7019 2.59637C90.9099 2.98037 91.0139 3.40037 91.0139 3.85637C91.0139 4.31237 90.9059 4.76837 90.6899 5.22437C90.4739 5.68037 90.2059 6.10837 89.8859 6.50837C89.5739 6.90837 89.1539 7.40437 88.6259 7.99637L88.4459 8.20037H91.2779ZM95.225 4.33637C95.833 4.36837 96.333 4.57637 96.725 4.96037C97.117 5.34437 97.313 5.92437 97.313 6.70037C97.313 7.24437 97.189 7.72437 96.941 8.14037C96.693 8.54837 96.353 8.86437 95.921 9.08837C95.497 9.31237 95.029 9.42437 94.517 9.42437C94.141 9.42437 93.761 9.34437 93.377 9.18437C92.993 9.02437 92.677 8.81637 92.429 8.56037L93.029 7.60037C93.181 7.79237 93.393 7.95637 93.665 8.09237C93.937 8.22837 94.213 8.29637 94.493 8.29637C94.949 8.29637 95.333 8.14437 95.645 7.84037C95.957 7.53637 96.113 7.13237 96.113 6.62837C96.113 6.18037 95.977 5.82437 95.705 5.56037C95.441 5.28837 95.077 5.15237 94.613 5.15237C94.261 5.15237 93.921 5.21237 93.593 5.33237L93.557 5.28437L95.321 2.54837H92.897V1.43237H97.037L95.225 4.33637ZM111.759 0.376369V9.32837H110.607V3.71237L107.415 8.23637H107.391L104.259 3.86837V9.32837H103.131V0.376369H103.143L107.415 6.42437L111.747 0.376369H111.759ZM120.624 8.68037C120.344 8.86437 119.988 9.03637 119.556 9.19637C119.132 9.34837 118.668 9.42437 118.164 9.42437C117.276 9.42437 116.492 9.22837 115.812 8.83637C115.14 8.44437 114.62 7.91637 114.252 7.25237C113.892 6.58837 113.712 5.85637 113.712 5.05637C113.712 4.20037 113.896 3.43237 114.264 2.75237C114.632 2.06437 115.14 1.52837 115.788 1.14437C116.444 0.752369 117.184 0.556369 118.008 0.556369C118.496 0.556369 118.952 0.620369 119.376 0.748369C119.8 0.876369 120.18 1.04437 120.516 1.25237L120.048 2.34437C119.384 1.89637 118.716 1.67237 118.044 1.67237C117.484 1.67237 116.964 1.82037 116.484 2.11637C116.012 2.41237 115.632 2.81637 115.344 3.32837C115.064 3.83237 114.924 4.38837 114.924 4.99637C114.924 5.62037 115.052 6.18437 115.308 6.68837C115.572 7.19237 115.944 7.58837 116.424 7.87637C116.912 8.15637 117.472 8.29637 118.104 8.29637C118.88 8.29637 119.556 8.07637 120.132 7.63637L120.624 8.68037ZM133.329 9.71237L131.301 4.52837L129.081 9.73637L125.625 0.688369H126.981L129.225 7.00037L130.725 3.06437L129.801 0.688369H130.953L133.365 6.86837L135.501 0.688369H136.749L133.329 9.71237ZM138.681 5.53637C138.809 5.26437 138.989 5.02437 139.221 4.81637C139.461 4.60837 139.713 4.44837 139.977 4.33637C140.241 4.22437 140.473 4.16437 140.673 4.15637L140.625 5.27237C140.265 5.25637 139.937 5.32837 139.641 5.48837C139.353 5.64837 139.125 5.87237 138.957 6.16037C138.797 6.44037 138.717 6.74037 138.717 7.06037V9.32837H137.601V4.36037H138.597L138.681 5.53637ZM147.095 4.36037V9.32837H145.979V8.51237C145.803 8.74437 145.547 8.96037 145.211 9.16037C144.875 9.35237 144.495 9.44837 144.071 9.44837C143.599 9.44837 143.171 9.34837 142.787 9.14837C142.411 8.94037 142.111 8.64037 141.887 8.24837C141.671 7.85637 141.563 7.38837 141.563 6.84437C141.563 6.30037 141.675 5.82837 141.899 5.42837C142.131 5.02037 142.439 4.70837 142.823 4.49237C143.215 4.26837 143.647 4.15637 144.119 4.15637C144.543 4.15637 144.911 4.24837 145.223 4.43237C145.535 4.61637 145.787 4.85637 145.979 5.15237L146.063 4.36037H147.095ZM144.371 8.52437C144.779 8.52437 145.127 8.41237 145.415 8.18837C145.711 7.95637 145.899 7.64437 145.979 7.25237V6.26837C145.883 5.91637 145.683 5.63237 145.379 5.41637C145.075 5.19237 144.727 5.08037 144.335 5.08037C144.039 5.08037 143.763 5.15237 143.507 5.29637C143.259 5.44037 143.059 5.64437 142.907 5.90837C142.763 6.16437 142.691 6.45637 142.691 6.78437C142.691 7.10437 142.767 7.39637 142.919 7.66037C143.071 7.92437 143.275 8.13637 143.531 8.29637C143.787 8.44837 144.067 8.52437 144.371 8.52437ZM152.182 4.15637C152.646 4.15637 153.066 4.26837 153.442 4.49237C153.818 4.71637 154.114 5.03237 154.33 5.44037C154.546 5.84037 154.654 6.30437 154.654 6.83237C154.654 7.35237 154.538 7.81237 154.306 8.21237C154.074 8.60437 153.754 8.90837 153.346 9.12437C152.938 9.34037 152.482 9.44837 151.978 9.44837C151.618 9.44837 151.274 9.37237 150.946 9.22037C150.618 9.06037 150.354 8.84837 150.154 8.58437V11.7164H149.038V4.27637H150.01L150.106 5.11637C150.362 4.82837 150.666 4.59637 151.018 4.42037C151.378 4.24437 151.766 4.15637 152.182 4.15637ZM151.762 8.54837C152.074 8.54837 152.362 8.47637 152.626 8.33237C152.898 8.18037 153.114 7.97637 153.274 7.72037C153.434 7.45637 153.514 7.16437 153.514 6.84437C153.514 6.51637 153.438 6.22037 153.286 5.95637C153.142 5.69237 152.942 5.48437 152.686 5.33237C152.43 5.18037 152.146 5.10437 151.834 5.10437C151.41 5.10437 151.046 5.22437 150.742 5.46437C150.446 5.69637 150.25 6.01237 150.154 6.41237V7.24037C150.218 7.62437 150.398 7.94037 150.694 8.18837C150.998 8.42837 151.354 8.54837 151.762 8.54837ZM157.556 9.43637C157.188 9.43637 156.836 9.37237 156.5 9.24437C156.172 9.11637 155.904 8.92837 155.696 8.68037L156.176 8.03237C156.376 8.22437 156.584 8.37237 156.8 8.47637C157.024 8.58037 157.244 8.63237 157.46 8.63237C157.724 8.63237 157.94 8.58037 158.108 8.47637C158.276 8.37237 158.36 8.21237 158.36 7.99637C158.36 7.82837 158.308 7.69237 158.204 7.58837C158.1 7.48437 157.98 7.40837 157.844 7.36037C157.716 7.31237 157.496 7.24037 157.184 7.14437C156.336 6.87237 155.912 6.38837 155.912 5.69237C155.912 5.27637 156.064 4.92037 156.368 4.62437C156.68 4.32837 157.112 4.18037 157.664 4.18037C158.016 4.18037 158.328 4.22437 158.6 4.31237C158.872 4.40037 159.124 4.54037 159.356 4.73237L158.912 5.41637C158.784 5.28037 158.62 5.17237 158.42 5.09237C158.228 5.01237 158.044 4.96837 157.868 4.96037C157.644 4.96037 157.452 5.01637 157.292 5.12837C157.132 5.23237 157.052 5.37637 157.052 5.56037C157.052 5.71237 157.104 5.84037 157.208 5.94437C157.312 6.04037 157.42 6.11237 157.532 6.16037C157.644 6.20037 157.864 6.27237 158.192 6.37637C158.6 6.51237 158.916 6.68837 159.14 6.90437C159.372 7.12037 159.488 7.41237 159.488 7.78037C159.488 8.26037 159.32 8.65637 158.984 8.96837C158.648 9.28037 158.172 9.43637 157.556 9.43637ZM165.999 0.820369V12.1484H164.979V0.820369H165.999ZM176.761 7.04837H173.425L172.501 9.32837H171.349L175.141 0.292369H175.213L179.005 9.32837H177.661L176.761 7.04837ZM176.365 6.04037L175.129 2.87237L173.845 6.04037H176.365ZM181.467 0.0283687V9.32837H180.351V0.0283687H181.467ZM184.526 0.0283687V9.32837H183.41V0.0283687H184.526ZM195.317 9.32837L193.277 6.12437C193.213 6.13237 193.117 6.13637 192.989 6.13637H191.705V9.32837H190.541V0.652369H192.857C193.449 0.652369 193.977 0.756369 194.441 0.964369C194.905 1.17237 195.269 1.48037 195.533 1.88837C195.797 2.28837 195.929 2.77237 195.929 3.34037C195.929 3.87637 195.809 4.36837 195.569 4.81637C195.337 5.26437 194.977 5.60437 194.489 5.83637L196.673 9.32837H195.317ZM192.965 5.00837C193.589 5.00837 194.037 4.84437 194.309 4.51637C194.589 4.18837 194.729 3.81237 194.729 3.38837C194.729 3.13237 194.669 2.88037 194.549 2.63237C194.437 2.38437 194.253 2.18037 193.997 2.02037C193.749 1.85237 193.433 1.76837 193.049 1.76837H191.705V5.00837H192.965ZM199.303 4.36037V9.32837H198.187V4.36037H199.303ZM198.103 2.57237C198.103 2.39637 198.171 2.24837 198.307 2.12837C198.443 2.00837 198.599 1.94837 198.775 1.94837C198.951 1.94837 199.103 2.00837 199.231 2.12837C199.367 2.24837 199.435 2.39637 199.435 2.57237C199.435 2.74837 199.367 2.89637 199.231 3.01637C199.103 3.13637 198.951 3.19637 198.775 3.19637C198.599 3.19637 198.443 3.13637 198.307 3.01637C198.171 2.89637 198.103 2.74837 198.103 2.57237ZM206.489 4.36037V9.36437C206.489 9.82037 206.373 10.2324 206.141 10.6004C205.909 10.9684 205.577 11.2604 205.145 11.4764C204.721 11.6924 204.221 11.8004 203.645 11.8004C203.141 11.8004 202.705 11.7164 202.337 11.5484C201.977 11.3804 201.613 11.1324 201.245 10.8044L201.905 10.0364C202.177 10.2924 202.449 10.4844 202.721 10.6124C202.993 10.7484 203.293 10.8164 203.621 10.8164C204.173 10.8164 204.597 10.6844 204.893 10.4204C205.197 10.1564 205.353 9.80037 205.361 9.35237L205.373 8.41637C205.189 8.72837 204.917 8.98037 204.557 9.17237C204.205 9.35637 203.797 9.44837 203.333 9.44837C202.877 9.44837 202.457 9.33237 202.073 9.10037C201.689 8.86837 201.381 8.55237 201.149 8.15237C200.925 7.75237 200.813 7.30837 200.813 6.82037C200.813 6.31637 200.929 5.86437 201.161 5.46437C201.401 5.05637 201.721 4.73637 202.121 4.50437C202.521 4.27237 202.949 4.15637 203.405 4.15637C203.829 4.15637 204.221 4.24037 204.581 4.40837C204.941 4.57637 205.209 4.79237 205.385 5.05637L205.469 4.36037H206.489ZM203.657 8.52437C204.081 8.52437 204.449 8.40837 204.761 8.17637C205.073 7.94437 205.277 7.64037 205.373 7.26437V6.28037C205.261 5.92037 205.049 5.63237 204.737 5.41637C204.425 5.19237 204.065 5.08037 203.657 5.08037C203.169 5.08037 202.761 5.24037 202.433 5.56037C202.105 5.88037 201.941 6.28837 201.941 6.78437C201.941 7.10437 202.017 7.39637 202.169 7.66037C202.321 7.92437 202.529 8.13637 202.793 8.29637C203.057 8.44837 203.345 8.52437 203.657 8.52437ZM211.513 4.16837C211.977 4.16837 212.361 4.30837 212.665 4.58837C212.969 4.86037 213.125 5.21637 213.133 5.65637V9.32837H212.005V6.04037C211.989 5.76037 211.905 5.54037 211.753 5.38037C211.601 5.22037 211.373 5.13637 211.069 5.12837C210.781 5.12837 210.521 5.20837 210.289 5.36837C210.057 5.52837 209.873 5.75237 209.737 6.04037C209.609 6.32837 209.545 6.64837 209.545 7.00037V9.32837H208.429V0.0283687H209.521V5.26037C209.705 4.93237 209.969 4.66837 210.313 4.46837C210.665 4.26837 211.065 4.16837 211.513 4.16837ZM216.67 2.17637V4.37237H218.026V5.26037H216.67V9.32837H215.542V5.26037H214.63V4.37237H215.542V2.17637H216.67ZM220.79 9.43637C220.422 9.43637 220.07 9.37237 219.734 9.24437C219.406 9.11637 219.138 8.92837 218.93 8.68037L219.41 8.03237C219.61 8.22437 219.818 8.37237 220.034 8.47637C220.258 8.58037 220.478 8.63237 220.694 8.63237C220.958 8.63237 221.174 8.58037 221.342 8.47637C221.51 8.37237 221.594 8.21237 221.594 7.99637C221.594 7.82837 221.542 7.69237 221.438 7.58837C221.334 7.48437 221.214 7.40837 221.078 7.36037C220.95 7.31237 220.73 7.24037 220.418 7.14437C219.57 6.87237 219.146 6.38837 219.146 5.69237C219.146 5.27637 219.298 4.92037 219.602 4.62437C219.914 4.32837 220.346 4.18037 220.898 4.18037C221.25 4.18037 221.562 4.22437 221.834 4.31237C222.106 4.40037 222.358 4.54037 222.59 4.73237L222.146 5.41637C222.018 5.28037 221.854 5.17237 221.654 5.09237C221.462 5.01237 221.278 4.96837 221.102 4.96037C220.878 4.96037 220.686 5.01637 220.526 5.12837C220.366 5.23237 220.286 5.37637 220.286 5.56037C220.286 5.71237 220.338 5.84037 220.442 5.94437C220.546 6.04037 220.654 6.11237 220.766 6.16037C220.878 6.20037 221.098 6.27237 221.426 6.37637C221.834 6.51237 222.15 6.68837 222.374 6.90437C222.606 7.12037 222.722 7.41237 222.722 7.78037C222.722 8.26037 222.554 8.65637 222.218 8.96837C221.882 9.28037 221.406 9.43637 220.79 9.43637ZM233.133 9.32837L231.093 6.12437C231.029 6.13237 230.933 6.13637 230.805 6.13637H229.521V9.32837H228.357V0.652369H230.673C231.265 0.652369 231.793 0.756369 232.257 0.964369C232.721 1.17237 233.085 1.48037 233.349 1.88837C233.613 2.28837 233.745 2.77237 233.745 3.34037C233.745 3.87637 233.625 4.36837 233.385 4.81637C233.153 5.26437 232.793 5.60437 232.305 5.83637L234.489 9.32837H233.133ZM230.781 5.00837C231.405 5.00837 231.853 4.84437 232.125 4.51637C232.405 4.18837 232.545 3.81237 232.545 3.38837C232.545 3.13237 232.485 2.88037 232.365 2.63237C232.253 2.38437 232.069 2.18037 231.813 2.02037C231.565 1.85237 231.249 1.76837 230.865 1.76837H229.521V5.00837H230.781ZM238.179 8.48837C238.595 8.48837 238.999 8.34437 239.391 8.05637L239.907 8.88437C239.643 9.06037 239.355 9.20037 239.043 9.30437C238.739 9.40037 238.443 9.44837 238.155 9.44837C237.603 9.44837 237.119 9.33637 236.703 9.11237C236.295 8.88037 235.979 8.56437 235.755 8.16437C235.531 7.76437 235.419 7.31237 235.419 6.80837C235.419 6.32037 235.539 5.87637 235.779 5.47637C236.027 5.06837 236.363 4.74837 236.787 4.51637C237.211 4.27637 237.675 4.15637 238.179 4.15637C238.827 4.15637 239.367 4.34837 239.799 4.73237C240.239 5.10837 240.539 5.63637 240.699 6.31637L236.763 7.69637C236.907 7.94437 237.099 8.14037 237.339 8.28437C237.587 8.42037 237.867 8.48837 238.179 8.48837ZM238.095 5.04437C237.639 5.04437 237.263 5.20437 236.967 5.52437C236.671 5.84437 236.523 6.25237 236.523 6.74837C236.523 6.86837 236.527 6.96037 236.535 7.02437L239.427 5.95637C239.307 5.68437 239.135 5.46437 238.911 5.29637C238.695 5.12837 238.423 5.04437 238.095 5.04437ZM243.489 9.43637C243.121 9.43637 242.769 9.37237 242.433 9.24437C242.105 9.11637 241.837 8.92837 241.629 8.68037L242.109 8.03237C242.309 8.22437 242.517 8.37237 242.733 8.47637C242.957 8.58037 243.177 8.63237 243.393 8.63237C243.657 8.63237 243.873 8.58037 244.041 8.47637C244.209 8.37237 244.293 8.21237 244.293 7.99637C244.293 7.82837 244.241 7.69237 244.137 7.58837C244.033 7.48437 243.913 7.40837 243.777 7.36037C243.649 7.31237 243.429 7.24037 243.117 7.14437C242.269 6.87237 241.845 6.38837 241.845 5.69237C241.845 5.27637 241.997 4.92037 242.301 4.62437C242.613 4.32837 243.045 4.18037 243.597 4.18037C243.949 4.18037 244.261 4.22437 244.533 4.31237C244.805 4.40037 245.057 4.54037 245.289 4.73237L244.845 5.41637C244.717 5.28037 244.553 5.17237 244.353 5.09237C244.161 5.01237 243.977 4.96837 243.801 4.96037C243.577 4.96037 243.385 5.01637 243.225 5.12837C243.065 5.23237 242.985 5.37637 242.985 5.56037C242.985 5.71237 243.037 5.84037 243.141 5.94437C243.245 6.04037 243.353 6.11237 243.465 6.16037C243.577 6.20037 243.797 6.27237 244.125 6.37637C244.533 6.51237 244.849 6.68837 245.073 6.90437C245.305 7.12037 245.421 7.41237 245.421 7.78037C245.421 8.26037 245.253 8.65637 244.917 8.96837C244.581 9.28037 244.105 9.43637 243.489 9.43637ZM249.312 8.48837C249.728 8.48837 250.132 8.34437 250.524 8.05637L251.04 8.88437C250.776 9.06037 250.488 9.20037 250.176 9.30437C249.872 9.40037 249.576 9.44837 249.288 9.44837C248.736 9.44837 248.252 9.33637 247.836 9.11237C247.428 8.88037 247.112 8.56437 246.888 8.16437C246.664 7.76437 246.552 7.31237 246.552 6.80837C246.552 6.32037 246.672 5.87637 246.912 5.47637C247.16 5.06837 247.496 4.74837 247.92 4.51637C248.344 4.27637 248.808 4.15637 249.312 4.15637C249.96 4.15637 250.5 4.34837 250.932 4.73237C251.372 5.10837 251.672 5.63637 251.832 6.31637L247.896 7.69637C248.04 7.94437 248.232 8.14037 248.472 8.28437C248.72 8.42037 249 8.48837 249.312 8.48837ZM249.228 5.04437C248.772 5.04437 248.396 5.20437 248.1 5.52437C247.804 5.84437 247.656 6.25237 247.656 6.74837C247.656 6.86837 247.66 6.96037 247.668 7.02437L250.56 5.95637C250.44 5.68437 250.268 5.46437 250.044 5.29637C249.828 5.12837 249.556 5.04437 249.228 5.04437ZM254.298 5.53637C254.426 5.26437 254.606 5.02437 254.838 4.81637C255.078 4.60837 255.33 4.44837 255.594 4.33637C255.858 4.22437 256.09 4.16437 256.29 4.15637L256.242 5.27237C255.882 5.25637 255.554 5.32837 255.258 5.48837C254.97 5.64837 254.742 5.87237 254.574 6.16037C254.414 6.44037 254.334 6.74037 254.334 7.06037V9.32837H253.218V4.36037H254.214L254.298 5.53637ZM262.458 4.36037L259.806 9.47237H259.746L256.986 4.36037H258.318L259.818 7.52837L261.21 4.36037H262.458ZM265.87 8.48837C266.286 8.48837 266.69 8.34437 267.082 8.05637L267.598 8.88437C267.334 9.06037 267.046 9.20037 266.734 9.30437C266.43 9.40037 266.134 9.44837 265.846 9.44837C265.294 9.44837 264.81 9.33637 264.394 9.11237C263.986 8.88037 263.67 8.56437 263.446 8.16437C263.222 7.76437 263.11 7.31237 263.11 6.80837C263.11 6.32037 263.23 5.87637 263.47 5.47637C263.718 5.06837 264.054 4.74837 264.478 4.51637C264.902 4.27637 265.366 4.15637 265.87 4.15637C266.518 4.15637 267.058 4.34837 267.49 4.73237C267.93 5.10837 268.23 5.63637 268.39 6.31637L264.454 7.69637C264.598 7.94437 264.79 8.14037 265.03 8.28437C265.278 8.42037 265.558 8.48837 265.87 8.48837ZM265.786 5.04437C265.33 5.04437 264.954 5.20437 264.658 5.52437C264.362 5.84437 264.214 6.25237 264.214 6.74837C264.214 6.86837 264.218 6.96037 264.226 7.02437L267.118 5.95637C266.998 5.68437 266.826 5.46437 266.602 5.29637C266.386 5.12837 266.114 5.04437 265.786 5.04437ZM274.961 0.0283687V9.32837H273.833V8.54837C273.593 8.82837 273.297 9.04837 272.945 9.20837C272.601 9.36837 272.221 9.44837 271.805 9.44837C271.341 9.44837 270.921 9.33637 270.545 9.11237C270.169 8.88837 269.873 8.57637 269.657 8.17637C269.449 7.76837 269.345 7.30037 269.345 6.77237C269.345 6.23637 269.457 5.77237 269.681 5.38037C269.905 4.98037 270.213 4.67637 270.605 4.46837C270.997 4.26037 271.441 4.15637 271.937 4.15637C272.313 4.15637 272.673 4.23637 273.017 4.39637C273.369 4.54837 273.645 4.76037 273.845 5.03237V0.0283687H274.961ZM272.153 8.48837C272.585 8.48837 272.949 8.37237 273.245 8.14037C273.549 7.90837 273.745 7.59637 273.833 7.20437V6.26837C273.737 5.90837 273.533 5.61637 273.221 5.39237C272.909 5.16037 272.553 5.04437 272.153 5.04437C271.849 5.04437 271.569 5.12037 271.313 5.27237C271.057 5.41637 270.853 5.62037 270.701 5.88437C270.549 6.14037 270.473 6.43237 270.473 6.76037C270.473 7.08037 270.549 7.37237 270.701 7.63637C270.853 7.90037 271.057 8.10837 271.313 8.26037C271.569 8.41237 271.849 8.48837 272.153 8.48837Z" fill="#01070F"/>
</svg>
