<svg width="218" height="59" viewBox="0 0 218 59" fill="none" xmlns="http://www.w3.org/2000/svg">
<path d="M215.292 41.0246C215.4 41.0668 215.387 41.2635 215.412 41.3494C215.41 41.1698 215.389 40.9918 215.349 40.8169C215.367 40.8856 215.354 40.9481 215.29 40.9871C215.269 40.3859 215.234 39.783 215.195 39.1786C215.198 39.4691 215.231 39.7674 215.198 40.0501C215.07 38.0027 214.946 35.9568 214.857 33.9406C215.367 30.419 215.152 26.9472 214.881 23.449C214.867 24.222 214.918 25.0123 214.872 25.84C214.792 25.3043 214.854 24.789 214.746 24.3017C214.703 24.2923 214.726 24.436 214.723 24.5141C214.736 24.8624 214.621 24.7796 214.639 24.486C214.622 24.3813 214.645 23.7879 214.594 23.7145C214.509 24.0721 214.631 25.0654 214.611 25.4621L214.585 25.4667C214.548 25.2184 214.573 24.9248 214.529 24.6656C214.474 24.9373 214.543 25.2622 214.497 25.5261C214.45 24.8858 214.469 24.2252 214.394 23.6114C214.335 23.7176 214.404 23.9316 214.382 24.1159C214.262 22.6744 214.162 21.6827 214.024 20.2287C214.037 20.2272 214.047 20.2209 214.055 20.21C214.042 20.2022 214.03 20.2006 214.021 20.2006C214.014 20.0991 214.006 19.9976 213.998 19.8976C214.029 19.8617 214.029 19.8414 213.998 19.8399C214.03 19.654 213.983 19.198 214.129 19.109C214.193 19.1152 214.192 19.0528 214.195 18.9684C214.31 18.439 214.04 17.7581 214.236 17.3302C214.188 17.338 214.198 17.3005 214.165 17.3505C214.139 17.2911 214.269 17.1475 214.193 17.1896C214.198 17.1615 214.203 17.1334 214.208 17.1037C214.213 17.1069 214.216 17.11 214.221 17.1147C214.221 17.035 214.193 16.8289 214.256 16.8008C214.2 16.5103 214.18 16.1105 214.267 15.834C214.213 15.7825 214.274 15.6716 214.267 15.5967C214.285 15.3936 214.476 13.8507 214.297 13.8835C214.238 13.8413 214.307 13.6211 214.302 13.5336C214.303 13.5586 214.305 13.5836 214.308 13.6102C214.323 12.859 214.384 11.975 214.3 11.252C214.3 11.2566 214.3 11.2613 214.298 11.266C214.298 11.2645 214.298 11.2629 214.298 11.2613C214.266 11.4409 214.2 11.5737 214.2 11.7751C214.108 9.75115 214.292 7.6725 214.247 5.6204C213.488 5.19405 210.768 5.06443 207.166 5.10035C207.197 5.01289 207.24 4.96135 207.292 4.95042C205.929 4.49752 200.996 4.84735 197.739 5.02851C197.356 4.90357 195.547 5.18468 196.224 4.98634C195.095 4.84266 196.698 4.82548 197.116 4.81611C195.414 4.48034 193.038 4.65682 191.07 4.60684C189.539 5.02382 184.632 4.7146 187.924 4.68337C187.602 4.65838 187.855 4.58185 187.855 4.35697C187.784 4.48659 187.294 4.41163 187.622 4.63027C186.913 4.52719 186.372 4.65213 185.642 4.5881C185.93 5.87184 182.6 5.49234 181.751 5.45017C181.668 5.50327 181.296 5.5142 181.359 5.33929C181.206 5.20342 180.739 5.68131 180.753 5.33304C180.602 5.57667 180.367 5.32211 180.189 5.33304C179.563 5.28775 179.767 5.11596 179.709 4.66775C179.525 4.65057 179.637 4.75989 179.556 4.85047C179.311 5.06443 179.441 5.02538 179.589 5.19561C179.006 4.95198 178.318 5.02226 178.024 4.74584C177.785 4.87233 177.508 4.74271 177.24 4.70055C177.284 4.52095 177.054 4.4819 177.156 4.68493C176.692 4.73646 177.282 4.21173 176.621 4.3882C176.611 4.21173 176.533 4.06336 176.299 4.02276C176.324 4.19142 176.424 4.47097 176.651 4.52095C176.192 4.63339 175.819 4.43661 175.742 4.00714C175.64 4.85203 173.505 3.82442 172.46 3.84628C172.652 4.3882 177.338 4.92699 176.1 4.8739C167.232 3.12789 169.942 4.35384 176.455 5.07692C175.25 5.46735 172.045 4.87546 171.667 5.10972C170.161 4.99103 168.852 4.86453 167.297 4.80674C164.026 4.78175 160.353 4.83641 156.972 4.34291C158.011 4.30543 158.906 4.47566 159.896 4.49127C158.641 4.22891 157.23 4.28044 155.92 4.0946C156.066 4.16488 155.944 4.25077 156.058 4.33198C156.107 4.39601 155.505 4.53656 155.422 4.56936C155.668 4.85828 155.08 4.68493 154.933 4.75364C154.567 5.041 153.417 4.94417 152.304 4.95667C152.482 5.04412 152.682 5.08317 152.995 5.07536C152.176 5.13314 151.49 5.14251 150.849 5.12846C151.089 5.14564 151.324 5.18624 151.571 5.17218C151.898 5.39707 150.811 5.15188 150.563 5.12533C150.592 5.12377 150.622 5.12377 150.65 5.12377C149.361 5.0816 148.225 4.94261 146.506 4.88795C146.907 5.05662 147.687 5.00352 148.208 5.11752C148.812 5.6001 146.184 4.75989 145.75 5.07692C147.024 5.56886 145.748 5.21435 144.938 5.2612C146.34 5.37208 145.4 5.77345 144.582 5.5673C144.985 5.71879 145.525 5.68287 145.96 5.8078C145.625 5.87964 144.799 5.65319 145.464 5.98116C143.785 5.68443 144.252 5.82811 142.752 5.71723C144.681 6.36846 138.629 5.61727 137.649 5.73597C137.734 5.73909 137.81 5.79375 137.875 5.81249C137.681 5.8078 137.489 5.80156 137.295 5.79687C137.384 5.78594 137.479 5.7672 137.583 5.74221C136.894 5.86559 136.369 5.41425 135.74 5.57979C135.864 5.82186 136.53 5.5267 136.83 5.78594C131.773 5.47828 126.28 5.914 121.38 5.48297C122.286 5.10815 122.646 5.50639 123.787 5.50015C122.95 4.89576 116.753 5.67818 120.485 5.02851C120.472 4.95354 120.482 4.85516 119.875 4.8614C118.933 4.86609 119.711 5.04256 119.147 5.10347C118.968 4.77238 119.147 4.67243 119.502 4.62871C118.517 4.50845 118.174 3.36371 117.582 3.02013C117.957 3.48084 117.268 3.1357 117.105 2.95142C116.325 2.50789 116.357 2.21741 116.291 2.93268C115.794 3.0951 115.462 2.23147 115.156 2.96079C114.772 2.64688 112.992 2.45635 114.043 2.94361C113.815 2.98421 113.505 3.0092 113.376 3.12321C113.334 3.295 113.205 3.4215 113.121 3.33404C113.034 3.2419 112.787 3.26532 112.77 3.37621C113.02 3.61203 114.545 3.33248 114.267 3.71666C114.135 3.6214 113.686 3.70261 114.035 3.74946C114.206 3.68543 114.372 3.88377 114.479 3.65732C114.51 3.5886 114.559 3.58392 114.551 3.67293C114.528 3.90094 115.184 3.80256 115.498 3.9681C115.993 4.04931 115.339 4.21173 115.114 4.03057C114.809 3.81973 114.566 4.31012 114.291 4.09928C113.598 4.35384 115.559 3.99465 115.334 4.45379C114.994 5.24559 114.015 4.15082 113.565 4.55374C112.54 4.40694 110.814 3.51988 109.809 3.08573C109.89 2.77963 109.962 3.12789 110.076 3.17162C110 3.04356 110.008 2.86084 109.865 2.85147C109.595 2.94361 109.452 2.74839 109.239 2.61877C109.247 3.12477 109.204 2.80149 109.048 2.6422C109.201 3.44961 106.958 2.56567 105.858 2.95454C105.736 3.09354 105.97 3.52145 105.96 3.12945C106.047 3.21223 106.251 3.32935 106.345 3.21847C106.424 2.86865 107.256 3.21535 107.584 3.10759C107.399 3.66981 107.163 3.29031 107.07 3.52769C106.945 3.45429 106.736 3.52769 106.782 3.30905C106.838 3.21066 106.899 3.41369 106.958 3.30905C106.639 3.01233 106.698 3.30593 106.715 3.5355C105.983 3.44336 105.153 3.51051 104.319 3.73228C104.182 3.73228 104.335 3.98996 104.225 3.99465C104.107 3.9884 104.228 3.79006 104.138 3.76195C104.005 3.8947 103.977 4.15707 103.758 4.10397C103.38 4.11802 103.031 4.46785 102.735 4.46473C102.855 5.10659 102.612 4.24296 102.135 4.75208C101.981 5.00352 102.601 4.89576 102.507 5.08004C102.466 5.23934 102.342 5.05974 102.301 5.1675C102.336 4.77707 101.887 5.34241 101.606 5.38458C101.92 5.61259 102.032 5.16906 102.219 5.23309C102.245 5.48921 101.303 5.97022 101.28 5.65632C100.424 6.08267 99.335 5.31118 101.499 5.56105C102.481 5.40332 100.923 5.4939 100.945 5.27838C100.766 5.53763 100.572 5.42675 100.484 5.20186C100.08 5.62508 98.4734 5.23778 98.4159 5.57511C102.806 5.72972 93.6475 5.88589 91.8618 5.90463C91.3767 5.8609 91.6168 5.80781 90.8834 5.70942C91.0281 5.64226 90.7946 5.52513 90.7026 5.53763C90.8752 5.30805 92.4077 5.53138 93.0309 5.37365C91.7319 4.69117 92.2597 5.11284 90.673 5.15813C90.0037 5.38302 90.1698 5.03788 90.6039 4.88639C90.5661 5.05818 91.7121 4.52407 91.3784 4.78332C90.7453 5.38146 93.4962 4.19142 93.7839 3.93374C93.2249 3.66356 92.7448 4.42412 92.48 4.2945C91.699 4.05399 93.0374 3.92906 93.2857 3.70729C93.0522 3.21691 92.2252 3.62764 91.7631 3.57454C91.2221 3.37308 92.411 3.32467 92.5935 3.34653C92.6181 3.09822 93.5488 2.83429 93.2265 2.67968C92.4537 2.42824 92.3551 3.07323 91.7483 2.96547C91.1087 2.95767 89.272 3.63701 89.5302 3.75727C90.0004 3.65263 90.7568 3.4621 91.3323 3.24971C90.9311 3.75414 90.5463 3.52457 90.035 3.80256C90.2487 3.87127 90.331 3.95248 90.0317 4.07117C89.7999 4.02588 89.7818 3.99933 89.7127 4.21173C89.4233 4.08835 88.685 3.76976 88.5272 4.18205C90.012 4.27732 86.6264 4.7474 87.8218 4.16644C87.4962 3.96185 87.1361 4.57873 86.6182 4.3351C87.1361 4.59591 86.4718 4.60528 86.166 4.55531C86.2515 4.53344 86.337 4.50064 86.4241 4.44286C84.8637 4.72397 82.9284 4.25077 81.4354 4.68961C82.1572 4.73334 83.864 4.76458 84.3754 4.72553C84.4954 4.72553 84.6138 4.72397 84.7338 4.72241C84.1419 5.02851 84.9015 4.68024 84.8769 4.95667C85.0314 4.99415 85.0183 4.74427 84.8719 4.72241C85.6957 4.73646 86.5113 4.65994 87.3088 4.62714C87.0194 4.90201 86.6017 4.60528 86.3172 4.78175C86.2564 4.82861 86.1298 4.96448 86.0624 4.77395C85.9407 4.66619 85.9621 4.9145 85.8338 4.88327C85.6102 4.78488 85.551 4.87702 85.7006 5.041C85.3734 5.11909 85.0775 5.23465 85.6826 5.26433C85.6941 5.35803 85.5198 5.37209 85.4787 5.29244C85.3932 5.34554 85.0068 5.39863 85.1169 5.22372C85.3669 4.95823 84.5677 5.08785 84.6056 5.18312C84.1156 5.41581 84.2356 5.32055 84.0169 4.98165C83.6436 5.76564 83.2178 5.23622 82.5354 5.43924C81.4304 5.27213 81.6721 5.77969 80.8829 5.6407C81.1756 5.21435 81.8777 5.33617 82.1885 5.31742C82.4417 5.31899 82.8741 5.33148 83.0287 5.21591C82.9415 5.17218 82.126 5.041 82.3167 5.2003C82.0142 5.19249 80.3666 5.37365 81.1213 5.15032C81.7544 4.97697 81.1871 4.9348 80.8944 5.09098C80.582 5.09722 80.3534 5.37677 80.6116 5.55481C81.3975 4.92543 80.8188 5.914 80.1397 5.56105C75.8596 5.41737 69.0046 5.40957 64.1424 6.05143C64.6094 6.08579 67.1679 5.81718 66.2044 6.16544C66.8045 6.57929 67.232 5.90619 68.5902 5.93587C66.0153 6.52151 70.2098 6.10297 71.0895 6.16856C70.8478 6.26227 71.1619 6.40907 71.0714 6.53088C70.514 6.37627 70.1145 6.60584 69.5324 6.59647C69.7166 6.5871 70.1605 6.46841 70.0849 6.29818C69.6919 6.57617 69.5636 6.29194 69.2381 6.51683C69.0194 6.7136 68.7662 6.4403 69.1345 6.40594C69.4074 6.08111 68.531 6.51526 68.3896 6.5137C68.0904 6.4606 68.4143 6.92912 67.8733 6.62458C67.038 6.48715 65.5105 7.15088 64.9876 6.69799C64.4236 6.8604 63.6557 7.11028 63.3565 6.74015C62.924 6.92287 62.4357 6.89164 62.0147 6.7464C61.6859 6.57305 62.2104 6.97285 61.9736 7.03844C61.7714 7.16494 61.8273 6.50746 61.6217 6.89945C61.6645 7.00721 61.6497 7.11496 61.4886 7.10247C61.4162 6.40594 59.8032 7.22116 61.0331 7.00408C61.2978 7.16338 60.377 7.1993 60.1156 7.1462C61.579 6.62146 57.539 7.42731 57.4239 7.18993C57.4321 7.18368 57.3318 7.33361 57.2052 7.1462C57.0687 7.32424 56.3403 7.04 56.7596 7.09935C56.5541 6.97441 56.2811 7.27895 55.9621 7.17743C56.0887 7.09935 56.023 6.91975 56.0953 6.80418C55.8931 7.36172 55.0002 7.2602 54.5036 7.17275C53.8887 7.84897 52.7377 7.12277 51.5604 7.36796C50.679 7.44917 51.5258 7.48353 52.0816 7.53507C50.3831 7.43512 47.4299 8.27532 46.4154 7.54444C46.8824 7.72247 46.8742 7.69436 47.3855 7.49134C47.5911 7.47572 47.9791 7.81149 47.8015 7.50383C47.7604 7.45386 47.8229 7.42419 47.9133 7.40544C49.408 7.76308 50.8352 7.26333 52.3907 7.02595C51.0967 6.67924 50.6577 7.51164 49.4113 7.36328C49.3603 7.18212 49.9408 7.05093 49.9786 6.87915C49.4787 6.74171 49.7533 6.60897 50.2499 6.66207C50.2236 6.44499 49.7648 6.65113 49.704 6.50433C49.8651 6.23103 48.7815 6.12327 49.112 5.91713C49.3159 5.88901 49.1778 6.16544 49.5034 6.02488C49.8898 5.87652 49.3587 5.83748 49.3488 5.72503C50.3716 5.70785 50.5722 6.27632 51.5719 5.90775C49.9753 5.38926 51.8991 5.85622 52.3842 5.56886C51.4995 5.43768 50.5804 5.50015 49.6941 5.24559C50.0904 5.15344 50.4998 5.03788 49.6267 5.04256C48.7125 5.07848 48.599 4.85828 47.892 4.99571C47.6042 4.88639 48.0942 4.83954 48.1715 4.72085C48.0317 4.73803 47.9002 4.74427 47.7736 4.74115C47.5615 4.77551 46.0191 4.45536 46.9695 4.28669C48.2208 4.18518 47.1882 4.0618 46.5502 4.11646C46.5617 4.01026 46.348 4.11959 46.4647 4.1477C46.2164 4.4085 44.5311 4.35853 45.7873 4.51626C47.2836 4.49127 44.5722 4.48971 44.929 4.92231C43.7352 4.04775 44.4488 4.67868 43.7007 4.80518C44.1364 4.28825 43.0676 4.60684 42.6566 4.61153C42.4132 4.70992 41.8706 4.61621 41.8673 4.49127C41.6618 4.23203 41.06 4.7349 40.5568 4.4944C42.6155 4.06805 41.5237 3.86815 40.3365 4.16175C40.4138 4.39445 40.0849 4.29606 40.0274 4.15863C39.8991 4.22734 39.6146 4.25389 39.8235 4.38976C39.8416 4.58342 39.0391 4.60528 38.8385 4.53813C39.2957 4.40382 39.1279 3.96341 38.5459 4.16956C38.4406 4.20079 37.8109 4.03994 38.1397 4.27263C37.7418 4.86609 35.8048 4.26951 34.8709 4.4819C33.8629 4.54125 34.0208 4.38976 34.8512 4.25546C35.0961 4.168 36.4297 4.41163 35.6322 4.08679C34.792 4.03838 35.499 3.29968 34.5322 3.62608C35.0682 3.86971 34.1359 4.09928 33.687 3.99465C34.8627 3.37464 31.7615 4.06961 31.334 4.02588C31.1219 3.915 31.7583 3.915 31.4738 3.80099C31.2584 3.73228 31.0923 3.89938 30.8851 3.91812C30.7207 3.98215 30.4494 3.83848 30.7404 3.78225C31.4343 3.61046 30.8819 3.66669 30.4872 3.66044C32.2466 3.20286 28.8281 3.9556 28.2444 3.75727C27.8005 3.76976 26.8829 4.53969 27.1559 3.96341C26.6856 3.7151 26.5525 4.03525 26.12 3.96654C26.3042 3.92906 25.9622 3.8416 26.1068 3.96185C25.5593 3.81036 25.5725 4.06649 25.3258 4.2617C24.8835 4.43193 24.7158 4.17737 25.2535 4.09772C24.9345 3.96497 24.4576 4.23047 24.1058 4.41944C23.9578 4.41631 23.8098 4.41163 23.6618 4.4085C23.8904 4.16488 24.6089 4.42412 23.9479 4.14457C23.5171 3.91812 23.5089 4.20392 23.3001 4.22734C23.2047 4.17112 23.1586 4.11178 23.2343 4.04775C23.5467 3.87752 22.6111 3.59172 22.7394 3.83067C23.203 3.94623 22.6506 4.21485 22.616 3.97278C22.4976 3.84004 22.4187 3.61203 22.2 3.66512C21.6048 3.78069 22.5815 3.99933 22.0093 4.12427C21.9616 4.15394 21.8958 4.17581 21.8136 4.1555C21.6903 4.03369 22.0668 3.95248 21.636 3.86034C21.5061 3.82286 21.225 3.70261 21.4996 3.60578C20.9816 3.409 20.4209 3.90563 19.8734 4.03213C19.9671 3.68699 19.3735 4.00089 19.3916 4.31324C19.3867 4.31324 19.3817 4.31324 19.3768 4.31324C19.2584 4.09147 19.0512 4.02276 18.8901 3.83691C18.997 3.73228 18.9032 3.68387 18.7849 3.65888C19.071 3.59641 18.599 3.64795 18.5333 3.63545C18.1238 3.63077 18.5135 3.8744 18.2521 3.9353C17.9972 3.90563 18.0433 3.70104 17.6667 3.84941C17.7194 3.61203 17.5599 3.85253 17.499 3.71041C17.4185 3.66044 17.4513 3.44648 17.3987 3.56205C16.6637 3.42306 17.2853 3.88064 16.9581 3.94467C16.1392 3.64951 15.6393 4.04775 14.7169 3.89314C14.9866 3.88064 15.641 3.83535 15.5966 3.62764C15.3845 3.55893 15.1345 3.88533 14.9405 3.77132C14.5558 3.49958 14.2022 4.00402 13.8619 3.81661C13.6958 3.64482 14.2598 3.73228 14.314 3.61515C13.9967 3.50895 12.2982 3.73228 12.9328 3.91344C11.3576 3.49334 8.97176 4.36946 7.83556 3.7479C7.436 3.62296 7.09235 3.77445 6.79144 4.16019C3.21677 4.14926 0.816115 4.18518 0.821048 4.2742C0.934503 5.34241 0.817759 6.46685 1.05782 7.50227C1.04467 6.47934 0.862155 5.44705 0.977255 4.45067C1.01178 6.95567 1.40641 9.43568 1.51822 11.9079C1.44588 11.6939 1.45245 11.4612 1.40148 11.2442C1.42779 12.2093 1.55275 13.3244 1.57084 14.2911C1.65306 14.997 1.80433 15.6388 1.72047 16.3885C1.53467 18.9044 1.90299 21.4968 1.75665 23.9956C1.72869 23.9425 1.75829 23.7598 1.70074 23.7332C1.6695 23.7488 1.6843 23.8098 1.68923 23.8566C1.76487 24.0987 1.64812 24.3407 1.57249 24.5641C1.54782 24.3735 1.51987 24.1846 1.45903 24.0237C1.48041 25.0623 1.51165 26.0586 1.55933 27.1222C1.50507 26.7567 1.50178 26.371 1.45574 25.9665C1.30282 26.3475 1.3538 25.3887 1.25514 25.295C1.30776 25.9196 1.25514 26.7926 1.56098 27.3064C1.56098 27.5438 1.55769 27.7812 1.55604 28.017C1.4952 27.9749 1.46232 27.0659 1.42286 27.5126C1.64319 28.7698 1.59551 30.0285 1.56262 31.3029C1.51329 31.2779 1.44752 31.2732 1.40806 31.3107C1.42286 31.3404 1.49685 31.3716 1.56098 31.3622L1.5544 31.7652C1.53631 31.7495 1.51329 31.7433 1.48534 31.7449C1.48534 31.7449 1.4952 31.7855 1.49849 31.7886C1.49192 31.8042 1.47383 31.8308 1.48369 31.8495C1.48863 31.8292 1.49356 31.8104 1.49849 31.7901C1.49849 31.7901 1.49849 31.7896 1.49849 31.7886C1.51658 31.7917 1.53467 31.7901 1.55275 31.7855L1.5396 32.7116C1.51494 32.9739 1.64155 32.9817 1.59879 33.2675C1.42286 32.8677 1.55111 35.2447 1.54289 35.4992C1.52973 35.4618 1.51658 35.4227 1.50671 35.3821C1.50836 35.379 1.51165 35.3774 1.51329 35.3743C1.50836 35.368 1.50507 35.3649 1.50178 35.3602C1.48205 35.2697 1.47876 35.1713 1.40641 35.0901C1.43765 35.3228 1.43437 35.5492 1.49027 35.771C1.45081 35.7319 1.47712 35.6632 1.39655 35.6367C1.41299 35.8038 1.38175 35.9662 1.44094 36.1255C1.45245 36.1552 1.46725 36.1926 1.42121 36.202C1.32091 36.0833 1.339 35.8038 1.28309 35.632C1.2946 35.6507 1.30776 35.6695 1.31927 35.6882C1.36202 35.5929 1.3801 35.6164 1.27816 35.5383C1.27487 35.543 1.27323 35.5461 1.27158 35.5492C1.2798 35.4727 1.1236 34.9323 1.08907 35.1713C1.16141 35.2853 1.04138 35.3384 1.00356 35.4196C1.02001 35.5398 1.02001 35.6554 1.11537 35.7522C1.06276 35.8256 1.10222 35.8756 1.15484 35.9287C1.16635 35.9396 1.1795 35.9756 1.13675 35.974C1.1236 35.974 1.1088 35.9443 1.094 35.9709C1.12031 36.0536 1.25021 36.0708 1.1943 36.1958C1.23047 36.3832 1.28967 36.5596 1.28967 36.7627C1.20417 36.7283 1.23705 36.6081 1.21074 36.5362C1.19594 36.4675 1.07098 36.4519 1.12688 36.3597C1.12524 36.3566 1.1236 36.3519 1.12195 36.3488C1.12524 36.3457 1.12688 36.3441 1.13017 36.341C1.12524 36.3379 1.11866 36.3347 1.11373 36.3332C1.0085 36.1755 1.13182 35.9209 0.950946 35.8147C0.830914 35.5164 0.824336 35.1322 0.638532 34.8433C0.658264 34.9542 0.600714 35.0682 0.674707 35.1728C0.686217 35.1884 0.712525 35.2197 0.674707 35.2212C0.604002 35.2259 0.622089 35.2712 0.622089 35.3056C0.602358 35.543 0.773364 35.86 0.663197 36.0568C0.61058 35.9318 0.630311 35.7569 0.595781 35.6007C0.421487 35.7475 0.528365 35.4071 0.411621 35.3368C0.423131 35.532 0.428064 36.1614 0.714169 36.1208C0.645109 36.2364 0.775008 36.2863 0.776652 36.3894C0.753632 36.4503 0.873665 36.9345 0.760209 36.7939C0.751988 36.7408 0.799672 36.6674 0.732257 36.6393C0.682928 36.6159 0.686217 36.5893 0.709237 36.5518C0.768431 36.3816 0.528365 36.4628 0.567828 36.1973C0.39189 35.9896 0.646754 36.644 0.633599 36.7018C0.599069 36.7986 0.694438 36.9079 0.677995 36.9954C0.57605 37.139 0.650042 37.3264 0.684572 37.4795C0.684572 37.4795 0.684572 37.4811 0.684572 37.4826C0.684572 37.4826 0.684572 37.481 0.684572 37.4795C0.715814 37.5341 0.834202 37.6372 0.740478 37.6888C0.673062 37.7106 0.694438 37.745 0.699371 37.7778C0.758565 37.9917 0.730612 38.2276 0.779941 38.4509C0.753632 38.4587 0.753632 38.4837 0.779941 38.5196C0.794739 38.935 0.825981 39.3223 0.796384 39.7237C0.781585 39.8143 0.926282 39.7174 0.918061 39.7893C0.906551 39.7955 0.896685 39.8049 0.886819 39.8205C0.895041 39.8314 0.904906 39.8392 0.914772 39.8424C0.850645 40.0329 0.964101 40.2687 0.863799 40.4327C0.839135 40.4077 0.863799 40.3702 0.827625 40.3546C0.807894 40.6513 0.962456 40.9777 0.880242 41.2807C0.983832 41.8008 1.06605 42.3458 1.01507 42.8955C1.03152 43.1563 0.880242 43.4609 1.00521 43.6983C1.14333 43.9497 1.03316 44.2917 1.11209 44.551C1.14004 44.4057 1.1647 44.2683 1.1943 44.1184C1.26007 44.2589 1.16306 44.4182 1.21732 44.5728C1.24692 44.7571 1.35544 44.5759 1.41957 44.5525C1.46561 44.6009 1.40477 44.6775 1.43601 44.7384C1.57577 43.9841 1.67443 43.211 1.75171 42.4255C1.90628 43.642 1.68594 44.8352 1.68759 46.019C1.78295 46.525 1.56426 46.9154 1.66128 47.3636C1.73527 47.6728 1.7254 47.9383 1.62346 48.1273C1.70238 49.6937 1.55111 51.2742 1.91943 52.814C2.13648 52.4033 1.85037 49.8546 2.24006 49.9092C2.18087 50.0061 2.35352 50.0716 2.31735 49.9389C2.5163 50.031 2.45876 50.3512 2.65114 50.4808C2.6462 50.6104 2.67744 50.765 2.67744 50.8978C2.64785 50.8634 2.60345 50.8338 2.60181 50.7869C2.60181 50.7619 2.61661 50.7229 2.57057 50.7229C2.49164 50.7322 2.53604 50.8181 2.50479 50.8587C2.47849 50.8119 2.49493 50.751 2.45547 50.7119C2.36339 50.7416 2.41765 50.8338 2.35516 50.8869C2.39956 50.6979 2.24335 50.5995 2.17101 50.4527C1.93258 52.0332 2.08221 53.7011 2.13319 55.2441C2.16278 55.2222 2.19567 55.2003 2.23678 55.1707C2.23349 55.4065 2.16443 55.1847 2.13483 55.3393C2.1299 55.3659 2.12332 55.4096 2.12003 55.4549C1.97698 55.6376 1.82406 55.7829 1.66292 55.8828C2.17923 55.8281 2.73499 55.7532 3.31049 55.6673C5.51055 55.761 10.8561 55.8563 16.7624 55.9265C16.6341 55.9546 16.5223 55.9796 16.4401 56.0031C15.6673 56.3498 16.45 56.1623 17.453 55.9343C18.0811 55.9421 18.7141 55.9484 19.3505 55.9546C18.7158 56.1608 19.0068 56.2139 20.3519 55.9656C20.5196 55.9671 20.6856 55.9687 20.8534 55.9703C20.3354 56.103 19.8142 56.242 19.3242 56.4653C19.972 56.659 21.9139 56.2295 23.0649 55.989C23.282 55.9906 23.499 55.9921 23.7161 55.9937C23.6963 56.0031 23.6815 56.0109 23.6585 56.0202C23.8196 56.0546 24.0646 56.039 24.354 55.9984C24.6845 56.0015 25.0134 56.0031 25.3406 56.0062C24.2521 56.281 23.1619 56.6215 22.2625 57.2384C23.7029 58.4737 21.2167 58.0114 20.1891 58.3425C20.5541 58.8251 23.5796 58.0395 24.9049 58.0942C25.8766 58.0458 29.7095 56.5575 31.5017 56.0358C35.1636 56.0437 37.9309 56.0265 38.7711 55.9734C39.5324 56.0765 40.2016 56.1983 40.3151 56.4263C40.9218 56.3872 42.0893 56.1389 43.7566 56.47C44.2861 56.5419 44.6692 56.356 43.9687 56.1983C43.7122 56.103 43.9144 55.9796 44.0838 56.0421C45.7445 56.0296 46.9153 55.6642 48.525 55.6564C48.479 55.6876 48.4297 55.7141 48.3754 55.7251C49.653 55.9703 50.5327 55.3065 51.7758 55.141C50.1183 55.9406 53.5516 54.8552 53.5828 55.0223C52.4729 55.4174 51.1921 55.697 50.2943 56.5903C51.4042 58.0177 49.214 57.1025 48.7897 57.8053C50.5837 57.6803 53.0961 57.4976 54.4329 56.9385C54.525 56.6965 54.5234 57.0322 54.4099 57.0681C54.867 56.9729 55.2797 56.8885 55.7204 56.8058C55.6102 56.5403 56.0723 56.5793 55.8766 56.7199C56.1463 56.6855 61.1926 55.9015 60.4231 55.6907C61.066 55.7298 62.0065 55.4721 60.9328 55.5548C59.2671 55.4049 63.733 55.3768 61.9111 55.2113C62.1594 55.1316 63.3828 55.1769 62.3403 54.938C62.7793 55.016 63.3104 54.7615 63.4041 55.2019C63.4979 54.9239 63.4436 54.9302 63.7001 54.9317C63.2808 54.9099 63.0112 54.5866 62.8484 54.8146C62.7481 54.6428 62.2532 54.6693 62.3535 54.5319C62.7908 54.3476 62.878 54.4773 63.0934 54.6584C63.414 54.2399 65.6568 54.4491 65.3247 54.5975C66.4033 54.7662 65.175 54.6006 66.0087 54.4507C65.8837 54.2524 65.4579 54.6006 65.2507 54.3929C66.1468 54.0572 69.3548 54.421 69.5636 53.7464C69.5028 53.5355 69.3121 53.7401 69.2907 53.8401C69.0621 53.7432 68.5409 53.6636 68.3502 53.7698C68.0657 54.0728 66.7207 53.9916 66.3375 53.8042C66.063 53.5106 67.3619 53.3559 67.2731 53.7011C66.5628 53.6495 67.0397 53.8807 67.4787 53.8026C67.676 53.7479 67.3077 53.5824 67.4885 53.4699C68.462 53.4996 69.7264 53.5184 70.6965 53.3559C72.6171 53.1732 72.1879 54.193 73.4228 53.9119C73.7434 54.0212 73.9358 53.3325 74.0262 53.7495C73.9901 53.7948 73.9128 53.8463 74.0558 53.8604C75.0703 53.3325 76.5403 53.4496 77.6946 53.1654C78.1287 53.3466 77.9298 52.6875 77.4809 52.9202C77.2096 53.017 76.8725 52.9343 76.958 52.6547C77.4776 52.4736 78.206 52.4298 78.5776 52.8203C78.9903 52.2721 80.1134 52.686 81.2759 52.3033C77.7423 52.6297 80.9289 51.9082 82.3118 51.7614C82.2296 51.7848 82.1408 51.8255 82.0142 51.8895C82.4532 51.9254 82.0684 52.244 82.6505 52.0847C81.4831 51.4803 85.7483 52.1847 84.6664 52.3393C84.6269 52.1893 83.277 52.0706 83.4644 52.219C83.5105 52.3033 84.0037 52.3127 83.9709 52.408C83.8147 52.4923 83.9462 52.5923 84.0317 52.5673C84.4033 52.5376 84.6499 52.4455 84.9624 52.4892C84.918 52.4782 84.8834 52.4673 84.8538 52.4564C87.4781 52.3424 90.4576 52.5282 93.215 52.8015C93.0769 52.864 93.3416 52.8312 93.2742 52.8093C93.4304 52.864 94.4006 52.8812 94.1013 53.0389C93.9073 53.0904 94.0668 53.1451 94.366 53.1638C93.0522 53.2279 93.2709 52.9811 91.8388 52.7625C93.4699 53.445 94.7508 53.1826 95.8442 53.8541C95.6206 53.9322 95.471 53.9713 95.1043 54.0821C97.3849 53.6683 97.6464 53.926 99.756 54.1883C99.3794 54.2321 98.9289 54.243 98.5359 54.2586C97.5214 53.737 96.9952 54.282 95.9478 54.1462C96.4608 54.1977 96.9722 54.2649 97.4606 54.2945C96.9936 54.3164 96.5151 54.3398 96.0711 54.4413C105.598 56.47 119.244 54.2274 128.756 54.5475C128.342 54.8474 130.478 54.3945 130.202 54.2961C131.382 54.2524 132.267 54.204 133.291 54.2555C131.51 54.7974 133.237 54.9114 133.49 54.4476C133.625 54.4335 133.559 54.546 133.633 54.5928C133.715 54.5241 133.9 54.5007 133.766 54.3632C133.714 54.1899 134.146 54.2071 134.281 54.1821C134.394 54.154 134.472 54.2711 134.332 54.293C134.043 54.3617 134.335 54.8177 134.592 54.5897C134.69 54.5678 135.069 54.7115 134.855 54.4897C135.152 53.9306 136.619 54.4804 137.374 54.2961C137.844 54.5194 136.407 54.5319 136.266 54.5163C136.923 54.7958 136.652 55.4096 137.182 55.1628C136.706 54.8443 138.152 54.5147 137.466 55.027C138.037 55.191 138.724 54.7677 139.252 54.8005C139.041 55.1238 139.194 55.066 139.541 54.9161C139.969 54.9208 139.487 55.0988 139.375 55.18C140.008 55.1816 139.579 55.1394 139.334 55.3909C140.182 54.9895 141.166 55.3549 141.804 54.7693C141.973 54.585 142.06 54.8552 141.975 54.9786C142.103 54.9911 142.246 54.977 142.351 55.1254C142.382 54.6397 143.007 55.269 143.068 54.7646C143.114 54.6647 143.219 54.5866 143.346 54.6287C143.616 54.7224 143.237 54.7724 143.182 54.8364C143.742 55.0801 143.884 54.1524 144.308 54.4757C144.191 54.7662 143.594 54.5553 144.025 54.8177C144.3 55.0535 144.31 54.7693 144.444 54.7506C144.536 54.9551 144.415 55.2862 144.799 55.2394C144.895 55.1363 144.485 55.0004 144.772 54.9286C144.987 54.9661 145.077 55.7032 145.27 55.1785C145.145 55.0629 145.081 54.9645 145.276 54.888C145.6 54.7568 145.211 55.1082 145.511 55.1628C145.798 55.205 145.485 55.533 145.706 55.4877C146.133 55.3987 146.306 55.1956 146.651 55.0364C146.6 55.4143 147.024 54.9832 146.968 54.7412C147.151 54.9661 147.2 55.4721 147.508 55.4736C147.804 55.5033 147.468 55.0832 147.799 55.1956C147.784 55.4721 148.017 55.2362 148.142 55.294C148.179 55.4002 148.152 55.647 148.386 55.6001C148.692 55.5377 148.32 55.3221 148.499 55.2191C149.037 55.4892 149.321 55.1988 149.898 55.319C149.619 55.2987 149.15 55.6782 149.561 55.5267C149.634 55.458 149.778 55.394 149.829 55.4486C150.069 55.7344 150.313 55.2441 150.527 55.4424C150.601 55.5595 150.441 55.5548 150.341 55.5689C149.994 55.6767 150.704 55.7563 150.76 55.6204C150.898 55.4034 151.538 55.7344 151.128 55.3784C152.079 55.8281 153.836 55.1051 154.412 55.7454C155.325 55.33 155.754 55.9453 156.721 55.786C156.821 55.9843 157.169 55.8906 157.283 56.0655C157.454 55.9593 157.192 55.7969 157.386 55.7579C157.704 55.7141 157.401 56.0046 157.595 56.0421C157.827 56.0343 157.576 55.6892 157.867 55.7501C158.036 55.8766 157.832 56.1436 158.258 56.0702C158.955 56.0952 158.774 55.8203 158.192 55.8797C158.942 55.6407 160.062 55.7907 160.7 55.7313C160.881 55.6829 161.182 55.7219 161.285 55.8281C161.15 55.9406 160.785 55.7782 160.726 55.9609C161.201 56.0312 161.859 55.9999 162.278 55.9422C161.912 55.5533 162.698 55.9421 162.538 55.3534C162.694 55.305 163.076 55.6532 163.084 55.4018C162.643 55.3706 162.878 55.0535 163.188 55.2191C163.391 55.3409 163.393 55.0285 163.638 55.1488C163.97 55.0145 163.291 55.052 163.659 54.8161C163.378 54.8521 163.118 54.7193 162.947 54.5553C162.982 54.7912 162.651 54.6631 162.599 54.5241C162.76 54.3914 163.125 54.4944 163.344 54.3835C163.796 54.0384 162.538 54.2196 162.408 53.965C162.911 53.8885 163.719 54.1102 163.931 53.8307C164.179 53.7807 164.049 54.0603 164.292 54.0384C164.564 53.8526 164.253 53.8057 164.659 53.94C164.848 53.4606 163.949 53.8276 163.655 53.6308C164.215 53.5996 164.81 53.5746 165.473 53.5605C165.133 53.5387 164.822 53.5262 164.559 53.5105C164.845 53.4496 166.407 53.4762 165.522 53.0623C165.323 53.0842 165.082 52.8421 165.365 52.8812C164.945 52.8421 165.761 52.8109 165.307 52.6547C166.935 52.9327 168.387 52.3658 169.692 52.8015C170.463 53.0811 170.797 52.5032 171.475 52.5454C172.836 52.6906 174.62 52.0706 175.526 52.8125C174.847 52.1753 176.241 52.5969 176.684 52.5189C176.761 52.6906 176.957 52.611 176.871 52.4907C177.139 52.4002 177.688 52.764 177.419 52.4845C177.463 52.4845 177.509 52.4845 177.554 52.4829C177.401 52.7359 178.614 52.2393 178.588 52.5969C179.009 52.2799 181.028 52.6141 180.737 52.7531C180.319 52.686 180.173 52.7797 179.796 52.7875C179.479 52.8171 179.16 52.8218 178.918 52.8671C179.491 52.7844 179.597 52.9796 179.893 53.0967C179.359 53.3481 180.579 53.0576 179.979 52.9811C179.713 52.7016 183.593 53.0795 181.498 52.7281C181.181 52.7 181.844 52.561 181.556 52.4127C182.041 52.511 182.557 52.5688 183.087 52.6079C182.365 52.8062 183.555 52.953 183.534 52.7719C183.715 52.903 184.077 52.9296 184.348 52.9218C184.363 53.1264 184.627 53.1373 184.828 53.1264C184.613 53.0498 184.594 52.9405 184.876 52.928C184.69 52.9764 185.448 52.9624 185.278 52.8593C182.666 52.4579 189.419 52.8812 188.269 53.0639C188.209 53.4575 188.32 53.4075 188.602 53.3091C188.755 53.5996 188.717 53.3606 188.949 53.3841C188.896 53.4153 188.983 53.4543 188.958 53.3841C189.172 53.37 188.705 53.1998 188.727 53.2903C188.666 52.4736 191.445 53.3091 192.767 52.9608C197.958 53.0514 204.558 53.6074 208.825 52.7031C208.039 52.6188 207.544 52.4986 207.06 52.383C208.081 52.3408 209.038 52.2846 209.911 52.2096C210.604 52.2846 211.247 52.3658 211.663 52.4439C210.873 52.4642 209.918 52.2268 209.326 52.3549C210.597 53.3419 211.428 53.1092 211.926 51.9801C213.503 51.7442 214.562 51.4069 214.854 50.9353C214.854 50.9368 214.854 50.94 214.854 50.9415C214.854 50.9384 214.854 50.9368 214.854 50.9337C214.943 50.79 214.961 50.6339 214.9 50.4652C214.987 49.6547 215.106 48.8426 215.102 48.0383C215.102 48.0555 215.099 48.0711 215.096 48.0867C215.116 47.526 215.137 46.9638 215.126 46.4032C215.247 46.2501 215.213 46.0034 215.244 45.8113C215.348 44.7634 215.38 43.7154 215.316 42.666C215.321 42.7565 215.331 42.8487 215.351 42.9408C215.351 42.8159 215.348 42.691 215.346 42.566C215.374 42.0866 215.303 41.5181 215.306 41.0168L215.292 41.0246ZM214.269 11.7455C214.269 11.8095 214.267 11.8751 214.262 11.9422C214.233 11.897 214.231 11.722 214.269 11.7455ZM214.167 12.77C214.282 13.0042 214.234 13.2916 214.226 13.5758C214.025 13.39 214.159 13.062 214.167 12.77ZM92.4208 3.77445C92.3551 3.79787 92.1183 3.99465 92.1117 3.82911C92.1495 3.76976 92.5507 3.60422 92.4208 3.77445ZM91.5346 3.64795C91.5494 3.75258 91.1958 3.77445 91.2057 3.6823C91.2567 3.54019 91.4885 3.45742 91.5346 3.64795ZM49.852 5.4611C50.2976 5.28775 49.9621 5.62352 50.5409 5.67037C50.3864 5.89214 49.7451 5.66725 49.852 5.4611ZM49.2354 6.66207C49.3291 6.79325 48.7782 6.85103 48.6779 6.94161C48.1929 6.83542 49.0002 6.5465 49.2354 6.66207ZM49.533 7.13839C48.9476 6.95879 49.4294 7.37265 48.9476 7.37421C48.7191 7.36172 48.9164 7.28988 48.9065 7.24615C48.5464 7.00877 49.87 6.87602 49.533 7.13839ZM49.4179 5.48453C48.8862 5.57823 48.5245 5.60114 48.3326 5.55324C48.8062 5.43455 49.1679 5.41165 49.4179 5.48453ZM48.4428 5.8609C48.8999 5.90151 48.428 6.35441 49.2074 6.33254C49.3209 6.33254 49.4935 6.38876 49.459 6.4606C49.1646 6.47154 47.8805 6.51214 47.9117 6.36065C48.775 6.3263 47.7933 5.8734 48.4428 5.85934V5.8609ZM47.9841 6.72922C48.2488 6.64957 48.456 6.91819 48.0942 6.87134C47.4365 6.9666 47.4497 6.7261 47.9841 6.72922ZM34.2444 4.11802C34.4154 4.0821 34.5914 4.04462 34.8495 3.98996C34.7328 4.11178 34.0586 4.34135 34.2444 4.11802ZM20.7465 3.83535C20.8583 3.86034 21.0293 3.85565 21.0359 3.93218C20.952 4.11334 20.1973 3.90875 20.7465 3.83535ZM17.6371 3.84628C17.5763 3.81505 17.6059 3.83067 17.6371 3.84628V3.84628ZM1.28474 36.3957C1.32255 36.2254 1.39819 36.5581 1.34722 36.5815C1.28145 36.5659 1.30611 36.4488 1.28474 36.3957ZM1.39326 39.1677C1.38833 39.1896 1.38668 39.2114 1.38339 39.238C1.21896 39.2192 1.41135 38.9881 1.39326 39.1677ZM1.31104 38.593C1.29131 38.6055 1.28309 38.5789 1.28309 38.5633C1.29789 38.5555 1.31598 38.5446 1.34229 38.5321C1.30776 38.5227 1.29131 38.5165 1.27816 38.5165C1.34557 38.3759 1.30776 38.2463 1.33571 38.1026C1.36695 38.2603 1.54782 38.504 1.31104 38.593ZM1.4541 36.4488C1.43108 36.3738 1.39161 36.3191 1.42943 36.2551C1.44752 36.3129 1.50671 36.366 1.4541 36.4488ZM1.65963 25.295C1.64812 25.2044 1.63661 25.1138 1.62675 25.0232C1.63004 25.017 1.63168 25.0107 1.63497 25.0045C1.69087 24.9233 1.66457 25.2465 1.65963 25.2965V25.295ZM1.77144 42.1225C1.77144 42.1834 1.77309 42.2427 1.77309 42.3036C1.75336 42.2443 1.76651 42.1834 1.77144 42.1225ZM2.70211 49.6297C2.72513 49.6141 2.73171 49.6953 2.73006 49.7327C2.72677 49.7374 2.72184 49.7421 2.71691 49.7484C2.7054 49.7203 2.69553 49.6937 2.68402 49.6672C2.68731 49.65 2.69224 49.6359 2.70046 49.6297H2.70211ZM2.65278 50.0966C2.59523 50.1169 2.62318 50.1919 2.55083 50.1903C2.57057 50.1357 2.51466 49.8296 2.61989 49.9233C2.68895 50.0467 2.70211 49.9842 2.68567 49.7765C2.70375 49.7905 2.7202 49.8061 2.73171 49.8233C2.73171 49.8889 2.73499 49.9561 2.73664 50.0232C2.67416 49.9732 2.68402 50.1731 2.71197 50.1997C2.72184 50.1622 2.73006 50.1294 2.73993 50.0935C2.74486 50.2091 2.74815 50.3278 2.74815 50.4449C2.7465 50.4465 2.74486 50.448 2.74157 50.4496C2.71855 50.4152 2.7465 50.3668 2.71197 50.3465C2.69389 50.3574 2.6906 50.3746 2.6906 50.3934C2.67251 50.2934 2.61661 50.1997 2.65278 50.0951V50.0966ZM46.2164 4.74896C46.0323 4.9348 45.5653 4.93793 45.3844 4.76301C45.6163 4.69898 45.9188 4.77707 46.2164 4.74896ZM40.2559 8.75946C40.6045 8.62359 40.6341 8.83286 40.5979 9.07492C40.3135 9.08429 39.7791 9.0187 40.2559 8.75946ZM39.6492 8.60328C40.1457 8.62983 39.59 9.12178 39.3384 8.88439C40.0783 8.74852 38.8336 8.72822 39.6492 8.60328ZM37.9934 9.40445C37.944 9.42943 37.8372 9.47004 37.7665 9.43256C37.8372 9.41694 37.9145 9.41069 37.9934 9.40445ZM40.8923 54.4819C40.4697 54.4757 40.0372 54.4507 39.6245 54.4398C39.8564 54.3164 40.2345 54.3148 40.8923 54.4819ZM39.8958 9.77614C39.9205 9.77614 39.9435 9.77457 39.9682 9.77301C39.9567 9.81206 39.9254 9.78551 39.8958 9.77614ZM40.6736 55.0863C40.4335 55.0566 40.6801 54.8646 40.7804 54.9598C41.1899 55.1191 41.0189 55.1144 40.6736 55.0863ZM40.6768 54.6943C40.1145 54.8161 39.562 54.8443 39.0013 54.8364C38.9997 54.7646 38.998 54.6881 38.9947 54.61C39.5456 54.5631 40.1129 54.6756 40.6768 54.6943ZM33.4223 4.42724C32.9142 4.51314 32.924 4.78488 32.4423 4.44911C32.804 4.421 33.0638 4.17893 33.4223 4.42724ZM32.3864 4.06024C32.6971 4.09616 32.564 4.35072 32.2795 4.29762C31.847 4.32573 32.0608 4.05868 32.3864 4.06024ZM30.9164 4.26951C30.6763 4.28825 30.4642 4.38976 30.16 4.33979C30.4001 4.19767 30.6648 4.23984 30.9164 4.26951ZM42.3672 56.1046C41.4842 55.9624 38.6379 55.8672 39.1131 55.5595C39.8629 55.2737 40.9975 55.9749 41.8591 55.9093C41.3839 55.647 41.0238 55.7219 41.8377 55.6938C41.7604 55.4627 39.761 55.3893 39.0128 55.2862C39.0112 55.2003 39.0079 55.1066 39.0046 55.0036C39.5176 54.9333 40.0356 54.8568 40.5749 54.7584C40.3611 54.8739 40.3529 55.0598 40.0833 55.2425C40.519 55.3206 42.9032 55.3237 42.3803 55.6079C41.9989 55.9015 43.4902 56.2045 42.3672 56.1046ZM41.3675 54.6272C41.4809 54.6522 41.8772 54.7006 41.5417 54.7599C41.3559 54.7256 40.9202 54.685 41.3675 54.6272ZM42.5168 55.0488C42.7766 55.0114 42.8391 55.1738 42.5464 55.1972C42.3655 55.2331 42.3146 55.0207 42.5168 55.0488ZM43.5576 55.2581C43.6629 55.5361 43.1614 55.6236 43.6695 55.914C42.4182 55.7626 42.4527 55.7907 43.5576 55.2581ZM44.4916 54.9052C44.3485 55.3518 45.1542 54.8318 45.1707 55.1379C45.0013 55.1956 43.9144 55.2347 44.4916 54.9052ZM46.6653 54.2477C46.5141 54.4398 46.1556 53.9916 46.2921 54.4117C45.539 54.6787 45.0802 53.9728 46.0323 54.407C45.6541 53.9619 47.425 54.0368 46.6653 54.2461V54.2477ZM47.3724 54.6662C47.0485 54.699 46.7311 54.8692 46.399 54.7396C46.6801 54.7021 47.1948 54.4054 47.3724 54.6662ZM45.4782 53.9385C45.4371 53.7011 45.0145 54.1665 45.0326 53.8822C46.2296 53.445 46.3431 54.5163 45.4782 53.9385ZM44.9553 53.7167C44.9816 53.7183 45.0112 53.7136 45.0359 53.7214C44.9931 53.7323 44.85 53.7682 44.9553 53.7167ZM46.4598 53.5137C46.5502 53.4824 46.6407 53.4481 46.7443 53.5152C46.6489 53.5152 46.5552 53.5152 46.4598 53.5137ZM44.901 53.2763C44.9273 53.27 44.9619 53.2685 45.0063 53.2716C45.5587 53.2435 46.3743 53.3325 46.764 53.3591C46.1277 53.5168 45.4979 53.6027 44.901 53.2779V53.2763ZM46.5124 54.61C45.9731 54.8333 45.3779 54.8458 44.7448 54.763C45.3713 54.6116 46.0076 54.5475 46.5124 54.61ZM45.1098 55.5017C44.8895 55.5174 44.5935 55.5548 44.4406 55.408C44.5327 55.3518 45.465 55.3034 45.1098 55.5017ZM45.539 55.5954C45.1378 55.4252 45.9912 55.3284 45.8777 55.0629C46.0323 55.7188 45.8103 55.533 46.6884 55.6329C46.2822 55.7298 45.8991 55.6845 45.539 55.5954ZM46.5371 55.4455C46.3842 55.4486 46.1392 55.4846 46.1457 55.3799C46.2428 55.2113 47.1438 55.3971 46.5371 55.4455ZM46.6851 54.9442C46.8166 54.9255 47.5417 54.6709 47.3132 54.8849C47.1093 54.9333 46.9038 54.9645 46.6851 54.9442ZM48.0613 55.3081C47.767 55.458 47.6864 55.5174 47.5911 55.2003C45.5653 55.6111 48.3129 54.8037 48.9657 55.0457C48.7897 55.2331 47.6947 55.0598 48.0613 55.3081ZM47.5697 54.6537C47.7489 54.5428 47.9561 54.7349 48.1452 54.6178C48.0811 54.8349 47.8262 54.7334 47.5697 54.6537ZM48.5267 54.799C48.6122 54.7755 48.6977 54.7521 48.7832 54.7303C48.77 54.8193 48.6056 54.7693 48.5267 54.799ZM49.3784 55.1347C49.5428 55.0645 49.7319 55.0051 49.9046 55.0036C49.7336 55.1019 49.5708 55.1691 49.3784 55.1347ZM49.9934 54.0478C50.1693 53.9416 50.3535 54.0212 50.5606 53.9931C50.3551 54.1649 50.1726 54.0337 49.9934 54.0478ZM49.0643 8.71885C48.9197 8.61422 49.7714 8.45492 48.9394 8.54238C49.2206 8.43149 49.2452 8.3784 48.895 8.39089C49.4376 8.35653 49.9802 8.32998 50.5327 8.31437C50.4242 8.3659 50.5294 8.42837 50.6166 8.47835C51.2332 8.89845 49.3225 8.56893 49.0643 8.71885ZM51.0835 54.8037C50.8451 54.8771 51.1394 54.674 51.1888 54.7209C51.1937 54.8068 51.1312 54.799 51.0835 54.8037ZM56.7612 7.90832C56.7678 7.89582 56.7728 7.88333 56.7777 7.87084C56.7892 7.89582 56.7958 7.91144 56.7612 7.90832ZM56.9092 7.68343C57.0572 7.4601 56.2976 7.69749 56.1134 7.59129C56.4718 7.42887 55.2551 7.55537 55.9144 7.70373C55.8372 7.89895 56.36 7.94736 56.2219 7.7865C57.4683 7.59441 55.9835 8.19567 55.1498 7.95048C55.6464 7.89426 55.0413 7.8521 54.964 7.64126C55.0232 8.01139 54.2044 7.88646 54.4362 8.10822C54.7552 8.50021 56.5541 7.95517 56.4159 8.305C56.2926 8.33779 56.0723 8.20192 56.0049 8.28938C55.9473 8.53145 55.5987 8.31124 55.5543 8.54082C55.6267 8.50802 55.7188 8.53613 55.8224 8.56424C54.4773 8.72978 53.078 8.59548 52.0224 8.35341C51.7347 8.35966 51.6344 8.40338 51.7018 8.43618C51.7988 8.66107 51.2397 8.51114 51.049 8.40807C50.1315 8.19255 53.3461 8.39089 53.5763 8.06918C52.5897 8.08011 47.9479 8.13321 48.4708 8.419C48.3836 8.4393 48.6845 8.56893 48.6927 8.57205C46.6275 8.77039 44.4587 8.84847 42.0778 8.98591C42.2471 8.99684 42.4198 9.00465 42.5941 9.01089C41.9791 9.47785 47.7769 8.63296 48.2998 8.82349C46.4072 9.22485 43.7862 9.03276 41.7045 9.27951C44.4817 9.29513 39.414 9.65432 37.9375 9.6309C37.9983 9.62777 38.0575 9.62153 38.1134 9.61215C38.508 9.64183 38.8879 9.59966 39.2529 9.51845C39.1658 9.49346 39.0802 9.48253 38.9964 9.47472C39.0918 9.46067 39.1904 9.44661 39.2989 9.431C38.9865 9.431 38.7876 9.41694 38.6544 9.39351C39.687 9.39039 43.7632 9.15613 40.8807 8.86409C42.3491 8.7782 42.7141 8.53613 40.8199 8.73291C41.2293 8.35497 42.4477 8.54238 42.8358 8.90313C43.7089 8.35341 44.707 8.88439 46.223 8.56268C43.7681 8.29875 44.1151 8.51427 46.3546 8.28001C46.0865 7.88177 51.4782 7.80368 53.0188 7.64439C53.4233 7.76464 56.2022 7.30549 56.4011 7.52257C56.4505 7.62565 56.4834 7.3664 56.5886 7.32736C56.7925 7.33204 57.5242 7.44136 56.9931 7.45386C57.2364 7.60691 57.1444 7.64907 56.9109 7.68655L56.9092 7.68343ZM44.1923 8.5861C44.3157 8.57986 44.434 8.57674 44.559 8.57674C44.4308 8.62983 44.2893 8.63452 44.1923 8.5861ZM58.0652 7.40701C58.468 7.37577 58.8972 7.35547 59.323 7.33517C59.2474 7.4523 57.8662 7.61159 58.0652 7.40701ZM57.8695 56.2311C58.4894 55.7329 59.1405 55.8141 59.8673 55.9265C59.2096 56.0858 58.5371 56.1327 57.8695 56.2311ZM59.157 55.6704C59.3115 55.547 59.5631 55.547 60.0005 55.7219C59.716 55.7048 59.4332 55.6876 59.157 55.6704ZM62.3584 54.6834C62.3337 54.6834 62.3091 54.6772 62.2992 54.6537C62.314 54.6647 62.3354 54.674 62.3584 54.6834ZM63.0243 54.3742C62.9372 54.3632 62.8336 54.3523 62.7415 54.3414C62.9503 54.3539 63.1772 54.243 63.4222 54.4195C63.2792 54.4023 63.1493 54.3882 63.0243 54.3742ZM72.9229 6.3997C72.0909 6.81824 72.5381 6.21854 72.0087 6.18418C71.739 6.19667 72.0202 6.42312 71.8525 6.49496C70.6094 6.08891 71.6453 6.16856 72.354 6.11703C72.7601 6.15138 73.1893 6.06861 73.6431 6.05456C73.2419 6.10922 73.0446 6.74015 72.9229 6.3997ZM73.5642 6.45436C73.4787 6.45436 73.3734 6.45904 73.3636 6.37783C73.4014 6.18574 73.9177 6.39033 73.5642 6.45436ZM74.4455 6.44655C74.3107 6.46373 73.8223 6.26383 73.9358 6.04675C74.0427 6.06549 74.2005 6.07174 74.388 6.07174C74.314 6.10922 74.2564 6.17637 74.3123 6.23572C74.3485 6.29818 74.5261 6.36378 74.4455 6.44655ZM75.3696 6.82761C75.4124 6.7136 75.7083 6.72922 75.7544 6.76045C75.7116 6.87915 75.4041 6.93537 75.3696 6.82761ZM75.9024 53.0295C75.363 52.9577 76.1358 52.4345 76.1391 52.8125C76.1112 52.8952 76.1457 53.0077 75.9024 53.0295ZM76.782 53.1123C76.2789 53.2326 76.2082 52.7578 76.7163 52.7781C76.8511 52.825 76.7344 52.9858 76.782 53.1123ZM77.0846 6.20136C76.4269 6.23415 75.8958 6.51214 75.1361 6.39501C75.271 6.2201 74.8911 6.06237 74.781 6.12327C75.0917 6.55587 74.7382 6.46841 74.5672 6.14201C74.5754 6.10766 74.5705 6.08423 74.559 6.06861C75.6245 6.04362 77.3789 5.85309 77.0862 6.20292L77.0846 6.20136ZM77.6634 6.27007C77.5022 5.89526 77.1405 6.05456 77.9133 5.93743C78.0416 5.92025 78.178 5.90932 78.3162 5.90151C78.0169 5.93743 77.8854 6.52151 77.665 6.26851L77.6634 6.27007ZM78.6023 5.89214C78.6911 5.89058 78.7782 5.88901 78.867 5.88901C78.7716 5.99053 78.6927 5.93587 78.6023 5.89214ZM79.7204 6.35753C79.8634 6.20448 80.041 6.23259 80.2104 6.24977C80.0542 6.28725 79.8963 6.38876 79.7204 6.35753ZM79.9802 5.88121C80.0607 5.87808 80.1397 5.87184 80.2153 5.86403C80.1479 5.90307 80.0344 5.9468 79.9802 5.88121ZM80.4356 5.91088C80.6198 5.74846 80.8319 5.75939 81.0687 5.78594C80.8927 5.80937 80.4932 6.19355 80.4356 5.91088ZM80.9355 6.14514C80.9108 5.98896 81.3088 5.88277 81.2693 6.08111C81.3614 6.22166 80.9437 6.27632 80.9355 6.14514ZM81.5126 51.5131C81.5751 51.5272 81.636 51.5412 81.6985 51.5553C81.6376 51.5522 81.5751 51.5381 81.5126 51.5131ZM81.34 6.31536C81.5159 6.23415 81.6541 6.08891 81.8711 6.27944C81.7001 6.32005 81.5159 6.30131 81.34 6.31536ZM82.3808 5.92962C82.4762 5.88589 82.5913 5.83123 82.708 5.8406C82.6357 5.9343 82.2624 6.13889 82.3808 5.92962ZM85.4293 6.08891C85.4145 5.96398 85.7253 6.00302 85.5806 5.81874C85.6069 5.56886 84.6598 5.72347 84.9459 5.86403C85.2024 6.15295 84.7371 5.75783 84.7026 5.89526C84.6795 5.93899 84.7914 5.99209 84.8982 6.02332C84.0991 6.21385 81.2545 6.46217 82.9547 5.95773C83.1569 6.10766 83.3904 5.97491 83.5121 5.97179C83.2392 5.68131 82.9662 5.87496 83.471 5.67818C84.3194 5.75939 86.8352 5.15657 86.0607 5.88433C86.1101 6.09204 85.5905 6.07486 85.4293 6.08891ZM86.3321 5.77501C86.1824 5.77189 86.24 5.73284 86.3666 5.76408C86.3567 5.76876 86.3469 5.77189 86.3321 5.77501ZM89.7818 4.15863C89.8179 4.19611 89.7489 4.18986 89.7193 4.20079C89.7406 4.18674 89.7604 4.17268 89.7818 4.15863ZM89.54 4.84422C89.5927 4.8942 89.6255 4.80206 89.7209 4.80518C89.693 4.98165 89.7702 4.76301 89.859 4.74115C89.956 4.81611 89.8442 4.96291 90.1007 4.97072C89.7653 5.05506 88.7738 5.12065 89.54 4.84266V4.84422ZM89.5713 5.17687C89.5466 5.18468 89.522 5.19249 89.4973 5.2003C89.5137 5.19405 89.5302 5.18936 89.5466 5.18156C89.5548 5.17999 89.5647 5.17843 89.5729 5.17687H89.5713ZM89.4661 5.20967C89.2424 5.28151 89.0007 5.35334 88.4565 5.36271C88.7557 5.17062 89.1454 5.30337 89.4661 5.20967ZM87.0703 5.16594C87.4419 5.40176 87.4091 5.01133 87.5554 4.88639C87.7494 4.86921 87.7543 5.2409 87.9369 4.96291C88.1062 4.77863 88.3726 5.10972 88.5979 4.89576C88.7212 4.80362 88.8675 4.93168 88.6932 5.0082C88.3742 5.09722 88.5305 5.34866 88.1901 5.2737C88.0191 5.28931 87.9632 5.40957 87.7165 5.34397C87.6606 5.18624 87.1262 5.38458 86.8977 5.22997C86.6116 5.02694 86.947 5.02538 87.072 5.16594H87.0703ZM86.8862 5.76876C87.0259 5.76876 87.1739 5.77189 87.3153 5.76876C87.0769 6.01708 86.217 6.05143 86.8862 5.76876ZM88.7097 5.90619C88.713 5.88277 88.8379 5.85466 88.8659 5.87184C88.9415 6.0202 88.5074 6.02801 88.7097 5.90619ZM88.9103 5.7141C88.6768 5.90619 88.3118 5.75314 87.9418 5.94055C86.5869 6.04519 88.366 5.57511 87.1608 5.62821C87.8843 5.3674 89.1619 5.51108 89.6502 5.41737C89.9018 5.40332 89.9955 5.43143 90.1665 5.43143C90.0942 5.61259 89.5548 5.34866 89.6749 5.61884C90.1632 5.67974 90.5907 5.57667 89.7719 5.77501C89.2556 5.99365 89.3263 5.93743 88.9086 5.7141H88.9103ZM89.7522 5.92962C89.8788 5.85309 90.1057 5.90776 90.2964 5.86247C90.2093 5.99365 89.8705 5.95461 89.7522 5.92962ZM91.893 6.46685C92.2136 6.31068 92.2383 6.31849 92.4669 6.39345C92.2482 6.50121 92.1216 6.48247 91.893 6.46685ZM92.8763 6.44967C92.9355 6.6199 92.674 6.4528 92.7497 6.34347C92.8599 6.34972 93.0062 6.41844 92.8763 6.44967ZM93.5866 6.4403C93.7872 6.37159 93.9845 6.41063 94.195 6.3997C94.2986 6.59179 93.5636 6.43562 93.5866 6.4403ZM93.5209 6.3263C93.5373 6.31693 93.5685 6.30912 93.5932 6.30756C93.5718 6.31693 93.5472 6.32317 93.5209 6.3263ZM97.6398 6.39033C96.8127 6.3872 93.0029 6.56524 95.1865 6.28413C94.81 6.16388 92.2761 6.22478 92.8878 6.11234C93.8415 6.07642 94.7902 6.06705 95.739 6.0608C95.6601 6.28881 99.0785 5.90463 100.335 5.96085C101.943 5.86403 99.0637 6.44342 97.6381 6.39033H97.6398ZM103.105 4.71148C103.043 4.70523 102.977 4.71772 102.933 4.70367C102.98 4.65057 103.058 4.65213 103.105 4.71148ZM102.78 5.10972C102.515 4.8942 102.984 5.03944 103.178 4.97853C103.089 5.03007 102.862 5.16281 102.78 5.10972ZM103.17 4.51626C103.23 4.54281 103.296 4.46629 103.347 4.57717C103.438 4.81767 103.127 4.71929 103.17 4.51626ZM103.528 4.59435C103.584 4.59279 103.602 4.65213 103.613 4.70992C103.497 4.73959 103.39 4.66463 103.528 4.59435ZM109.387 3.17474C109.431 3.05605 109.498 3.05449 109.566 3.08573C109.622 3.23409 109.457 3.19817 109.387 3.17474ZM113.676 4.86765C113.603 4.85984 113.639 4.86453 113.676 4.86765C113.598 4.91606 113.652 4.94417 113.676 4.86765ZM113.864 4.88639C113.746 4.95042 113.828 4.9473 113.864 4.88639V4.88639ZM114.219 5.25027C114.301 5.2409 114.252 5.43299 114.275 5.49546C114.17 5.50483 114.076 5.28619 114.219 5.25027ZM114.451 5.57042C114.388 5.547 114.426 5.48297 114.451 5.4408C114.538 5.32992 114.643 5.63133 114.451 5.57042ZM114.597 4.92387C114.65 5.13158 115.063 5.05349 115.189 5.2409C115.099 5.27214 113.997 4.99571 114.597 4.92387ZM115.362 5.33148C115.327 5.32211 115.352 5.30025 115.362 5.27526C115.362 5.29556 115.362 5.3143 115.362 5.33148ZM115.367 5.04569C115.275 4.86296 114.931 4.92075 115.275 4.85672C115.465 4.72241 115.482 5.08473 115.367 5.04569ZM113.759 3.18099C113.866 3.07948 113.961 3.02482 114.048 3.18724C113.949 3.20129 113.851 3.32779 113.759 3.18099ZM114.753 3.71666C114.609 3.60734 114.929 3.55737 115.012 3.63389C114.924 3.68855 114.837 3.62764 114.753 3.71666ZM114.834 3.37933C114.671 3.25752 113.718 3.41213 114.3 3.14195C114.541 3.27938 114.558 3.27313 114.559 3.01389C114.796 2.95298 114.675 3.17006 114.707 3.26845C114.903 2.96079 115.276 3.47616 114.834 3.37933ZM115.311 3.27313C115.271 3.40744 115.176 3.24815 115.089 3.27001C114.985 3.06699 115.345 3.15132 115.311 3.27313ZM115.533 3.35278C115.444 3.39963 115.383 3.46522 115.349 3.6214C115.322 3.27782 115.589 3.11071 115.148 2.95767C115.349 2.87021 115.809 3.20129 115.533 3.35278ZM115.845 3.97435C115.978 3.59953 115.691 3.89314 115.627 3.70729C115.661 3.52613 116.173 3.79943 115.845 3.97435ZM115.947 3.53082C115.875 3.44648 115.539 3.44805 115.743 3.30437C115.84 3.295 116.064 3.4293 115.947 3.53082ZM116.325 3.61983C116.626 3.23565 116.154 2.82648 116.753 3.42306C116.674 3.49334 116.136 3.9884 116.325 3.61983ZM116.699 4.07586C116.686 4.17893 116.546 4.11178 116.554 4.03838C116.585 3.93062 116.735 3.95717 116.699 4.07586ZM117.041 4.99259C117.784 4.29606 117.43 4.14301 116.725 3.75258C117.072 3.55424 116.595 2.88426 116.97 3.12945C117.282 3.34185 118.373 4.11334 118.055 4.19767C117.756 4.37883 117.458 3.49021 117.115 3.40276C117.079 3.61515 117.319 3.53706 117.273 3.75258C116.612 3.31218 117.726 4.33979 118.006 4.47566C118.206 4.65838 118.08 4.36165 118.082 4.27732C118.175 4.12271 118.581 4.62558 118.267 4.53813C117.521 4.71148 117.911 4.93793 118.348 5.25339C118.595 5.08941 118.011 5.0004 118.012 4.76926C118.234 4.83954 118.563 4.71772 118.637 4.92699C118.907 5.72191 116.14 4.99727 117.041 4.99259ZM116.845 4.59591C116.876 4.50377 117.031 4.62402 117.034 4.72553C116.991 4.84579 116.889 4.64432 116.845 4.59591ZM117.177 4.30543C117.256 4.35384 117.416 4.39601 117.32 4.51314C117.23 4.58185 117.212 4.37727 117.177 4.30543ZM117.616 5.66569C118.057 5.53607 118.657 5.51889 119.27 5.53607C119.4 5.78282 118.006 5.61727 117.616 5.66569ZM137.353 54.6772C137.242 54.7146 137.129 54.7474 136.96 54.799C137.038 54.6678 137.487 54.4648 137.353 54.6772ZM137.887 54.3773C138.173 54.407 138.18 53.9572 138.38 54.2711C138.67 54.3679 138.061 54.6256 137.887 54.3773ZM138.553 54.7552C138.209 54.6506 138.702 54.3554 138.785 54.6006C138.785 54.7178 138.653 54.724 138.553 54.7552ZM138.607 5.82498C138.65 5.81718 138.694 5.80937 138.744 5.8C139.214 5.80156 138.831 5.85622 138.607 5.82498ZM139.505 54.5678C139.661 54.5522 139.798 54.4538 139.995 54.51C139.839 54.649 139.668 54.6022 139.505 54.5678ZM146.069 55.2097C145.997 55.1816 145.886 55.1816 145.883 55.1051C145.942 54.927 146.426 55.1535 146.069 55.2097ZM145.781 5.98428C145.834 5.90619 146.444 5.92337 146.455 6.08423C146.293 6.09985 145.765 6.09516 145.781 5.98428ZM146.638 6.1342C147.166 6.06237 147.491 6.21698 147.878 6.23103C147.467 6.28569 147.118 6.19043 146.638 6.1342ZM148.507 5.23309C148.754 5.13314 149.492 5.09254 149.686 5.17375C149.773 5.50171 148.754 5.27057 148.507 5.23309ZM158.284 5.53294C158.334 5.53294 158.383 5.53294 158.432 5.5345C158.386 5.5345 158.324 5.56105 158.284 5.53294ZM158.592 5.53919C158.621 5.53919 158.651 5.53919 158.682 5.54231C158.903 5.55324 159.126 5.57667 159.358 5.61259C159.105 5.64382 158.835 5.59541 158.592 5.53919ZM161.209 5.32836C162.012 5.35959 162.734 5.38614 163.452 5.41425C162.711 5.52513 161.956 5.38302 161.209 5.32836ZM162.906 53.6823C162.906 53.6823 162.898 53.6792 162.895 53.6777C162.946 53.6745 163 53.6714 163.053 53.6683C163.015 53.6886 162.969 53.6964 162.906 53.6823ZM163.434 53.8026C163.227 53.6948 163.349 53.6214 163.513 53.6402C163.479 53.6855 163.482 53.7729 163.434 53.8026ZM164.457 53.3044C164.001 53.5059 163.155 53.4965 162.691 53.3497C162.554 53.2763 162.286 53.6386 162.309 53.3466C162.691 53.0373 163.312 53.2779 163.714 53.2341C162.638 52.8156 164.787 53.0623 164.457 53.3044ZM163.923 52.9015C164.108 52.8984 164.406 52.8437 164.421 52.9967C164.268 53.0936 164.113 52.9312 163.923 52.9015ZM162.665 4.93168C163.311 4.88951 163.941 4.96291 164.582 4.98634C163.932 5.04256 163.304 4.96291 162.665 4.93168ZM168.099 6.58554C168.153 6.59647 168.211 6.60584 168.267 6.61521C167.995 6.72297 168.395 6.58554 168.528 6.66207C167.696 6.81355 166.749 6.53557 168.099 6.58554ZM169.337 6.73078C168.887 6.70267 169.46 6.64176 169.661 6.7136C169.554 6.70892 169.434 6.71829 169.337 6.73078ZM170.375 6.61365C170.452 6.73859 170.102 6.58867 170.001 6.59179C170.123 6.58554 170.248 6.58866 170.375 6.61365ZM169.809 6.73703C169.855 6.74328 169.901 6.75108 169.949 6.75889C170.107 6.78232 170.291 6.81043 170.473 6.83854C170.204 6.89945 170.01 6.87602 169.807 6.73703H169.809ZM170.529 6.6527C170.769 6.70423 171.118 6.68393 171.379 6.75733C171.182 6.82605 170.289 6.69955 170.529 6.6527ZM213.81 15.6154C213.789 15.6154 213.766 15.6138 213.751 15.5982C213.754 15.6545 213.734 15.7013 213.721 15.7497C213.721 15.7247 213.721 15.6997 213.723 15.6748C213.716 15.5592 213.762 15.4624 213.808 15.6154H213.81ZM213.828 14.6112C213.8 14.694 213.794 14.7487 213.785 14.8252C213.761 14.8189 213.759 14.7627 213.759 14.7159C213.749 14.6643 213.779 14.6331 213.828 14.6112ZM205.931 4.87546C205.717 4.91138 205.543 4.93324 205.332 4.8208C205.561 4.76145 205.74 4.73022 205.931 4.87546ZM190.601 4.88795C190.246 4.98009 189.886 4.93793 189.526 4.94261C189.881 4.86296 190.241 4.90045 190.601 4.88795ZM186.375 4.72709C186.342 4.75833 186.303 4.75677 186.26 4.7474C186.298 4.73959 186.337 4.73334 186.375 4.72709ZM176.855 4.52876C176.819 4.56624 176.778 4.57092 176.735 4.54281C176.769 4.4819 176.81 4.47722 176.855 4.52876ZM176.682 4.95667C176.672 4.95354 176.653 4.95667 176.649 4.94886C176.659 4.95198 176.671 4.95354 176.682 4.95667ZM172.968 6.17481C173.318 6.05612 173.658 6.14357 174.002 6.16232L172.968 6.17481ZM175.11 5.49546C175.844 5.30337 174.16 5.32367 174.739 5.54544C174.208 5.57511 173.821 5.56574 174.569 5.48297C173.173 5.45017 174.101 5.26589 174.967 5.30805C176.399 5.3471 176.182 5.64226 175.109 5.49702L175.11 5.49546ZM177.619 5.57511C177.401 5.42206 177.434 5.64539 177.619 5.57511C177.626 5.55793 177.633 5.54231 177.619 5.57511ZM176.574 5.54544C176.049 5.7344 176.276 4.97853 176.34 5.3877C176.518 5.49546 176.523 5.21591 176.386 5.14564C176.944 5.05193 177.527 5.22841 178.103 5.24871C177.582 5.19249 177.245 5.36584 176.833 5.18936C176.023 5.41894 178.188 5.55168 178.218 5.25964C178.928 5.32992 179.583 5.39707 180.3 5.48297C178.798 5.57042 177.432 5.47047 176.575 5.54544H176.574ZM180.977 52.6532C180.977 52.6532 180.97 52.6344 180.967 52.6282C180.977 52.636 180.982 52.6438 180.977 52.6532ZM184.363 52.7562C184.078 52.7188 183.695 52.7812 183.33 52.7156C183.044 52.5735 184.453 52.6094 184.363 52.7562ZM184.479 52.9296H184.553C184.527 52.9671 184.489 53.0217 184.479 52.9296ZM185.716 52.7125C185.734 52.7125 185.752 52.7125 185.772 52.7125C185.744 52.7203 185.727 52.7203 185.716 52.7125ZM213.715 14.3895C213.715 14.4207 213.711 14.4519 213.708 14.4847C213.695 14.4988 213.679 14.5097 213.667 14.5222C213.649 14.4582 213.66 14.4332 213.715 14.3895ZM213.756 17.2771C213.739 17.0741 213.707 16.8679 213.693 16.654C213.715 16.5556 213.718 16.4478 213.716 16.3385C213.73 16.3385 213.743 16.3385 213.759 16.3307C213.733 16.3073 213.728 16.2979 213.715 16.2994C213.715 16.2682 213.715 16.237 213.713 16.2073C213.715 16.2104 213.716 16.212 213.72 16.2135C213.769 16.1464 213.779 16.148 213.716 16.0917C213.715 16.0933 213.713 16.0949 213.711 16.0964C213.716 15.9684 213.68 15.8169 213.81 15.7388C213.679 16.0433 213.935 16.1214 213.864 16.4306C213.831 16.4103 213.802 16.4134 213.777 16.4431C213.808 16.4634 213.838 16.4603 213.864 16.4353C213.792 16.629 214.004 17.4036 213.756 17.274V17.2771ZM213.879 13.657C213.662 13.251 213.882 12.6278 213.817 12.1453C213.866 12.1312 213.795 12.0734 213.817 12.0266C213.871 12.0687 213.856 11.9563 213.817 12.0078C213.817 11.9204 213.818 11.8345 213.82 11.747C213.876 11.7689 213.856 11.6877 213.82 11.733C213.848 11.5315 213.779 11.2816 213.873 11.1067C213.861 11.102 213.848 11.1005 213.838 11.1036C213.843 10.924 213.848 10.746 213.853 10.5664C213.889 10.5664 213.905 10.5461 213.915 10.5101C213.854 11.4628 213.886 12.7918 213.878 13.657H213.879ZM213.919 10.393C213.912 10.3571 213.899 10.3259 213.879 10.3102C213.879 10.3633 213.871 10.4102 213.856 10.4555C213.859 10.3181 213.861 10.1822 213.866 10.0448C213.881 10.0448 213.894 10.0448 213.905 10.0541C213.915 10.0619 213.922 10.0619 213.928 10.0572L213.92 10.3915L213.919 10.393ZM213.937 9.68556C213.914 9.65744 213.876 9.66682 213.854 9.6918C213.771 9.78707 213.96 9.76208 213.928 9.8386C213.928 9.83548 213.93 9.83236 213.932 9.82923L213.927 9.98541C213.907 9.98072 213.886 9.99009 213.863 9.98697C213.753 9.6715 213.785 9.28419 213.856 8.85472C213.881 9.0515 213.851 9.19049 213.85 9.38414C213.79 9.47629 213.999 9.52782 213.935 9.68399L213.937 9.68556ZM213.943 9.431V9.46535C213.927 9.4513 213.925 9.4388 213.943 9.431ZM213.947 9.292C213.904 9.29669 213.887 9.34979 213.858 9.3779C213.915 9.19361 213.914 9.02026 213.937 8.81568C213.973 9.01089 213.945 9.12334 213.947 9.292ZM214.816 31.8698C214.777 32.065 214.752 32.2758 214.728 32.4867C214.589 32.0244 214.805 30.6923 214.816 31.8698ZM214.81 50.3278C214.856 50.1263 214.861 50.2325 214.854 50.4137C214.841 50.3855 214.826 50.3574 214.81 50.3278ZM215.104 46.3251C215.104 46.1814 215.104 46.0393 215.111 45.8956C215.121 46.044 215.203 46.1705 215.104 46.3251ZM215.278 42.5426C215.278 42.5426 215.287 42.5535 215.29 42.5598C215.29 42.5769 215.29 42.5926 215.29 42.6097C215.288 42.5863 215.283 42.5645 215.277 42.5426H215.278Z" fill="#01070F"/>
<path d="M64.4479 22.252L58.3999 36.112L52.3519 22.252H55.4839L58.5079 29.722L61.3519 22.252H64.4479ZM69.3498 22.252V35.5H66.7398V22.252H69.3498ZM81.8051 22.252V24.772H75.3791V27.598H81.0671V30.118H75.3791V32.98H82.0571V35.5H72.7691V22.252H81.8051ZM95.7734 36.076L92.6234 28.228L88.9514 36.112L83.6234 22.342H86.6834L89.2934 30.01L91.3094 24.952L90.2654 22.342H92.8574L95.8274 29.704L98.0774 22.342H100.885L95.7734 36.076ZM122.677 21.712V35.5H120.067V29.182L115.747 35.32H115.711L111.553 29.578V35.5H109.033V21.712H109.051L115.765 31.234L122.641 21.712H122.677ZM125.291 28.894C125.291 27.694 125.591 26.572 126.191 25.528C126.803 24.484 127.625 23.656 128.657 23.044C129.701 22.42 130.829 22.108 132.041 22.108C133.253 22.108 134.375 22.42 135.407 23.044C136.451 23.656 137.279 24.484 137.891 25.528C138.515 26.572 138.827 27.694 138.827 28.894C138.827 30.118 138.515 31.246 137.891 32.278C137.279 33.31 136.451 34.132 135.407 34.744C134.375 35.344 133.253 35.644 132.041 35.644C130.817 35.644 129.689 35.344 128.657 34.744C127.625 34.132 126.803 33.31 126.191 32.278C125.591 31.246 125.291 30.118 125.291 28.894ZM127.991 28.894C127.991 29.662 128.171 30.37 128.531 31.018C128.903 31.666 129.401 32.182 130.025 32.566C130.661 32.938 131.363 33.124 132.131 33.124C132.875 33.124 133.553 32.938 134.165 32.566C134.777 32.182 135.257 31.672 135.605 31.036C135.953 30.388 136.127 29.674 136.127 28.894C136.127 28.102 135.947 27.382 135.587 26.734C135.227 26.086 134.735 25.576 134.111 25.204C133.499 24.82 132.815 24.628 132.059 24.628C131.303 24.628 130.613 24.82 129.989 25.204C129.377 25.576 128.891 26.086 128.531 26.734C128.171 27.382 127.991 28.102 127.991 28.894ZM148.575 35.5L145.785 31.288H144.039V35.5H141.429V22.252H145.443C147.087 22.252 148.359 22.654 149.259 23.458C150.171 24.25 150.627 25.336 150.627 26.716C150.627 27.532 150.453 28.3 150.105 29.02C149.769 29.728 149.247 30.286 148.539 30.694L151.617 35.5H148.575ZM144.039 28.768H145.893C146.601 28.768 147.117 28.564 147.441 28.156C147.765 27.736 147.927 27.286 147.927 26.806C147.927 26.326 147.789 25.87 147.513 25.438C147.237 24.994 146.703 24.772 145.911 24.772H144.039V28.768ZM162.805 22.252V24.772H156.379V27.598H162.067V30.118H156.379V32.98H163.057V35.5H153.769V22.252H162.805Z" fill="white"/>
</svg>
