<svg width="112" height="135" viewBox="0 0 112 135" fill="none" xmlns="http://www.w3.org/2000/svg">
<mask id="mask0_48_478" style="mask-type:alpha" maskUnits="userSpaceOnUse" x="-32" y="-20" width="175" height="175">
<circle cx="55.8123" cy="67.5" r="87" fill="#D9D9D9"/>
</mask>
<g mask="url(#mask0_48_478)">
<path d="M100.081 59.4364C86.5131 50.8671 55.4346 44.3125 32.2531 38.9205L5.59937 67.5846L28.4781 67.0955C17.0861 85.5099 19.4076 128.811 48.2152 134.568C46.732 131.723 44.157 126.498 47.4951 120.029C49.8726 115.427 63.0894 90.132 63.0894 90.132H66.2532C70.5376 90.132 71.9478 91.7434 70.0476 94.0153C81.468 93.8697 88.4809 89.5492 91.6277 84.9324C89.2322 80.547 81.6112 75.384 78.5212 73.2913H94.5005C99.0825 73.2913 100.116 75.2121 99.0369 77.3033C106.515 75.8325 110.338 65.9146 100.081 59.4364" fill="#A5ACAF"/>
<path d="M98.2557 60.3105C79.7756 49.9399 34.0166 43.0276 34.0166 43.0276L14.4148 64.0353H34.738C19.7325 83.8725 23.0575 123.916 45.1239 132.241C43.5588 128.518 42.7659 124.196 45.5868 118.697C48.7702 112.496 53.8369 102.072 61.0954 88.1564H67.0188C71.9348 88.1564 73.5063 90.236 72.8396 91.841C76.8822 91.841 84.2732 91.4444 89.6365 84.9324C85.1689 78.6873 70.3959 71.4054 70.3959 71.4054H95.7392C99.4633 71.4054 101.325 72.7307 100.81 74.9753C107.285 71.8123 105.601 64.4319 98.2557 60.3105Z" fill="#FFFFFE"/>
<path d="M68.2603 72.0866C68.2603 72.0866 84.5943 80.0822 87.7699 84.9321C86.0969 87.1586 83.5389 88.7179 80.1138 89.501C82.3028 87.8194 82.7175 86.2027 81.3721 86.2027H76.5301C75.7034 87.0167 75.2628 88.4876 76.3716 89.9703C74.4999 89.5607 72.6969 88.0195 72.5578 86.2027H62.3059C63.6748 83.4624 67.6248 75.6305 68.7271 73.4731L68.2605 72.0866H68.2603ZM97.4877 61.7031C104.64 65.6296 104.168 71.0384 102.053 72.824C102.091 70.8928 100.194 69.4557 96.7726 69.4557H63.357L66.9486 71.3806C66.9486 71.3806 45.4425 114.226 43.7917 117.607C41.8862 121.514 41.3637 125.9 43.0054 129.555C38.7509 126.856 35.4103 122.514 33.0588 117.221L31.1493 117.091L51.4349 87.3095C51.3921 87.1183 51.3543 86.9245 51.3206 86.732L30.8399 110.888C29.791 106.992 29.1866 102.792 29.0566 98.4851L26.7364 97.9038L51.8965 78.0407C51.959 77.8301 52.0253 77.6207 52.0928 77.4113L29.2776 91.2659C29.622 87.4448 30.3408 83.6252 31.4496 79.9381L29.0891 78.6013L55.9416 69.6472C56.0613 69.4638 56.1835 69.2818 56.3057 69.1022L33.7661 73.7101C34.9828 70.9971 36.4347 68.4053 38.1387 66.0057L36.051 64.0355H63.0063C63.0817 63.8845 63.1557 63.7364 63.2298 63.5908L23.0967 60.5202L34.5081 48.2288L32.7232 45.9567C32.7232 45.9567 81.9463 53.1733 97.4874 61.7036L97.4877 61.7031Z" fill="black"/>
<path d="M99.2541 64.7857L99.6832 66.6844C96.7585 67.2344 91.5837 67.6728 90.1213 67.7912C90.0498 67.9368 89.9757 68.0825 89.9004 68.2321H97.6033C100.659 68.2321 101.946 69.6821 102.218 70.5158C102.618 69.3752 102.249 66.3163 99.2541 64.7857ZM90.688 61.0323C92.396 61.602 96.2397 63.7479 97.6955 65.4269H94.9334C93.8442 63.6348 90.688 61.0323 90.688 61.0323Z" fill="#FFFFFE"/>
<path d="M32.9119 84.7632L49.3278 75.7947C49.4163 75.5722 49.5085 75.3485 49.6047 75.1263L33.8064 80.8058C33.4554 82.1088 33.1578 83.4313 32.9119 84.7632ZM40.2523 66.9756C39.5282 67.9681 38.8562 69.0006 38.2311 70.0671L54.2883 67.1968C54.4286 67.0122 54.5717 66.8275 54.7146 66.6468L40.2523 66.9756ZM50.4392 96.52C50.3326 96.3287 50.2286 96.135 50.1273 95.9425L36.7973 116.053C37.4967 117.378 38.2699 118.617 39.1109 119.755L50.4392 96.52ZM32.6338 102.902L47.4521 86.3628C47.4405 86.1262 47.4327 85.8906 47.4274 85.6553L32.1541 98.6452C32.2568 100.085 32.4191 101.507 32.6338 102.902ZM78.7775 83.9682L67.1438 82.2308L65.9634 84.5173H78.5031L78.7775 83.9682ZM86.8132 63.157L33.5501 55.7829L36.8089 52.2521C54.7496 55.0261 76.2063 59.4115 87.1004 62.5861C87.0082 62.7721 86.9107 62.9633 86.8132 63.157Z" fill="#A71930"/>
<path d="M0.812256 11.4578L3.07814 13.3344V23.616H8.15976V19.7183L13.6541 19.7144L14.6895 17.0039L8.15958 17.0087V14.1748H16.1353V11.4579L0.812256 11.4578ZM17.8818 11.4578L20.2176 13.2896L16.247 23.6159H20.9305L22.1591 20.321H28.0128L29.2679 23.6159H33.9592L29.1889 11.4578L17.8818 11.4578ZM33.959 11.4578L36.2798 13.307V23.616H47.4795V20.5147H41.3044V11.4578L33.959 11.4578ZM47.3929 11.4578L49.7239 13.2963V23.616H61.3386V20.5147H54.7746V14.1748H61.3386V11.4578L47.3929 11.4578ZM62.3837 11.4578L64.704 13.2843V23.616H78.6289V11.4579L62.3837 11.4578ZM79.8464 11.4578L82.1008 13.2795V23.6159H86.9843V18.2592L92.8405 23.6159H95.647V11.4578H90.7486V16.7204L84.9082 11.4578L79.8464 11.4578ZM96.8718 11.4578L99.0958 13.2559V18.5869L106.275 18.5816V20.5146H99.0958V23.6158H111.17V15.8733H103.982V14.1745H111.17V11.4575L96.8718 11.4578ZM67.914 14.1747H73.7544V20.5147H69.608V15.5749L67.914 14.1747ZM24.3256 14.5144H25.8028L26.988 17.6263H23.1654L24.3256 14.5144Z" fill="white"/>
<path d="M26.2302 0.500222L27.4057 1.42239L25.4072 6.62044H27.7647L28.3833 4.96161H31.3299L31.962 6.62044H34.3233L31.922 0.500049L26.2302 0.500222ZM34.0122 0.500222L34.5571 1.87238H36.8336V6.62049H39.4074V2.54927L38.5792 1.87236H42.049V0.500197L34.0122 0.500222ZM43.0715 0.500222L44.1946 1.45034V6.62051H49.8142L49.8079 5.06911L46.7143 5.07104V0.500296L43.0715 0.500222ZM51.7246 0.500222L52.8997 1.42239L50.9017 6.62044H53.2591L53.8773 4.96161H56.8238L57.456 6.62044H59.8177L57.4164 0.500049L51.7246 0.500222ZM60.053 0.500222L61.1688 1.46575V6.62039H63.6082V3.95698L66.5336 6.62039H67.9452V0.5H65.5035V3.18709L62.5862 0.5L60.053 0.500222ZM69.3681 0.500222V1.87238H72.0229V6.62049H74.5973V2.54927L73.7691 1.87236H77.2413L77.2365 0.500197L69.3681 0.500222ZM78.4842 0.500222L79.6598 1.42239L77.6608 6.62044H80.0182L80.6369 4.96161H83.5835L84.2151 6.62044H86.5769L84.1756 0.500049L78.4842 0.500222ZM29.4738 2.03909H30.2172L30.8136 3.60541H28.8898L29.4738 2.03909ZM54.9682 2.03909H55.7121L56.3085 3.60541H54.3842L54.9682 2.03909ZM81.7281 2.03909H82.472L83.0679 3.60541H81.1441L81.7281 2.03909Z" fill="#A71930"/>
</g>
</svg>
