<svg width="199" height="44" viewBox="0 0 199 44" fill="none" xmlns="http://www.w3.org/2000/svg">
<mask id="mask0_48_652" style="mask-type:alpha" maskUnits="userSpaceOnUse" x="-2" y="-79" width="202" height="201">
<ellipse cx="99.1968" cy="21.9205" rx="100.5" ry="100" fill="#D9D9D9"/>
</mask>
<g mask="url(#mask0_48_652)">
<path d="M99.5768 0.920532L0.411621 30.4054L2.54696 35.7797L15.2871 32.0176L22.304 43.7654H176.926L183.943 32.0176L196.683 35.7797L198.742 30.4054L99.5768 0.920532Z" fill="#FF6600"/>
<path fill-rule="evenodd" clip-rule="evenodd" d="M158.29 34.7099C158.518 34.9449 158.669 35.1784 158.745 35.4127C158.821 35.6477 158.897 35.96 158.897 36.1936C158.897 36.5066 158.821 36.819 158.745 37.0532C158.669 37.2882 158.518 37.5225 158.29 37.7567C158.062 37.991 157.834 38.1472 157.606 38.2253L157.456 38.2653C157.222 38.3275 157.023 38.3814 156.771 38.3814C156.467 38.3814 156.164 38.3034 155.936 38.2253C155.708 38.1472 155.48 37.9903 155.252 37.7567C155.025 37.5218 154.873 37.2875 154.797 37.0532C154.721 36.819 154.645 36.5847 154.645 36.2724C154.645 36.1162 154.645 35.8819 154.721 35.7258C154.759 35.6477 154.797 35.5495 154.835 35.4521C154.873 35.3547 154.911 35.2565 154.949 35.1784C155.176 34.8661 155.404 34.5537 155.708 34.3976C156.012 34.1626 156.391 34.0852 156.771 34.0852C157.075 34.0852 157.378 34.1633 157.606 34.2414C157.834 34.3195 158.062 34.4756 158.29 34.7099ZM158.062 37.4444C158.214 37.2882 158.366 37.1313 158.442 36.8971C158.518 36.7409 158.518 36.5066 158.518 36.1162C158.518 35.8812 158.442 35.6477 158.366 35.4127C158.265 35.2138 158.137 35.03 157.986 34.8668C157.922 34.8224 157.859 34.7763 157.798 34.7286C157.661 34.6235 157.538 34.5302 157.378 34.4756C157.151 34.3976 156.923 34.3195 156.695 34.3195C156.467 34.3195 156.239 34.3976 156.012 34.4756C155.86 34.5537 155.633 34.7099 155.48 34.8661C155.437 34.9317 155.393 34.9962 155.346 35.0596C155.245 35.2006 155.154 35.327 155.1 35.4915C155.025 35.7257 154.949 35.96 154.949 36.1943C154.949 36.4285 155.025 36.6628 155.1 36.8971C155.176 37.0533 155.328 37.2882 155.48 37.4444C155.548 37.4907 155.61 37.5377 155.668 37.5819C155.805 37.6862 155.928 37.7795 156.088 37.8348C156.315 37.9129 156.543 37.991 156.771 37.991C156.999 37.991 157.227 37.9129 157.454 37.8348C157.682 37.7567 157.91 37.5999 158.062 37.4444Z" fill="white"/>
<path fill-rule="evenodd" clip-rule="evenodd" d="M157.834 35.6477C157.834 35.8039 157.758 35.9601 157.682 36.0381C157.648 36.1092 157.594 36.1691 157.526 36.2107C157.459 36.2523 157.382 36.2739 157.303 36.2731L157.834 37.3663H157.227L156.771 36.3505H156.467V37.3663H155.936V34.9442H156.847C157.227 34.9442 157.454 35.0223 157.606 35.1004C157.758 35.2566 157.834 35.4134 157.834 35.6477ZM156.771 36.0381C156.923 36.0381 157.075 36.0381 157.151 35.9601C157.227 35.882 157.227 35.8039 157.227 35.6477C157.227 35.5696 157.151 35.4915 157.075 35.4127C156.999 35.3353 156.847 35.3353 156.695 35.3353H156.467V36.0381H156.771Z" fill="white"/>
<path d="M44.0236 35.647L46.4533 32.6009C48.0475 33.9284 49.7938 34.5538 51.6154 34.5538C52.831 34.5538 53.4384 34.1633 53.4384 33.4598V33.3818C53.4384 32.679 52.9063 32.2878 50.7806 31.82C47.3641 31.0384 44.7823 30.0233 44.7823 26.6634V26.5853C44.7823 23.5392 47.1367 21.3513 50.9326 21.3513C53.6657 21.3513 55.7921 22.1322 57.5377 23.5392L55.336 26.7415C53.8938 25.6482 52.2995 25.1009 50.8566 25.1009C49.7938 25.1009 49.2624 25.5702 49.2624 26.1949V26.273C49.2624 27.0538 49.7938 27.3669 51.9955 27.8354C55.6401 28.6944 57.9177 29.8671 57.9177 32.9906V33.0694C57.9177 36.4279 55.336 38.4596 51.4641 38.4596C48.731 38.3815 45.9979 37.4437 44.0236 35.647ZM59.8914 21.6644H72.7987V25.5702H64.2954V27.9916H71.9633V31.585H64.2954V34.2414H72.8748V38.1472H59.8914V21.6644Z" fill="white"/>
<path fill-rule="evenodd" clip-rule="evenodd" d="M82.7449 21.6644H75.3044V38.1472H79.7078V33.1475H81.6821L84.8706 38.1472H89.9574L86.1615 32.4447C88.1351 31.5851 89.426 29.8671 89.426 27.3669V27.2888C89.426 25.6483 88.8946 24.3982 87.9838 23.4604C86.8449 22.2891 85.1747 21.6644 82.7449 21.6644ZM84.8706 27.6005C84.8706 28.7732 84.0358 29.5541 82.5169 29.5541H79.5558V25.5702H82.4409C83.9598 25.5702 84.8706 26.1949 84.8706 27.5231V27.6005Z" fill="white"/>
<path d="M89.1227 21.6643H94.0575L97.702 32.0535L101.346 21.6643H106.205L99.7517 38.2252H95.6517L89.1227 21.6643Z" fill="white"/>
<path fill-rule="evenodd" clip-rule="evenodd" d="M113.874 21.6644H107.117V38.1472H111.52V33.4598H113.646C117.594 33.4598 120.479 31.4289 120.479 27.5231V27.445C120.479 23.7734 117.898 21.6644 113.874 21.6644ZM116.076 27.6792C116.076 28.9293 115.165 29.7883 113.57 29.7883H111.52V25.414H113.494C115.089 25.414 116.076 26.1949 116.076 27.6011V27.6792ZM129.59 21.6644H122.15V38.1472H126.553V33.1475H128.527L131.716 38.1472H136.803L133.007 32.4447C134.981 31.585 136.271 29.8671 136.271 27.3669V27.2888C136.271 25.6482 135.74 24.3981 134.829 23.4604C133.69 22.2891 132.019 21.6644 129.59 21.6644ZM131.716 27.6005C131.716 28.7732 130.881 29.554 129.362 29.554H126.401V25.5702H129.286C130.805 25.5702 131.716 26.1949 131.716 27.5231V27.6005ZM146.066 21.3513C141.131 21.3513 137.41 25.1797 137.41 29.9445C137.41 34.6319 141.055 38.3815 145.99 38.4596C150.925 38.4596 154.645 34.6312 154.645 29.9445V29.8664C154.645 25.1016 151 21.3513 146.066 21.3513ZM145.99 25.4921C148.419 25.4921 150.09 27.5231 150.09 29.9445C150.09 32.2878 148.495 34.3188 146.066 34.3976C143.636 34.3976 141.966 32.2878 141.966 29.9445V29.8664C141.966 27.5231 143.56 25.4921 145.99 25.4921Z" fill="white"/>
</g>
</svg>
